<?xml version="1.0" standalone="no"?>
<!DOCTYPE svg PUBLIC "-//W3C//DTD SVG 1.1//EN" "http://www.w3.org/Graphics/SVG/1.1/DTD/svg11.dtd" >
<svg xmlns="http://www.w3.org/2000/svg" xmlns:xlink="http://www.w3.org/1999/xlink" version="1.1">
<metadata>
Created by FontForge 20170910 at Thu Jan  4 13:34:59 2018
 By Jimmy Wärting
Jorge Cisterna
</metadata>
<defs>
<font id="FibraOne-Bold" horiz-adv-x="0" >
  <font-face 
    font-family="Fibra One Bold"
    font-weight="700"
    font-stretch="normal"
    units-per-em="1000"
    panose-1="0 0 8 0 0 0 0 0 0 0"
    ascent="800"
    descent="-200"
    x-height="520"
    cap-height="730"
    bbox="-790 -245 1256 988.641"
    underline-thickness="50"
    underline-position="-100"
    stemh="117"
    stemv="139"
    unicode-range="U+0020-FB02"
  />
<missing-glyph horiz-adv-x="600" 
 />
    <glyph glyph-name="fi" unicode="fi" horiz-adv-x="688" 
d="M57 403c-20 0 -32 12 -32 32v53c0 20 12 32 32 32h45c7 0 11 5 11 11v80c0 121 66 177 180 177c32 0 66 -5 92 -13c18 -5 25 -19 23 -37l-6 -54c-3 -22 -16 -29 -37 -24c-16 5 -31 7 -47 7c-42 0 -66 -12 -66 -56v-80c0 -6 5 -11 11 -11h101c21 0 32 -12 32 -32v-53
c0 -20 -11 -32 -32 -32h-101c-6 0 -11 -5 -11 -12v-361c0 -20 -12 -32 -32 -32h-75c-20 0 -32 12 -32 32v361c0 7 -4 12 -11 12h-45zM555 588c-52 0 -92 42 -92 94c0 50 40 91 92 91c50 0 93 -41 93 -91c0 -52 -43 -94 -93 -94zM586 520c20 0 32 -12 32 -32v-456
c0 -20 -12 -32 -32 -32h-75c-20 0 -32 12 -32 32v456c0 20 12 32 32 32h75z" />
    <glyph glyph-name="fl" unicode="fl" horiz-adv-x="688" 
d="M57 403c-20 0 -32 12 -32 32v53c0 20 12 32 32 32h45c7 0 11 5 11 11v80c0 121 66 177 180 177c32 0 66 -5 92 -13c18 -5 25 -19 23 -37l-6 -54c-3 -22 -16 -29 -37 -24c-16 5 -31 7 -47 7c-42 0 -66 -12 -66 -56v-80c0 -6 5 -11 11 -11h101c21 0 32 -12 32 -32v-53
c0 -20 -11 -32 -32 -32h-101c-6 0 -11 -5 -11 -12v-361c0 -20 -12 -32 -32 -32h-75c-20 0 -32 12 -32 32v361c0 7 -4 12 -11 12h-45zM586 780c20 0 32 -12 32 -32v-716c0 -20 -12 -32 -32 -32h-75c-20 0 -32 12 -32 32v716c0 20 12 32 32 32h75z" />
    <glyph glyph-name=".notdef" horiz-adv-x="600" 
 />
    <glyph glyph-name="A" unicode="A" horiz-adv-x="718" 
d="M42 0c-22 0 -32 15 -25 36l240 654c9 27 27 40 56 40h82c28 0 47 -12 57 -39l257 -655c8 -22 -1 -36 -24 -36h-88c-18 0 -30 8 -37 25l-39 109c-3 7 -9 12 -18 12h-288c-8 0 -14 -4 -17 -12l-38 -108c-5 -17 -17 -26 -35 -26h-83zM250 287c-3 -11 2 -18 13 -18h191
c10 0 16 7 12 18l-100 274c-5 14 -16 14 -20 0z" />
    <glyph glyph-name="Aacute" unicode="&#xc1;" horiz-adv-x="718" 
d="M443 936c20 7 35 0 40 -20l15 -62c5 -20 -4 -33 -25 -36l-196 -31c-19 -2 -32 4 -39 23l-4 17c-6 19 0 33 20 40zM42 0c-22 0 -32 15 -25 36l240 654c9 27 27 40 56 40h82c28 0 47 -12 57 -39l257 -655c8 -22 -1 -36 -24 -36h-88c-18 0 -30 8 -37 25l-39 109
c-3 7 -9 12 -18 12h-288c-8 0 -14 -4 -17 -12l-38 -108c-5 -17 -17 -26 -35 -26h-83zM250 287c-3 -11 2 -18 13 -18h191c10 0 16 7 12 18l-100 274c-5 14 -16 14 -20 0z" />
    <glyph glyph-name="Abreve" unicode="&#x102;" horiz-adv-x="718" 
d="M254 936c19 0 27 -9 34 -28c12 -25 39 -40 71 -40c31 0 59 15 72 40c8 19 16 28 35 28h40c21 -1 34 -12 30 -34c-17 -76 -83 -126 -177 -126c-87 0 -158 46 -177 126c-5 22 9 33 30 34h42zM42 0c-22 0 -32 15 -25 36l240 654c9 27 27 40 56 40h82c28 0 47 -12 57 -39
l257 -655c8 -22 -1 -36 -24 -36h-88c-18 0 -30 8 -37 25l-39 109c-3 7 -9 12 -18 12h-288c-8 0 -14 -4 -17 -12l-38 -108c-5 -17 -17 -26 -35 -26h-83zM250 287c-3 -11 2 -18 13 -18h191c10 0 16 7 12 18l-100 274c-5 14 -16 14 -20 0z" />
    <glyph glyph-name="Acircumflex" unicode="&#xc2;" horiz-adv-x="718" 
d="M175 822c-9 18 -4 34 12 42l138 74c19 10 37 11 57 1l144 -75c18 -8 22 -24 13 -42l-10 -19c-8 -17 -22 -22 -40 -16l-107 37c-20 7 -37 6 -55 0l-102 -36c-17 -6 -33 -2 -41 15zM42 0c-22 0 -32 15 -25 36l240 654c9 27 27 40 56 40h82c28 0 47 -12 57 -39l257 -655
c8 -22 -1 -36 -24 -36h-88c-18 0 -30 8 -37 25l-39 109c-3 7 -9 12 -18 12h-288c-8 0 -14 -4 -17 -12l-38 -108c-5 -17 -17 -26 -35 -26h-83zM250 287c-3 -11 2 -18 13 -18h191c10 0 16 7 12 18l-100 274c-5 14 -16 14 -20 0z" />
    <glyph glyph-name="Adieresis" unicode="&#xc4;" horiz-adv-x="718" 
d="M237 764c-46 0 -82 37 -82 86c0 44 36 81 82 81c45 0 84 -37 84 -81c0 -49 -39 -86 -84 -86zM471 764c-44 0 -83 37 -83 86c0 44 39 81 83 81c47 0 85 -37 85 -81c0 -49 -38 -86 -85 -86zM42 0c-22 0 -32 15 -25 36l240 654c9 27 27 40 56 40h82c28 0 47 -12 57 -39
l257 -655c8 -22 -1 -36 -24 -36h-88c-18 0 -30 8 -37 25l-39 109c-3 7 -9 12 -18 12h-288c-8 0 -14 -4 -17 -12l-38 -108c-5 -17 -17 -26 -35 -26h-83zM250 287c-3 -11 2 -18 13 -18h191c10 0 16 7 12 18l-100 274c-5 14 -16 14 -20 0z" />
    <glyph glyph-name="Agrave" unicode="&#xc0;" horiz-adv-x="718" 
d="M225 919c6 22 21 28 41 20l189 -73c19 -8 25 -22 20 -41l-7 -16c-5 -19 -19 -26 -38 -24l-197 36c-21 5 -29 17 -24 38zM42 0c-22 0 -32 15 -25 36l240 654c9 27 27 40 56 40h82c28 0 47 -12 57 -39l257 -655c8 -22 -1 -36 -24 -36h-88c-18 0 -30 8 -37 25l-39 109
c-3 7 -9 12 -18 12h-288c-8 0 -14 -4 -17 -12l-38 -108c-5 -17 -17 -26 -35 -26h-83zM250 287c-3 -11 2 -18 13 -18h191c10 0 16 7 12 18l-100 274c-5 14 -16 14 -20 0z" />
    <glyph glyph-name="Amacron" unicode="&#x100;" horiz-adv-x="718" 
d="M201 870c0 20 12 32 32 32h248c20 0 32 -12 32 -32v-37c0 -21 -12 -32 -32 -32h-248c-20 0 -32 11 -32 32v37zM42 0c-22 0 -32 15 -25 36l240 654c9 27 27 40 56 40h82c28 0 47 -12 57 -39l257 -655c8 -22 -1 -36 -24 -36h-88c-18 0 -30 8 -37 25l-39 109
c-3 7 -9 12 -18 12h-288c-8 0 -14 -4 -17 -12l-38 -108c-5 -17 -17 -26 -35 -26h-83zM250 287c-3 -11 2 -18 13 -18h191c10 0 16 7 12 18l-100 274c-5 14 -16 14 -20 0z" />
    <glyph glyph-name="Aogonek" unicode="&#x104;" horiz-adv-x="718" 
d="M686 -138c14 2 21 -4 21 -17v-35c0 -11 -5 -18 -16 -21c-17 -4 -35 -6 -52 -6c-64 0 -116 35 -116 107c0 48 30 84 74 110c-18 0 -30 8 -37 25l-39 109c-3 7 -9 12 -18 12h-288c-8 0 -14 -4 -17 -12l-38 -108c-5 -17 -17 -26 -35 -26h-83c-22 0 -32 15 -25 36l240 654
c9 27 27 40 56 40h82c28 0 47 -12 57 -39l257 -655c6 -17 2 -29 -10 -34c-60 -38 -73 -74 -73 -105c0 -23 17 -37 37 -37c7 0 15 1 23 2zM454 269c10 0 16 7 12 18l-100 274c-5 14 -16 14 -20 0l-96 -274c-3 -11 2 -18 13 -18h191z" />
    <glyph glyph-name="Aring" unicode="&#xc5;" horiz-adv-x="718" 
d="M356 759c-81 0 -126 51 -126 111c0 59 45 111 126 111c82 0 127 -52 127 -111c0 -60 -45 -111 -127 -111zM356 831c25 0 43 17 43 39c0 23 -18 41 -43 41s-42 -18 -41 -41c-1 -22 16 -39 41 -39zM42 0c-22 0 -32 15 -25 36l240 654c9 27 27 40 56 40h82
c28 0 47 -12 57 -39l257 -655c8 -22 -1 -36 -24 -36h-88c-18 0 -30 8 -37 25l-39 109c-3 7 -9 12 -18 12h-288c-8 0 -14 -4 -17 -12l-38 -108c-5 -17 -17 -26 -35 -26h-83zM250 287c-3 -11 2 -18 13 -18h191c10 0 16 7 12 18l-100 274c-5 14 -16 14 -20 0z" />
    <glyph glyph-name="Atilde" unicode="&#xc3;" horiz-adv-x="718" 
d="M511 905c19 -3 28 -16 26 -36c-8 -52 -52 -82 -103 -82c-58 0 -96 35 -125 35c-16 0 -25 -8 -31 -16c-7 -12 -18 -16 -35 -13l-32 6c-19 4 -29 17 -26 37c10 54 48 86 97 85c52 -1 103 -36 134 -36c15 0 27 8 32 15c5 11 15 14 32 11zM42 0c-22 0 -32 15 -25 36l240 654
c9 27 27 40 56 40h82c28 0 47 -12 57 -39l257 -655c8 -22 -1 -36 -24 -36h-88c-18 0 -30 8 -37 25l-39 109c-3 7 -9 12 -18 12h-288c-8 0 -14 -4 -17 -12l-38 -108c-5 -17 -17 -26 -35 -26h-83zM250 287c-3 -11 2 -18 13 -18h191c10 0 16 7 12 18l-100 274
c-5 14 -16 14 -20 0z" />
    <glyph glyph-name="AE" unicode="&#xc6;" horiz-adv-x="950" 
d="M16 0c-25 0 -34 16 -22 38l379 669c9 16 21 23 40 23h431c20 0 31 -12 31 -32v-54c0 -20 -11 -32 -31 -32h-224c-11 0 -18 -7 -18 -18v-153c0 -11 7 -18 18 -18h247c20 0 31 -12 31 -32v-54c0 -20 -11 -32 -31 -32h-247c-11 0 -18 -7 -18 -18v-151c0 -11 7 -18 18 -18
h240c20 0 32 -11 32 -31v-55c0 -20 -12 -32 -32 -32h-367c-21 0 -34 12 -34 33v96c0 11 -7 18 -18 18h-224c-10 0 -17 -4 -21 -13l-62 -112c-9 -15 -21 -22 -38 -22h-80zM281 292c-6 -12 -1 -22 13 -22h147c11 0 18 7 18 18v282c0 17 -13 21 -21 5z" />
    <glyph glyph-name="AEacute" unicode="&#x1fc;" horiz-adv-x="950" 
d="M684 936c20 7 35 0 40 -20l15 -62c5 -20 -4 -33 -25 -36l-196 -31c-19 -2 -32 4 -39 23l-4 17c-6 19 0 33 20 40zM16 0c-25 0 -34 16 -22 38l379 669c9 16 21 23 40 23h431c20 0 31 -12 31 -32v-54c0 -20 -11 -32 -31 -32h-224c-11 0 -18 -7 -18 -18v-153
c0 -11 7 -18 18 -18h247c20 0 31 -12 31 -32v-54c0 -20 -11 -32 -31 -32h-247c-11 0 -18 -7 -18 -18v-151c0 -11 7 -18 18 -18h240c20 0 32 -11 32 -31v-55c0 -20 -12 -32 -32 -32h-367c-21 0 -34 12 -34 33v96c0 11 -7 18 -18 18h-224c-10 0 -17 -4 -21 -13l-62 -112
c-9 -15 -21 -22 -38 -22h-80zM281 292c-6 -12 -1 -22 13 -22h147c11 0 18 7 18 18v282c0 17 -13 21 -21 5z" />
    <glyph glyph-name="B" unicode="B" horiz-adv-x="683" 
d="M125 0c-27 0 -42 15 -42 42v646c0 27 15 42 42 42h239c162 0 257 -90 257 -202c0 -60 -28 -107 -74 -138c-15 -11 -15 -24 1 -33c54 -33 92 -86 92 -160c0 -118 -103 -197 -263 -197h-252zM223 440c0 -11 7 -18 18 -18h114c93 1 126 44 126 98c0 56 -50 95 -122 95h-118
c-11 0 -18 -7 -18 -18v-157zM223 133c0 -11 7 -18 18 -18h126c85 0 131 43 131 99c0 67 -45 100 -139 100h-118c-11 0 -18 -7 -18 -18v-163z" />
    <glyph glyph-name="C" unicode="C" horiz-adv-x="831" 
d="M40 368c0 214 167 372 391 372c195 0 329 -127 357 -289c3 -21 -8 -33 -29 -33h-87c-19 0 -30 10 -35 29c-23 94 -100 165 -206 165c-142 0 -243 -104 -243 -244c0 -144 101 -250 243 -250c101 0 175 49 204 127c7 17 18 26 37 26h86c22 0 34 -13 29 -35
c-36 -138 -168 -246 -356 -246c-224 0 -391 159 -391 378z" />
    <glyph glyph-name="Cacute" unicode="&#x106;" horiz-adv-x="831" 
d="M509 938c20 7 35 0 40 -20l15 -62c5 -20 -4 -33 -25 -36l-196 -31c-19 -2 -32 4 -39 23l-4 17c-6 19 0 33 20 40zM40 368c0 214 167 372 391 372c195 0 329 -127 357 -289c3 -21 -8 -33 -29 -33h-87c-19 0 -30 10 -35 29c-23 94 -100 165 -206 165
c-142 0 -243 -104 -243 -244c0 -144 101 -250 243 -250c101 0 175 49 204 127c7 17 18 26 37 26h86c22 0 34 -13 29 -35c-36 -138 -168 -246 -356 -246c-224 0 -391 159 -391 378z" />
    <glyph glyph-name="Ccaron" unicode="&#x10c;" horiz-adv-x="831" 
d="M258 904l3 14c3 18 22 25 40 18l109 -34c9 -3 18 -3 27 0l109 34c19 7 37 0 41 -18l3 -14c3 -18 2 -33 -15 -41l-115 -57c-25 -12 -48 -12 -73 0l-115 57c-16 8 -18 23 -14 41zM40 368c0 214 167 372 391 372c195 0 329 -127 357 -289c3 -21 -8 -33 -29 -33h-87
c-19 0 -30 10 -35 29c-23 94 -100 165 -206 165c-142 0 -243 -104 -243 -244c0 -144 101 -250 243 -250c101 0 175 49 204 127c7 17 18 26 37 26h86c22 0 34 -13 29 -35c-36 -138 -168 -246 -356 -246c-224 0 -391 159 -391 378z" />
    <glyph glyph-name="Ccedilla" unicode="&#xc7;" horiz-adv-x="831" 
d="M758 271c22 0 34 -13 29 -35c-35 -133 -158 -238 -335 -246l-2 -6c-3 -12 3 -19 16 -21c41 -7 74 -34 74 -84c0 -65 -59 -99 -132 -99c-32 0 -63 7 -86 19c-15 8 -17 22 -9 37l3 8c8 16 20 18 37 13c13 -5 27 -7 43 -7c27 0 40 10 40 28s-14 29 -40 29h-16
c-19 0 -29 13 -23 32l17 55c-195 24 -334 174 -334 374c0 214 167 372 391 372c195 0 329 -127 357 -289c3 -21 -8 -33 -29 -33h-87c-19 0 -30 10 -35 29c-23 94 -100 165 -206 165c-142 0 -243 -104 -243 -244c0 -144 101 -250 243 -250c101 0 175 49 204 127
c7 17 18 26 37 26h86z" />
    <glyph glyph-name="Cdotaccent" unicode="&#x10a;" horiz-adv-x="831" 
d="M423 776c-52 0 -92 42 -92 94c0 50 40 91 92 91c50 0 93 -41 93 -91c0 -52 -43 -94 -93 -94zM40 368c0 214 167 372 391 372c195 0 329 -127 357 -289c3 -21 -8 -33 -29 -33h-87c-19 0 -30 10 -35 29c-23 94 -100 165 -206 165c-142 0 -243 -104 -243 -244
c0 -144 101 -250 243 -250c101 0 175 49 204 127c7 17 18 26 37 26h86c22 0 34 -13 29 -35c-36 -138 -168 -246 -356 -246c-224 0 -391 159 -391 378z" />
    <glyph glyph-name="D" unicode="D" horiz-adv-x="785" 
d="M125 0c-27 0 -42 15 -42 42v646c0 27 15 42 42 42h236c224 0 383 -153 383 -365c0 -218 -160 -365 -383 -365h-236zM227 136c0 -11 7 -18 18 -18h116c122 0 236 79 236 247c0 170 -114 247 -236 247h-116c-11 0 -18 -7 -18 -18v-458z" />
    <glyph glyph-name="Eth" unicode="&#xd0;" horiz-adv-x="785" 
d="M361 730c224 0 383 -153 383 -365c0 -218 -160 -365 -383 -365h-236c-27 0 -42 15 -42 42v273h-32c-20 0 -32 12 -32 32v43c0 20 12 32 32 32h32v266c0 27 15 42 42 42h236zM361 118c122 0 236 79 236 247c0 170 -114 247 -236 247h-116c-11 0 -18 -7 -18 -18v-172h119
c20 0 32 -12 32 -32v-43c0 -20 -12 -32 -32 -32h-119v-179c0 -11 7 -18 18 -18h116z" />
    <glyph glyph-name="Dcaron" unicode="&#x10e;" horiz-adv-x="785" 
d="M186 902l3 14c3 18 22 25 40 18l109 -34c9 -3 18 -3 27 0l109 34c19 7 37 0 41 -18l3 -14c3 -18 2 -33 -15 -41l-115 -57c-25 -12 -48 -12 -73 0l-115 57c-16 8 -18 23 -14 41zM125 0c-27 0 -42 15 -42 42v646c0 27 15 42 42 42h236c224 0 383 -153 383 -365
c0 -218 -160 -365 -383 -365h-236zM227 136c0 -11 7 -18 18 -18h116c122 0 236 79 236 247c0 170 -114 247 -236 247h-116c-11 0 -18 -7 -18 -18v-458z" />
    <glyph glyph-name="Dcroat" unicode="&#x110;" horiz-adv-x="785" 
d="M361 730c224 0 383 -153 383 -365c0 -218 -160 -365 -383 -365h-236c-27 0 -42 15 -42 42v273h-32c-20 0 -32 12 -32 32v43c0 20 12 32 32 32h32v266c0 27 15 42 42 42h236zM361 118c122 0 236 79 236 247c0 170 -114 247 -236 247h-116c-11 0 -18 -7 -18 -18v-172h119
c20 0 32 -12 32 -32v-43c0 -20 -12 -32 -32 -32h-119v-179c0 -11 7 -18 18 -18h116z" />
    <glyph glyph-name="E" unicode="E" horiz-adv-x="564" 
d="M125 0c-27 0 -42 15 -42 42v646c0 27 15 42 42 42h350c20 0 31 -12 31 -32v-54c0 -20 -11 -32 -31 -32h-231c-11 0 -18 -7 -18 -18v-154c0 -11 7 -18 18 -18h211c20 0 32 -11 32 -32v-54c0 -20 -12 -32 -32 -32h-211c-11 0 -18 -7 -18 -18v-150c0 -11 7 -18 18 -18h240
c20 0 32 -11 32 -31v-55c0 -20 -12 -32 -32 -32h-359z" />
    <glyph glyph-name="Eacute" unicode="&#xc9;" horiz-adv-x="564" 
d="M387 936c20 7 35 0 40 -20l15 -62c5 -20 -4 -33 -25 -36l-196 -31c-19 -2 -32 4 -39 23l-4 17c-6 19 0 33 20 40zM125 0c-27 0 -42 15 -42 42v646c0 27 15 42 42 42h350c20 0 31 -12 31 -32v-54c0 -20 -11 -32 -31 -32h-231c-11 0 -18 -7 -18 -18v-154
c0 -11 7 -18 18 -18h211c20 0 32 -11 32 -32v-54c0 -20 -12 -32 -32 -32h-211c-11 0 -18 -7 -18 -18v-150c0 -11 7 -18 18 -18h240c20 0 32 -11 32 -31v-55c0 -20 -12 -32 -32 -32h-359z" />
    <glyph glyph-name="Ecaron" unicode="&#x11a;" horiz-adv-x="564" 
d="M136 902l3 14c3 18 22 25 40 18l109 -34c9 -3 18 -3 27 0l109 34c19 7 37 0 41 -18l3 -14c3 -18 2 -33 -15 -41l-115 -57c-25 -12 -48 -12 -73 0l-115 57c-16 8 -18 23 -14 41zM125 0c-27 0 -42 15 -42 42v646c0 27 15 42 42 42h350c20 0 31 -12 31 -32v-54
c0 -20 -11 -32 -31 -32h-231c-11 0 -18 -7 -18 -18v-154c0 -11 7 -18 18 -18h211c20 0 32 -11 32 -32v-54c0 -20 -12 -32 -32 -32h-211c-11 0 -18 -7 -18 -18v-150c0 -11 7 -18 18 -18h240c20 0 32 -11 32 -31v-55c0 -20 -12 -32 -32 -32h-359z" />
    <glyph glyph-name="Ecircumflex" unicode="&#xca;" horiz-adv-x="564" 
d="M119 822c-9 18 -4 34 12 42l138 74c19 10 37 11 57 1l144 -75c18 -8 22 -24 13 -42l-10 -19c-8 -17 -22 -22 -40 -16l-107 37c-20 7 -37 6 -55 0l-102 -36c-17 -6 -33 -2 -41 15zM125 0c-27 0 -42 15 -42 42v646c0 27 15 42 42 42h350c20 0 31 -12 31 -32v-54
c0 -20 -11 -32 -31 -32h-231c-11 0 -18 -7 -18 -18v-154c0 -11 7 -18 18 -18h211c20 0 32 -11 32 -32v-54c0 -20 -12 -32 -32 -32h-211c-11 0 -18 -7 -18 -18v-150c0 -11 7 -18 18 -18h240c20 0 32 -11 32 -31v-55c0 -20 -12 -32 -32 -32h-359z" />
    <glyph glyph-name="Edieresis" unicode="&#xcb;" horiz-adv-x="564" 
d="M181 764c-46 0 -82 37 -82 86c0 44 36 81 82 81c45 0 84 -37 84 -81c0 -49 -39 -86 -84 -86zM415 764c-44 0 -83 37 -83 86c0 44 39 81 83 81c47 0 85 -37 85 -81c0 -49 -38 -86 -85 -86zM125 0c-27 0 -42 15 -42 42v646c0 27 15 42 42 42h350c20 0 31 -12 31 -32v-54
c0 -20 -11 -32 -31 -32h-231c-11 0 -18 -7 -18 -18v-154c0 -11 7 -18 18 -18h211c20 0 32 -11 32 -32v-54c0 -20 -12 -32 -32 -32h-211c-11 0 -18 -7 -18 -18v-150c0 -11 7 -18 18 -18h240c20 0 32 -11 32 -31v-55c0 -20 -12 -32 -32 -32h-359z" />
    <glyph glyph-name="Edotaccent" unicode="&#x116;" horiz-adv-x="564" 
d="M301 774c-52 0 -92 42 -92 94c0 50 40 91 92 91c50 0 93 -41 93 -91c0 -52 -43 -94 -93 -94zM125 0c-27 0 -42 15 -42 42v646c0 27 15 42 42 42h350c20 0 31 -12 31 -32v-54c0 -20 -11 -32 -31 -32h-231c-11 0 -18 -7 -18 -18v-154c0 -11 7 -18 18 -18h211
c20 0 32 -11 32 -32v-54c0 -20 -12 -32 -32 -32h-211c-11 0 -18 -7 -18 -18v-150c0 -11 7 -18 18 -18h240c20 0 32 -11 32 -31v-55c0 -20 -12 -32 -32 -32h-359z" />
    <glyph glyph-name="Egrave" unicode="&#xc8;" horiz-adv-x="564" 
d="M169 919c6 22 21 28 41 20l189 -73c19 -8 25 -22 20 -41l-7 -16c-5 -19 -19 -26 -38 -24l-197 36c-21 5 -29 17 -24 38zM125 0c-27 0 -42 15 -42 42v646c0 27 15 42 42 42h350c20 0 31 -12 31 -32v-54c0 -20 -11 -32 -31 -32h-231c-11 0 -18 -7 -18 -18v-154
c0 -11 7 -18 18 -18h211c20 0 32 -11 32 -32v-54c0 -20 -12 -32 -32 -32h-211c-11 0 -18 -7 -18 -18v-150c0 -11 7 -18 18 -18h240c20 0 32 -11 32 -31v-55c0 -20 -12 -32 -32 -32h-359z" />
    <glyph glyph-name="Emacron" unicode="&#x112;" horiz-adv-x="564" 
d="M145 870c0 20 12 32 32 32h248c20 0 32 -12 32 -32v-37c0 -21 -12 -32 -32 -32h-248c-20 0 -32 11 -32 32v37zM125 0c-27 0 -42 15 -42 42v646c0 27 15 42 42 42h350c20 0 31 -12 31 -32v-54c0 -20 -11 -32 -31 -32h-231c-11 0 -18 -7 -18 -18v-154c0 -11 7 -18 18 -18
h211c20 0 32 -11 32 -32v-54c0 -20 -12 -32 -32 -32h-211c-11 0 -18 -7 -18 -18v-150c0 -11 7 -18 18 -18h240c20 0 32 -11 32 -31v-55c0 -20 -12 -32 -32 -32h-359z" />
    <glyph glyph-name="Eogonek" unicode="&#x118;" horiz-adv-x="564" 
d="M484 118c20 0 32 -11 32 -31v-55c0 -15 -6 -25 -18 -30c-60 -38 -73 -74 -73 -105c0 -23 17 -37 37 -37c7 0 15 1 23 2c14 2 21 -4 21 -17v-35c0 -11 -5 -18 -16 -21c-17 -4 -35 -6 -52 -6c-64 0 -116 35 -116 107c0 48 30 84 74 110h-271c-27 0 -42 15 -42 42v646
c0 27 15 42 42 42h350c20 0 31 -12 31 -32v-54c0 -20 -11 -32 -31 -32h-231c-11 0 -18 -7 -18 -18v-154c0 -11 7 -18 18 -18h211c20 0 32 -11 32 -32v-54c0 -20 -12 -32 -32 -32h-211c-11 0 -18 -7 -18 -18v-150c0 -11 7 -18 18 -18h240z" />
    <glyph glyph-name="F" unicode="F" horiz-adv-x="551" 
d="M115 0c-20 0 -32 12 -32 32v656c0 27 15 42 42 42h354c20 0 32 -12 32 -32v-57c0 -20 -12 -32 -32 -32h-234c-11 0 -18 -7 -18 -18v-151c0 -11 7 -18 18 -18h230c20 0 32 -12 32 -32v-56c0 -20 -12 -32 -32 -32h-230c-11 0 -18 -7 -18 -18v-252c0 -20 -11 -32 -31 -32
h-81z" />
    <glyph glyph-name="G" unicode="G" horiz-adv-x="811" 
d="M40 370c0 213 170 370 387 370c170 0 304 -110 334 -260c4 -21 -8 -34 -29 -34h-76c-19 0 -29 10 -34 28c-23 82 -94 142 -195 142c-135 0 -239 -105 -239 -251s104 -252 239 -252c102 0 172 44 200 115c5 12 -3 21 -15 21h-139c-20 0 -31 11 -31 31v42c0 20 11 32 31 32
h256c23 0 36 -13 36 -35v-6c0 -198 -134 -323 -338 -323c-217 0 -387 161 -387 380z" />
    <glyph glyph-name="Gbreve" unicode="&#x11e;" horiz-adv-x="811" 
d="M318 936c19 0 27 -9 34 -28c12 -25 39 -40 71 -40c31 0 59 15 72 40c8 19 16 28 35 28h40c21 -1 34 -12 30 -34c-17 -76 -83 -126 -177 -126c-87 0 -158 46 -177 126c-5 22 9 33 30 34h42zM40 370c0 213 170 370 387 370c170 0 304 -110 334 -260c4 -21 -8 -34 -29 -34
h-76c-19 0 -29 10 -34 28c-23 82 -94 142 -195 142c-135 0 -239 -105 -239 -251s104 -252 239 -252c102 0 172 44 200 115c5 12 -3 21 -15 21h-139c-20 0 -31 11 -31 31v42c0 20 11 32 31 32h256c23 0 36 -13 36 -35v-6c0 -198 -134 -323 -338 -323
c-217 0 -387 161 -387 380z" />
    <glyph glyph-name="Gcommaaccent" unicode="&#x122;" horiz-adv-x="811" 
d="M40 370c0 213 170 370 387 370c170 0 304 -110 334 -260c4 -21 -8 -34 -29 -34h-76c-19 0 -29 10 -34 28c-23 82 -94 142 -195 142c-135 0 -239 -105 -239 -251s104 -252 239 -252c102 0 172 44 200 115c5 12 -3 21 -15 21h-139c-20 0 -31 11 -31 31v42c0 20 11 32 31 32
h256c23 0 36 -13 36 -35v-6c0 -198 -134 -323 -338 -323c-217 0 -387 161 -387 380zM349 -62c2 20 14 29 33 29h58c22 0 33 -13 26 -36l-47 -150c-5 -17 -18 -26 -36 -26h-29c-22 0 -33 13 -29 34z" />
    <glyph glyph-name="Gdotaccent" unicode="&#x120;" horiz-adv-x="811" 
d="M421 774c-52 0 -92 42 -92 94c0 50 40 91 92 91c50 0 93 -41 93 -91c0 -52 -43 -94 -93 -94zM40 370c0 213 170 370 387 370c170 0 304 -110 334 -260c4 -21 -8 -34 -29 -34h-76c-19 0 -29 10 -34 28c-23 82 -94 142 -195 142c-135 0 -239 -105 -239 -251
s104 -252 239 -252c102 0 172 44 200 115c5 12 -3 21 -15 21h-139c-20 0 -31 11 -31 31v42c0 20 11 32 31 32h256c23 0 36 -13 36 -35v-6c0 -198 -134 -323 -338 -323c-217 0 -387 161 -387 380z" />
    <glyph glyph-name="H" unicode="H" horiz-adv-x="818" 
d="M115 0c-20 0 -32 12 -32 32v666c0 20 12 32 32 32h81c20 0 31 -12 31 -32v-238c0 -22 13 -34 35 -34h294c22 0 35 12 35 34v238c0 20 12 32 32 32h80c20 0 32 -12 32 -32v-666c0 -20 -12 -32 -32 -32h-80c-20 0 -32 12 -32 32v229c0 22 -13 34 -35 34h-294
c-22 0 -35 -12 -35 -34v-229c0 -20 -11 -32 -31 -32h-81z" />
    <glyph glyph-name="Hbar" unicode="&#x126;" horiz-adv-x="818" 
d="M766 621c20 0 32 -12 32 -32v-26c0 -20 -12 -32 -32 -32h-31v-499c0 -20 -12 -32 -32 -32h-80c-20 0 -32 12 -32 32v229c0 22 -13 34 -35 34h-294c-22 0 -35 -12 -35 -34v-229c0 -20 -11 -32 -31 -32h-81c-20 0 -32 12 -32 32v499h-33c-20 0 -31 12 -31 32v26
c0 20 11 32 31 32h33v77c0 20 12 32 32 32h81c20 0 31 -12 31 -32v-77h364v77c0 20 12 32 32 32h80c20 0 32 -12 32 -32v-77h31zM591 460v71h-364v-71c0 -22 13 -34 35 -34h294c22 0 35 12 35 34z" />
    <glyph glyph-name="I" unicode="I" horiz-adv-x="311" 
d="M196 730c20 0 31 -12 31 -32v-666c0 -20 -11 -32 -31 -32h-81c-20 0 -32 12 -32 32v666c0 20 12 32 32 32h81z" />
    <glyph glyph-name="IJ" unicode="&#x132;" horiz-adv-x="1013" 
d="M196 730c20 0 31 -12 31 -32v-666c0 -20 -11 -32 -31 -32h-81c-20 0 -32 12 -32 32v666c0 20 12 32 32 32h81zM333 230c-4 22 9 34 30 34h76c19 0 29 -10 34 -28c20 -71 80 -118 166 -118c95 0 155 69 155 168v303c0 14 -8 21 -21 21h-208c-20 0 -32 12 -32 32v56
c0 20 12 32 32 32h334c25 0 39 -14 39 -38v-406c0 -168 -117 -296 -299 -296c-172 0 -283 105 -306 240z" />
    <glyph glyph-name="Iacute" unicode="&#xcd;" horiz-adv-x="311" 
d="M241 936c20 7 35 0 40 -20l15 -62c5 -20 -4 -33 -25 -36l-196 -31c-19 -2 -32 4 -39 23l-4 17c-6 19 0 33 20 40zM196 730c20 0 31 -12 31 -32v-666c0 -20 -11 -32 -31 -32h-81c-20 0 -32 12 -32 32v666c0 20 12 32 32 32h81z" />
    <glyph glyph-name="Icircumflex" unicode="&#xce;" horiz-adv-x="311" 
d="M-27 822c-9 18 -4 34 12 42l138 74c19 10 37 11 57 1l144 -75c18 -8 22 -24 13 -42l-10 -19c-8 -17 -22 -22 -40 -16l-107 37c-20 7 -37 6 -55 0l-102 -36c-17 -6 -33 -2 -41 15zM196 730c20 0 31 -12 31 -32v-666c0 -20 -11 -32 -31 -32h-81c-20 0 -32 12 -32 32v666
c0 20 12 32 32 32h81z" />
    <glyph glyph-name="Idieresis" unicode="&#xcf;" horiz-adv-x="311" 
d="M35 764c-46 0 -82 37 -82 86c0 44 36 81 82 81c45 0 84 -37 84 -81c0 -49 -39 -86 -84 -86zM269 764c-44 0 -83 37 -83 86c0 44 39 81 83 81c47 0 85 -37 85 -81c0 -49 -38 -86 -85 -86zM196 730c20 0 31 -12 31 -32v-666c0 -20 -11 -32 -31 -32h-81c-20 0 -32 12 -32 32
v666c0 20 12 32 32 32h81z" />
    <glyph glyph-name="Idotaccent" unicode="&#x130;" horiz-adv-x="311" 
d="M155 774c-52 0 -92 42 -92 94c0 50 40 91 92 91c50 0 93 -41 93 -91c0 -52 -43 -94 -93 -94zM196 730c20 0 31 -12 31 -32v-666c0 -20 -11 -32 -31 -32h-81c-20 0 -32 12 -32 32v666c0 20 12 32 32 32h81z" />
    <glyph glyph-name="Igrave" unicode="&#xcc;" horiz-adv-x="311" 
d="M23 919c6 22 21 28 41 20l189 -73c19 -8 25 -22 20 -41l-7 -16c-5 -19 -19 -26 -38 -24l-197 36c-21 5 -29 17 -24 38zM196 730c20 0 31 -12 31 -32v-666c0 -20 -11 -32 -31 -32h-81c-20 0 -32 12 -32 32v666c0 20 12 32 32 32h81z" />
    <glyph glyph-name="Imacron" unicode="&#x12a;" horiz-adv-x="311" 
d="M-1 870c0 20 12 32 32 32h248c20 0 32 -12 32 -32v-37c0 -21 -12 -32 -32 -32h-248c-20 0 -32 11 -32 32v37zM196 730c20 0 31 -12 31 -32v-666c0 -20 -11 -32 -31 -32h-81c-20 0 -32 12 -32 32v666c0 20 12 32 32 32h81z" />
    <glyph glyph-name="Iogonek" unicode="&#x12e;" horiz-adv-x="311" 
d="M227 32c0 -14 -5 -24 -15 -29c-61 -39 -74 -75 -74 -106c0 -23 17 -37 37 -37c7 0 15 1 23 2c14 2 21 -4 21 -17v-35c0 -11 -5 -18 -16 -21c-17 -4 -35 -6 -52 -6c-64 0 -116 35 -116 107c0 48 31 84 75 110c-17 2 -27 14 -27 32v666c0 20 12 32 32 32h81
c20 0 31 -12 31 -32v-666z" />
    <glyph glyph-name="Itilde" unicode="&#x128;" horiz-adv-x="311" 
d="M309 905c19 -3 28 -16 26 -36c-8 -52 -52 -82 -103 -82c-58 0 -96 35 -125 35c-16 0 -25 -8 -31 -16c-7 -12 -18 -16 -35 -13l-32 6c-19 4 -29 17 -26 37c10 54 48 86 97 85c52 -1 103 -36 134 -36c15 0 27 8 32 15c5 11 15 14 32 11zM196 730c20 0 31 -12 31 -32v-666
c0 -20 -11 -32 -31 -32h-81c-20 0 -32 12 -32 32v666c0 20 12 32 32 32h81z" />
    <glyph glyph-name="J" unicode="J" horiz-adv-x="702" 
d="M22 230c-4 22 9 34 30 34h76c19 0 29 -10 34 -28c20 -71 80 -118 166 -118c95 0 155 69 155 168v303c0 14 -8 21 -21 21h-208c-20 0 -32 12 -32 32v56c0 20 12 32 32 32h334c25 0 39 -14 39 -38v-406c0 -168 -117 -296 -299 -296c-172 0 -283 105 -306 240z" />
    <glyph glyph-name="uni00A40301" horiz-adv-x="702" 
d="M514 936c20 7 35 0 40 -20l15 -62c5 -20 -4 -33 -25 -36l-196 -31c-19 -2 -32 4 -39 23l-4 17c-6 19 0 33 20 40zM22 230c-4 22 9 34 30 34h76c19 0 29 -10 34 -28c20 -71 80 -118 166 -118c95 0 155 69 155 168v303c0 14 -8 21 -21 21h-208c-20 0 -32 12 -32 32v56
c0 20 12 32 32 32h334c25 0 39 -14 39 -38v-406c0 -168 -117 -296 -299 -296c-172 0 -283 105 -306 240z" />
    <glyph glyph-name="K" unicode="K" horiz-adv-x="669" 
d="M196 730c20 0 31 -12 31 -32v-666c0 -20 -11 -32 -31 -32h-81c-20 0 -32 12 -32 32v666c0 20 12 32 32 32h81zM251 307c-8 11 -12 20 -12 34v42c0 14 4 23 12 34l230 294c10 14 22 19 39 19h93c27 0 36 -18 18 -39l-257 -313c-7 -8 -7 -16 0 -25l273 -314
c18 -21 9 -39 -18 -39h-107c-16 0 -28 5 -38 19z" />
    <glyph glyph-name="Kcommaaccent" unicode="&#x136;" horiz-adv-x="669" 
d="M196 730c20 0 31 -12 31 -32v-666c0 -20 -11 -32 -31 -32h-81c-20 0 -32 12 -32 32v666c0 20 12 32 32 32h81zM251 307c-8 11 -12 20 -12 34v42c0 14 4 23 12 34l230 294c10 14 22 19 39 19h93c27 0 36 -18 18 -39l-257 -313c-7 -8 -7 -16 0 -25l273 -314
c18 -21 9 -39 -18 -39h-107c-16 0 -28 5 -38 19zM269 -62c2 20 14 29 33 29h58c22 0 33 -13 26 -36l-47 -150c-5 -17 -18 -26 -36 -26h-29c-22 0 -33 13 -29 34z" />
    <glyph glyph-name="L" unicode="L" horiz-adv-x="580" 
d="M122 0c-25 0 -39 14 -39 38v660c0 20 12 32 32 32h81c20 0 31 -12 31 -32v-552c0 -11 7 -18 18 -18h287c20 0 32 -12 32 -32v-64c0 -20 -12 -32 -32 -32h-410z" />
    <glyph glyph-name="Lacute" unicode="&#x139;" horiz-adv-x="580" 
d="M267 936c20 7 35 0 40 -20l15 -62c5 -20 -4 -33 -25 -36l-196 -31c-19 -2 -32 4 -39 23l-4 17c-6 19 0 33 20 40zM122 0c-25 0 -39 14 -39 38v660c0 20 12 32 32 32h81c20 0 31 -12 31 -32v-552c0 -11 7 -18 18 -18h287c20 0 32 -12 32 -32v-64c0 -20 -12 -32 -32 -32
h-410z" />
    <glyph glyph-name="Lcaron" unicode="&#x13d;" horiz-adv-x="580" 
d="M458 546c19 0 31 10 34 29l32 173c4 22 -7 35 -28 35h-52c-20 0 -31 -11 -33 -30l-17 -173c-2 -21 9 -34 30 -34h34zM122 0c-25 0 -39 14 -39 38v660c0 20 12 32 32 32h81c20 0 31 -12 31 -32v-552c0 -11 7 -18 18 -18h287c20 0 32 -12 32 -32v-64c0 -20 -12 -32 -32 -32
h-410z" />
    <glyph glyph-name="Lcommaaccent" unicode="&#x13b;" horiz-adv-x="580" 
d="M122 0c-25 0 -39 14 -39 38v660c0 20 12 32 32 32h81c20 0 31 -12 31 -32v-552c0 -11 7 -18 18 -18h287c20 0 32 -12 32 -32v-64c0 -20 -12 -32 -32 -32h-410zM262 -62c2 20 14 29 33 29h58c22 0 33 -13 26 -36l-47 -150c-5 -17 -18 -26 -36 -26h-29c-22 0 -33 13 -29 34
z" />
    <glyph glyph-name="Ldot" unicode="&#x13f;" horiz-adv-x="598" 
d="M122 0c-25 0 -39 14 -39 38v660c0 20 12 32 32 32h81c20 0 31 -12 31 -32v-552c0 -11 7 -18 18 -18h287c20 0 32 -12 32 -32v-64c0 -20 -12 -32 -32 -32h-410zM468 323c-52 0 -92 42 -92 94c0 50 40 91 92 91c50 0 93 -41 93 -91c0 -52 -43 -94 -93 -94z" />
    <glyph glyph-name="Lslash" unicode="&#x141;" horiz-adv-x="580" 
d="M532 128c20 0 32 -12 32 -32v-64c0 -20 -12 -32 -32 -32h-410c-25 0 -39 14 -39 38v236l-48 -16c-20 -6 -34 0 -39 21l-10 35c-5 19 2 33 21 39l76 26v319c0 20 12 32 32 32h81c20 0 31 -12 31 -32v-269l81 28c19 6 33 -1 40 -20l11 -36c6 -19 -1 -34 -20 -41l-112 -38
v-176c0 -11 7 -18 18 -18h287z" />
    <glyph glyph-name="M" unicode="M" horiz-adv-x="896" 
d="M115 0c-20 0 -32 12 -32 32v660c0 24 14 38 39 38h49c20 0 35 -7 46 -24l217 -314c7 -10 17 -11 25 0l224 314c12 17 26 24 47 24h44c25 0 38 -14 38 -38v-660c0 -20 -11 -32 -32 -32h-70c-20 0 -32 12 -32 32v433c0 17 -12 22 -22 7l-159 -232c-11 -17 -26 -23 -46 -23
h-8c-19 0 -34 7 -45 23l-158 231c-10 15 -22 10 -22 -7v-432c0 -20 -12 -32 -32 -32h-71z" />
    <glyph glyph-name="N" unicode="N" horiz-adv-x="802" 
d="M115 0c-20 0 -32 12 -32 32v660c0 25 14 38 38 38h23c20 0 34 -7 46 -22l380 -471c10 -13 22 -9 22 8v453c0 20 12 32 32 32h63c20 0 32 -12 32 -32v-660c0 -25 -14 -38 -38 -38h-43c-19 0 -34 7 -46 22l-360 437c-10 13 -22 9 -22 -8v-419c0 -20 -12 -32 -32 -32h-63z
" />
    <glyph glyph-name="Nacute" unicode="&#x143;" horiz-adv-x="802" 
d="M483 936c20 7 35 0 40 -20l15 -62c5 -20 -4 -33 -25 -36l-196 -31c-19 -2 -32 4 -39 23l-4 17c-6 19 0 33 20 40zM115 0c-20 0 -32 12 -32 32v660c0 25 14 38 38 38h23c20 0 34 -7 46 -22l380 -471c10 -13 22 -9 22 8v453c0 20 12 32 32 32h63c20 0 32 -12 32 -32v-660
c0 -25 -14 -38 -38 -38h-43c-19 0 -34 7 -46 22l-360 437c-10 13 -22 9 -22 -8v-419c0 -20 -12 -32 -32 -32h-63z" />
    <glyph glyph-name="Ncaron" unicode="&#x147;" horiz-adv-x="802" 
d="M232 902l3 14c3 18 22 25 40 18l109 -34c9 -3 18 -3 27 0l109 34c19 7 37 0 41 -18l3 -14c3 -18 2 -33 -15 -41l-115 -57c-25 -12 -48 -12 -73 0l-115 57c-16 8 -18 23 -14 41zM115 0c-20 0 -32 12 -32 32v660c0 25 14 38 38 38h23c20 0 34 -7 46 -22l380 -471
c10 -13 22 -9 22 8v453c0 20 12 32 32 32h63c20 0 32 -12 32 -32v-660c0 -25 -14 -38 -38 -38h-43c-19 0 -34 7 -46 22l-360 437c-10 13 -22 9 -22 -8v-419c0 -20 -12 -32 -32 -32h-63z" />
    <glyph glyph-name="Ncommaaccent" unicode="&#x145;" horiz-adv-x="802" 
d="M115 0c-20 0 -32 12 -32 32v660c0 25 14 38 38 38h23c20 0 34 -7 46 -22l380 -471c10 -13 22 -9 22 8v453c0 20 12 32 32 32h63c20 0 32 -12 32 -32v-660c0 -25 -14 -38 -38 -38h-43c-19 0 -34 7 -46 22l-360 437c-10 13 -22 9 -22 -8v-419c0 -20 -12 -32 -32 -32h-63z
M342 -62c2 20 14 29 33 29h58c22 0 33 -13 26 -36l-47 -150c-5 -17 -18 -26 -36 -26h-29c-22 0 -33 13 -29 34z" />
    <glyph glyph-name="Eng" unicode="&#x14a;" horiz-adv-x="801" 
d="M115 0c-20 0 -32 12 -32 32v660c0 25 14 38 38 38h37c19 0 33 -6 46 -21l360 -390c11 -13 22 -8 22 8v371c0 20 12 32 32 32h68c20 0 31 -12 31 -32v-605c0 -180 -121 -294 -325 -305c-21 -1 -33 11 -33 32v43c0 20 11 30 32 32c117 10 195 75 195 198v19
c0 9 -3 15 -9 22l-341 361c-11 12 -22 8 -22 -8v-455c0 -20 -12 -32 -32 -32h-67z" />
    <glyph glyph-name="Ntilde" unicode="&#xd1;" horiz-adv-x="802" 
d="M551 905c19 -3 28 -16 26 -36c-8 -52 -52 -82 -103 -82c-58 0 -96 35 -125 35c-16 0 -25 -8 -31 -16c-7 -12 -18 -16 -35 -13l-32 6c-19 4 -29 17 -26 37c10 54 48 86 97 85c52 -1 103 -36 134 -36c15 0 27 8 32 15c5 11 15 14 32 11zM115 0c-20 0 -32 12 -32 32v660
c0 25 14 38 38 38h23c20 0 34 -7 46 -22l380 -471c10 -13 22 -9 22 8v453c0 20 12 32 32 32h63c20 0 32 -12 32 -32v-660c0 -25 -14 -38 -38 -38h-43c-19 0 -34 7 -46 22l-360 437c-10 13 -22 9 -22 -8v-419c0 -20 -12 -32 -32 -32h-63z" />
    <glyph glyph-name="O" unicode="O" horiz-adv-x="863" 
d="M40 368c0 214 166 372 391 372c226 0 392 -158 392 -372c0 -219 -166 -378 -392 -378c-225 0 -391 159 -391 378zM188 368c0 -147 100 -251 243 -251c144 0 244 104 244 251c0 144 -100 245 -244 245c-143 0 -243 -101 -243 -245z" />
    <glyph glyph-name="Oacute" unicode="&#xd3;" horiz-adv-x="863" 
d="M517 936c20 7 35 0 40 -20l15 -62c5 -20 -4 -33 -25 -36l-196 -31c-19 -2 -32 4 -39 23l-4 17c-6 19 0 33 20 40zM40 368c0 214 166 372 391 372c226 0 392 -158 392 -372c0 -219 -166 -378 -392 -378c-225 0 -391 159 -391 378zM188 368c0 -147 100 -251 243 -251
c144 0 244 104 244 251c0 144 -100 245 -244 245c-143 0 -243 -101 -243 -245z" />
    <glyph glyph-name="Ocircumflex" unicode="&#xd4;" horiz-adv-x="863" 
d="M249 822c-9 18 -4 34 12 42l138 74c19 10 37 11 57 1l144 -75c18 -8 22 -24 13 -42l-10 -19c-8 -17 -22 -22 -40 -16l-107 37c-20 7 -37 6 -55 0l-102 -36c-17 -6 -33 -2 -41 15zM40 368c0 214 166 372 391 372c226 0 392 -158 392 -372c0 -219 -166 -378 -392 -378
c-225 0 -391 159 -391 378zM188 368c0 -147 100 -251 243 -251c144 0 244 104 244 251c0 144 -100 245 -244 245c-143 0 -243 -101 -243 -245z" />
    <glyph glyph-name="Odieresis" unicode="&#xd6;" horiz-adv-x="863" 
d="M311 764c-46 0 -82 37 -82 86c0 44 36 81 82 81c45 0 84 -37 84 -81c0 -49 -39 -86 -84 -86zM545 764c-44 0 -83 37 -83 86c0 44 39 81 83 81c47 0 85 -37 85 -81c0 -49 -38 -86 -85 -86zM40 368c0 214 166 372 391 372c226 0 392 -158 392 -372
c0 -219 -166 -378 -392 -378c-225 0 -391 159 -391 378zM188 368c0 -147 100 -251 243 -251c144 0 244 104 244 251c0 144 -100 245 -244 245c-143 0 -243 -101 -243 -245z" />
    <glyph glyph-name="Ograve" unicode="&#xd2;" horiz-adv-x="863" 
d="M299 919c6 22 21 28 41 20l189 -73c19 -8 25 -22 20 -41l-7 -16c-5 -19 -19 -26 -38 -24l-197 36c-21 5 -29 17 -24 38zM40 368c0 214 166 372 391 372c226 0 392 -158 392 -372c0 -219 -166 -378 -392 -378c-225 0 -391 159 -391 378zM188 368c0 -147 100 -251 243 -251
c144 0 244 104 244 251c0 144 -100 245 -244 245c-143 0 -243 -101 -243 -245z" />
    <glyph glyph-name="Ohungarumlaut" unicode="&#x150;" horiz-adv-x="863" 
d="M324 910c6 16 19 24 37 24h66c25 0 34 -17 20 -38l-57 -89c-9 -14 -21 -21 -38 -21h-38c-24 0 -33 15 -25 36zM509 910c6 16 19 24 37 24h66c26 0 34 -17 21 -38l-57 -89c-9 -14 -21 -21 -38 -21h-39c-24 0 -33 15 -25 36zM40 368c0 214 166 372 391 372
c226 0 392 -158 392 -372c0 -219 -166 -378 -392 -378c-225 0 -391 159 -391 378zM188 368c0 -147 100 -251 243 -251c144 0 244 104 244 251c0 144 -100 245 -244 245c-143 0 -243 -101 -243 -245z" />
    <glyph glyph-name="Omacron" unicode="&#x14c;" horiz-adv-x="863" 
d="M275 870c0 20 12 32 32 32h248c20 0 32 -12 32 -32v-37c0 -21 -12 -32 -32 -32h-248c-20 0 -32 11 -32 32v37zM40 368c0 214 166 372 391 372c226 0 392 -158 392 -372c0 -219 -166 -378 -392 -378c-225 0 -391 159 -391 378zM188 368c0 -147 100 -251 243 -251
c144 0 244 104 244 251c0 144 -100 245 -244 245c-143 0 -243 -101 -243 -245z" />
    <glyph glyph-name="uni01EA" unicode="&#x1ea;" horiz-adv-x="863" 
d="M510 -3c-57 -38 -69 -73 -69 -103c0 -23 17 -37 37 -37c7 0 15 1 23 2c14 2 21 -4 21 -17v-35c0 -11 -5 -18 -16 -21c-17 -4 -35 -6 -52 -6c-64 0 -116 35 -116 107c0 44 26 79 65 104c-211 13 -363 167 -363 377c0 214 166 372 391 372c226 0 392 -158 392 -372
c0 -193 -128 -339 -313 -371zM188 368c0 -147 100 -251 243 -251c144 0 244 104 244 251c0 144 -100 245 -244 245c-143 0 -243 -101 -243 -245z" />
    <glyph glyph-name="Oslash" unicode="&#xd8;" horiz-adv-x="863" 
d="M724 622c62 -65 99 -153 99 -254c0 -219 -166 -378 -392 -378c-90 0 -170 25 -234 69l-46 -49c-14 -16 -31 -15 -46 -2l-17 16c-15 15 -15 30 -2 46l45 48c-57 65 -91 152 -91 250c0 214 166 372 391 372c85 0 161 -22 223 -61l33 35c14 16 31 15 45 2l19 -18
c15 -14 15 -30 2 -45zM188 368c0 -56 14 -106 40 -146l334 358c-37 21 -82 33 -131 33c-143 0 -243 -101 -243 -245zM431 117c144 0 244 104 244 251c0 59 -17 111 -47 152l-338 -361c39 -27 87 -42 141 -42z" />
    <glyph glyph-name="Oslashacute" unicode="&#x1fe;" horiz-adv-x="863" 
d="M313 810l-4 17c-6 19 0 33 20 40l189 69c20 7 35 0 40 -20l15 -62c5 -20 -4 -33 -25 -36l-196 -31c-19 -2 -32 4 -39 23zM724 622c62 -65 99 -153 99 -254c0 -219 -166 -378 -392 -378c-90 0 -170 25 -234 69l-46 -49c-14 -16 -31 -15 -46 -2l-17 16c-15 15 -15 30 -2 46
l45 48c-57 65 -91 152 -91 250c0 214 166 372 391 372c85 0 161 -22 223 -61l33 35c14 16 31 15 45 2l19 -18c15 -14 15 -30 2 -45zM188 368c0 -56 14 -106 40 -146l334 358c-37 21 -82 33 -131 33c-143 0 -243 -101 -243 -245zM431 117c144 0 244 104 244 251
c0 59 -17 111 -47 152l-338 -361c39 -27 87 -42 141 -42z" />
    <glyph glyph-name="Otilde" unicode="&#xd5;" horiz-adv-x="863" 
d="M585 905c19 -3 28 -16 26 -36c-8 -52 -52 -82 -103 -82c-58 0 -96 35 -125 35c-16 0 -25 -8 -31 -16c-7 -12 -18 -16 -35 -13l-32 6c-19 4 -29 17 -26 37c10 54 48 86 97 85c52 -1 103 -36 134 -36c15 0 27 8 32 15c5 11 15 14 32 11zM40 368c0 214 166 372 391 372
c226 0 392 -158 392 -372c0 -219 -166 -378 -392 -378c-225 0 -391 159 -391 378zM188 368c0 -147 100 -251 243 -251c144 0 244 104 244 251c0 144 -100 245 -244 245c-143 0 -243 -101 -243 -245z" />
    <glyph glyph-name="OE" unicode="&#x152;" horiz-adv-x="1167" 
d="M839 304c-13 0 -20 -8 -20 -20v-145c0 -13 8 -21 20 -21h238c20 0 32 -11 32 -31v-55c0 -20 -12 -32 -32 -32h-368c-21 0 -33 12 -33 33v34c-66 -49 -150 -77 -245 -77c-225 0 -391 159 -391 378c0 214 166 372 391 372c95 0 179 -28 245 -76v33c0 21 12 33 33 33h352
c20 0 32 -12 32 -32v-55c0 -20 -12 -31 -32 -31h-222c-12 0 -20 -8 -20 -21v-148c0 -13 8 -21 20 -21h245c20 0 32 -11 32 -32v-54c0 -20 -12 -32 -32 -32h-245zM431 117c144 0 244 104 244 251c0 144 -100 245 -244 245c-143 0 -243 -101 -243 -245
c0 -147 100 -251 243 -251z" />
    <glyph glyph-name="P" unicode="P" horiz-adv-x="645" 
d="M115 0c-20 0 -32 12 -32 32v656c0 27 15 42 42 42h185c174 0 310 -105 310 -264c0 -155 -135 -262 -310 -262h-65c-11 0 -18 -7 -18 -18v-154c0 -20 -11 -32 -31 -32h-81zM227 340c0 -11 7 -18 18 -18h68c92 0 160 64 160 144c0 84 -69 146 -160 146h-68
c-11 0 -18 -7 -18 -18v-254z" />
    <glyph glyph-name="Thorn" unicode="&#xde;" horiz-adv-x="656" 
d="M115 0c-20 0 -32 12 -32 32v666c0 20 12 32 32 32h81c20 0 31 -12 31 -32v-53c0 -11 7 -18 18 -18h65c175 0 310 -106 310 -264c0 -156 -135 -260 -310 -260h-65c-11 0 -18 -7 -18 -18v-53c0 -20 -11 -32 -31 -32h-81zM227 237c0 -11 7 -18 18 -18h68
c92 0 160 63 160 144c0 84 -68 148 -160 148h-68c-11 0 -18 -7 -18 -18v-256z" />
    <glyph glyph-name="Q" unicode="Q" horiz-adv-x="863" 
d="M735 122l55 -60c15 -16 14 -33 -3 -47l-34 -29c-17 -15 -33 -14 -47 3l-55 60c-62 -38 -137 -59 -220 -59c-225 0 -391 159 -391 378c0 214 166 372 391 372c226 0 392 -158 392 -372c0 -97 -32 -181 -88 -246zM431 117c48 0 91 12 128 33l-76 82c-15 16 -14 33 3 47
l35 29c16 14 33 13 47 -3l70 -77c24 39 37 87 37 140c0 144 -100 245 -244 245c-143 0 -243 -101 -243 -245c0 -147 100 -251 243 -251z" />
    <glyph glyph-name="R" unicode="R" horiz-adv-x="648" 
d="M83 32v662c0 23 13 36 37 36h182c171 0 300 -99 300 -245c0 -111 -82 -194 -187 -219l-4 -1c-16 -5 -20 -17 -8 -30l179 -195c19 -21 10 -40 -17 -40h-105c-16 0 -28 5 -38 18l-166 199c-13 16 -29 10 -29 -11v-174c0 -20 -11 -32 -31 -32h-81c-20 0 -32 12 -32 32z
M227 379c0 -11 7 -18 18 -18h57c97 0 153 54 153 124c0 71 -56 125 -153 125h-57c-11 0 -18 -7 -18 -18v-213z" />
    <glyph glyph-name="Racute" unicode="&#x154;" horiz-adv-x="648" 
d="M384 936c20 7 35 0 40 -20l15 -62c5 -20 -4 -33 -25 -36l-196 -31c-19 -2 -32 4 -39 23l-4 17c-6 19 0 33 20 40zM83 32v662c0 23 13 36 37 36h182c171 0 300 -99 300 -245c0 -111 -82 -194 -187 -219l-4 -1c-16 -5 -20 -17 -8 -30l179 -195c19 -21 10 -40 -17 -40h-105
c-16 0 -28 5 -38 18l-166 199c-13 16 -29 10 -29 -11v-174c0 -20 -11 -32 -31 -32h-81c-20 0 -32 12 -32 32zM227 379c0 -11 7 -18 18 -18h57c97 0 153 54 153 124c0 71 -56 125 -153 125h-57c-11 0 -18 -7 -18 -18v-213z" />
    <glyph glyph-name="Rcaron" unicode="&#x158;" horiz-adv-x="648" 
d="M133 902l3 14c3 18 22 25 40 18l109 -34c9 -3 18 -3 27 0l109 34c19 7 37 0 41 -18l3 -14c3 -18 2 -33 -15 -41l-115 -57c-25 -12 -48 -12 -73 0l-115 57c-16 8 -18 23 -14 41zM83 32v662c0 23 13 36 37 36h182c171 0 300 -99 300 -245c0 -111 -82 -194 -187 -219l-4 -1
c-16 -5 -20 -17 -8 -30l179 -195c19 -21 10 -40 -17 -40h-105c-16 0 -28 5 -38 18l-166 199c-13 16 -29 10 -29 -11v-174c0 -20 -11 -32 -31 -32h-81c-20 0 -32 12 -32 32zM227 379c0 -11 7 -18 18 -18h57c97 0 153 54 153 124c0 71 -56 125 -153 125h-57
c-11 0 -18 -7 -18 -18v-213z" />
    <glyph glyph-name="Rcommaaccent" unicode="&#x156;" horiz-adv-x="648" 
d="M83 32v662c0 23 13 36 37 36h182c171 0 300 -99 300 -245c0 -111 -82 -194 -187 -219l-4 -1c-16 -5 -20 -17 -8 -30l179 -195c19 -21 10 -40 -17 -40h-105c-16 0 -28 5 -38 18l-166 199c-13 16 -29 10 -29 -11v-174c0 -20 -11 -32 -31 -32h-81c-20 0 -32 12 -32 32z
M227 379c0 -11 7 -18 18 -18h57c97 0 153 54 153 124c0 71 -56 125 -153 125h-57c-11 0 -18 -7 -18 -18v-213zM273 -62c2 20 14 29 33 29h58c22 0 33 -13 26 -36l-47 -150c-5 -17 -18 -26 -36 -26h-29c-22 0 -33 13 -29 34z" />
    <glyph glyph-name="S" unicode="S" horiz-adv-x="635" 
d="M34 192c-7 22 5 35 27 35h82c18 0 29 -9 36 -25c27 -58 82 -85 145 -85c74 0 123 32 123 78c0 147 -383 72 -383 340c0 124 105 205 252 205c141 0 230 -81 261 -191c5 -21 -7 -35 -29 -35h-78c-18 0 -29 8 -37 25c-20 44 -58 74 -117 74c-63 0 -108 -29 -108 -78
c0 -146 385 -78 385 -337c0 -131 -126 -208 -269 -208c-145 0 -248 76 -290 202z" />
    <glyph glyph-name="Sacute" unicode="&#x15a;" horiz-adv-x="635" 
d="M404 936c20 7 35 0 40 -20l15 -62c5 -20 -4 -33 -25 -36l-196 -31c-19 -2 -32 4 -39 23l-4 17c-6 19 0 33 20 40zM34 192c-7 22 5 35 27 35h82c18 0 29 -9 36 -25c27 -58 82 -85 145 -85c74 0 123 32 123 78c0 147 -383 72 -383 340c0 124 105 205 252 205
c141 0 230 -81 261 -191c5 -21 -7 -35 -29 -35h-78c-18 0 -29 8 -37 25c-20 44 -58 74 -117 74c-63 0 -108 -29 -108 -78c0 -146 385 -78 385 -337c0 -131 -126 -208 -269 -208c-145 0 -248 76 -290 202z" />
    <glyph glyph-name="Scaron" unicode="&#x160;" horiz-adv-x="635" 
d="M153 902l3 14c3 18 22 25 40 18l109 -34c9 -3 18 -3 27 0l109 34c19 7 37 0 41 -18l3 -14c3 -18 2 -33 -15 -41l-115 -57c-25 -12 -48 -12 -73 0l-115 57c-16 8 -18 23 -14 41zM34 192c-7 22 5 35 27 35h82c18 0 29 -9 36 -25c27 -58 82 -85 145 -85c74 0 123 32 123 78
c0 147 -383 72 -383 340c0 124 105 205 252 205c141 0 230 -81 261 -191c5 -21 -7 -35 -29 -35h-78c-18 0 -29 8 -37 25c-20 44 -58 74 -117 74c-63 0 -108 -29 -108 -78c0 -146 385 -78 385 -337c0 -131 -126 -208 -269 -208c-145 0 -248 76 -290 202z" />
    <glyph glyph-name="Scedilla" unicode="&#x15e;" horiz-adv-x="635" 
d="M362 -8l-2 -8c-3 -12 3 -19 16 -21c41 -7 74 -34 74 -84c0 -65 -59 -99 -132 -99c-32 0 -63 7 -86 19c-15 8 -17 22 -9 37l3 8c8 16 20 18 37 13c13 -5 27 -7 43 -7c27 0 40 10 40 28s-14 29 -40 29h-16c-19 0 -29 13 -23 32l17 53c-124 13 -212 86 -250 200
c-7 22 5 35 27 35h82c18 0 29 -9 36 -25c27 -58 82 -85 145 -85c74 0 123 32 123 78c0 147 -383 72 -383 340c0 124 105 205 252 205c141 0 230 -81 261 -191c5 -21 -7 -35 -29 -35h-78c-18 0 -29 8 -37 25c-20 44 -58 74 -117 74c-63 0 -108 -29 -108 -78
c0 -146 385 -78 385 -337c0 -119 -104 -194 -231 -206z" />
    <glyph glyph-name="Scommaaccent" unicode="&#x218;" horiz-adv-x="635" 
d="M34 192c-7 22 5 35 27 35h82c18 0 29 -9 36 -25c27 -58 82 -85 145 -85c74 0 123 32 123 78c0 147 -383 72 -383 340c0 124 105 205 252 205c141 0 230 -81 261 -191c5 -21 -7 -35 -29 -35h-78c-18 0 -29 8 -37 25c-20 44 -58 74 -117 74c-63 0 -108 -29 -108 -78
c0 -146 385 -78 385 -337c0 -131 -126 -208 -269 -208c-145 0 -248 76 -290 202zM270 -62c2 20 14 29 33 29h58c22 0 33 -13 26 -36l-47 -150c-5 -17 -18 -26 -36 -26h-29c-22 0 -33 13 -29 34z" />
    <glyph glyph-name="uni1E9E" unicode="&#x1e9e;" horiz-adv-x="786" 
d="M109 0c-20 0 -32 12 -32 32v390c0 190 135 318 307 318c134 0 225 -62 271 -133c13 -21 11 -39 -2 -59l-99 -150c126 -6 202 -93 202 -205c1 -120 -87 -203 -236 -203c-116 0 -205 63 -239 167c-8 22 4 36 27 36h73c18 0 28 -9 37 -25c19 -36 58 -56 104 -56
c58 0 95 39 95 92c0 60 -53 99 -118 99h-55c-22 0 -35 13 -35 34v12c0 16 4 28 12 42l84 138c9 16 8 32 -7 44c-29 23 -67 36 -115 36c-81 0 -158 -67 -158 -178v-399c0 -20 -12 -32 -32 -32h-84z" />
    <glyph glyph-name="T" unicode="T" horiz-adv-x="588" 
d="M48 605c-20 0 -32 12 -32 32v61c0 20 12 32 32 32h492c20 0 31 -12 31 -32v-61c0 -20 -11 -32 -31 -32h-155c-12 0 -20 -8 -20 -20v-553c0 -20 -12 -32 -32 -32h-87c-20 0 -32 12 -32 32v553c0 12 -7 20 -20 20h-146z" />
    <glyph glyph-name="Tbar" unicode="&#x166;" horiz-adv-x="588" 
d="M540 730c20 0 31 -12 31 -32v-61c0 -20 -11 -32 -31 -32h-155c-12 0 -20 -8 -20 -20v-163h84c21 0 34 -12 34 -32v-43c0 -20 -13 -32 -34 -32h-84v-283c0 -20 -12 -32 -32 -32h-87c-20 0 -32 12 -32 32v283h-83c-22 0 -35 12 -35 32v43c0 20 13 32 35 32h83v163
c0 12 -7 20 -20 20h-146c-20 0 -32 12 -32 32v61c0 20 12 32 32 32h492z" />
    <glyph glyph-name="Tcaron" unicode="&#x164;" horiz-adv-x="588" 
d="M121 902l3 14c3 18 22 25 40 18l109 -34c9 -3 18 -3 27 0l109 34c19 7 37 0 41 -18l3 -14c3 -18 2 -33 -15 -41l-115 -57c-25 -12 -48 -12 -73 0l-115 57c-16 8 -18 23 -14 41zM48 605c-20 0 -32 12 -32 32v61c0 20 12 32 32 32h492c20 0 31 -12 31 -32v-61
c0 -20 -11 -32 -31 -32h-155c-12 0 -20 -8 -20 -20v-553c0 -20 -12 -32 -32 -32h-87c-20 0 -32 12 -32 32v553c0 12 -7 20 -20 20h-146z" />
    <glyph glyph-name="uni0162" unicode="&#x162;" horiz-adv-x="588" 
d="M540 730c20 0 31 -12 31 -32v-61c0 -20 -11 -32 -31 -32h-155c-12 0 -20 -8 -20 -20v-553c0 -20 -12 -32 -32 -32h-12l-4 -16c-3 -12 3 -19 16 -21c41 -7 74 -34 74 -84c0 -65 -59 -99 -132 -99c-32 0 -63 7 -86 19c-15 8 -17 22 -9 37l3 8c8 16 20 18 37 13
c13 -5 27 -7 43 -7c27 0 40 10 40 28s-14 29 -40 29h-16c-19 0 -29 13 -23 32l19 61c-18 1 -29 13 -29 32v553c0 12 -7 20 -20 20h-146c-20 0 -32 12 -32 32v61c0 20 12 32 32 32h492z" />
    <glyph glyph-name="uni021A" unicode="&#x21a;" horiz-adv-x="588" 
d="M48 605c-20 0 -32 12 -32 32v61c0 20 12 32 32 32h492c20 0 31 -12 31 -32v-61c0 -20 -11 -32 -31 -32h-155c-12 0 -20 -8 -20 -20v-553c0 -20 -12 -32 -32 -32h-87c-20 0 -32 12 -32 32v553c0 12 -7 20 -20 20h-146zM227 -62c2 20 14 29 33 29h58c22 0 33 -13 26 -36
l-47 -150c-5 -17 -18 -26 -36 -26h-29c-22 0 -33 13 -29 34z" />
    <glyph glyph-name="U" unicode="U" horiz-adv-x="777" 
d="M74 308v390c0 20 12 32 32 32h83c20 0 32 -12 32 -32v-399c0 -110 74 -178 168 -178c91 0 167 67 167 178v399c0 20 12 32 32 32h84c20 0 31 -12 31 -32v-390c0 -187 -132 -318 -314 -318c-180 0 -315 129 -315 318z" />
    <glyph glyph-name="Uacute" unicode="&#xda;" horiz-adv-x="777" 
d="M477 936c20 7 35 0 40 -20l15 -62c5 -20 -4 -33 -25 -36l-196 -31c-19 -2 -32 4 -39 23l-4 17c-6 19 0 33 20 40zM74 308v390c0 20 12 32 32 32h83c20 0 32 -12 32 -32v-399c0 -110 74 -178 168 -178c91 0 167 67 167 178v399c0 20 12 32 32 32h84c20 0 31 -12 31 -32
v-390c0 -187 -132 -318 -314 -318c-180 0 -315 129 -315 318z" />
    <glyph glyph-name="Ucircumflex" unicode="&#xdb;" horiz-adv-x="777" 
d="M209 822c-9 18 -4 34 12 42l138 74c19 10 37 11 57 1l144 -75c18 -8 22 -24 13 -42l-10 -19c-8 -17 -22 -22 -40 -16l-107 37c-20 7 -37 6 -55 0l-102 -36c-17 -6 -33 -2 -41 15zM74 308v390c0 20 12 32 32 32h83c20 0 32 -12 32 -32v-399c0 -110 74 -178 168 -178
c91 0 167 67 167 178v399c0 20 12 32 32 32h84c20 0 31 -12 31 -32v-390c0 -187 -132 -318 -314 -318c-180 0 -315 129 -315 318z" />
    <glyph glyph-name="Udieresis" unicode="&#xdc;" horiz-adv-x="777" 
d="M271 764c-46 0 -82 37 -82 86c0 44 36 81 82 81c45 0 84 -37 84 -81c0 -49 -39 -86 -84 -86zM505 764c-44 0 -83 37 -83 86c0 44 39 81 83 81c47 0 85 -37 85 -81c0 -49 -38 -86 -85 -86zM74 308v390c0 20 12 32 32 32h83c20 0 32 -12 32 -32v-399
c0 -110 74 -178 168 -178c91 0 167 67 167 178v399c0 20 12 32 32 32h84c20 0 31 -12 31 -32v-390c0 -187 -132 -318 -314 -318c-180 0 -315 129 -315 318z" />
    <glyph glyph-name="Ugrave" unicode="&#xd9;" horiz-adv-x="777" 
d="M259 919c6 22 21 28 41 20l189 -73c19 -8 25 -22 20 -41l-7 -16c-5 -19 -19 -26 -38 -24l-197 36c-21 5 -29 17 -24 38zM74 308v390c0 20 12 32 32 32h83c20 0 32 -12 32 -32v-399c0 -110 74 -178 168 -178c91 0 167 67 167 178v399c0 20 12 32 32 32h84
c20 0 31 -12 31 -32v-390c0 -187 -132 -318 -314 -318c-180 0 -315 129 -315 318z" />
    <glyph glyph-name="Uhungarumlaut" unicode="&#x170;" horiz-adv-x="777" 
d="M284 910c6 16 19 24 37 24h66c25 0 34 -17 20 -38l-57 -89c-9 -14 -21 -21 -38 -21h-38c-24 0 -33 15 -25 36zM469 910c6 16 19 24 37 24h66c26 0 34 -17 21 -38l-57 -89c-9 -14 -21 -21 -38 -21h-39c-24 0 -33 15 -25 36zM74 308v390c0 20 12 32 32 32h83
c20 0 32 -12 32 -32v-399c0 -110 74 -178 168 -178c91 0 167 67 167 178v399c0 20 12 32 32 32h84c20 0 31 -12 31 -32v-390c0 -187 -132 -318 -314 -318c-180 0 -315 129 -315 318z" />
    <glyph glyph-name="Umacron" unicode="&#x16a;" horiz-adv-x="777" 
d="M235 870c0 20 12 32 32 32h248c20 0 32 -12 32 -32v-37c0 -21 -12 -32 -32 -32h-248c-20 0 -32 11 -32 32v37zM74 308v390c0 20 12 32 32 32h83c20 0 32 -12 32 -32v-399c0 -110 74 -178 168 -178c91 0 167 67 167 178v399c0 20 12 32 32 32h84c20 0 31 -12 31 -32v-390
c0 -187 -132 -318 -314 -318c-180 0 -315 129 -315 318z" />
    <glyph glyph-name="Uogonek" unicode="&#x172;" horiz-adv-x="777" 
d="M672 730c20 0 31 -12 31 -32v-390c0 -159 -96 -278 -236 -310c-59 -38 -72 -73 -72 -104c0 -23 17 -37 37 -37c7 0 15 1 23 2c14 2 21 -4 21 -17v-35c0 -11 -5 -18 -16 -21c-17 -4 -35 -6 -52 -6c-64 0 -116 35 -116 107c0 45 26 79 65 104c-164 15 -283 139 -283 317
v390c0 20 12 32 32 32h83c20 0 32 -12 32 -32v-399c0 -110 74 -178 168 -178c91 0 167 67 167 178v399c0 20 12 32 32 32h84z" />
    <glyph glyph-name="Uring" unicode="&#x16e;" horiz-adv-x="777" 
d="M390 759c-81 0 -126 51 -126 111c0 59 45 111 126 111c82 0 127 -52 127 -111c0 -60 -45 -111 -127 -111zM390 831c25 0 43 17 43 39c0 23 -18 41 -43 41s-42 -18 -41 -41c-1 -22 16 -39 41 -39zM74 308v390c0 20 12 32 32 32h83c20 0 32 -12 32 -32v-399
c0 -110 74 -178 168 -178c91 0 167 67 167 178v399c0 20 12 32 32 32h84c20 0 31 -12 31 -32v-390c0 -187 -132 -318 -314 -318c-180 0 -315 129 -315 318z" />
    <glyph glyph-name="Utilde" unicode="&#x168;" horiz-adv-x="777" 
d="M545 905c19 -3 28 -16 26 -36c-8 -52 -52 -82 -103 -82c-58 0 -96 35 -125 35c-16 0 -25 -8 -31 -16c-7 -12 -18 -16 -35 -13l-32 6c-19 4 -29 17 -26 37c10 54 48 86 97 85c52 -1 103 -36 134 -36c15 0 27 8 32 15c5 11 15 14 32 11zM74 308v390c0 20 12 32 32 32h83
c20 0 32 -12 32 -32v-399c0 -110 74 -178 168 -178c91 0 167 67 167 178v399c0 20 12 32 32 32h84c20 0 31 -12 31 -32v-390c0 -187 -132 -318 -314 -318c-180 0 -315 129 -315 318z" />
    <glyph glyph-name="V" unicode="V" horiz-adv-x="712" 
d="M12 694c-9 22 1 36 25 36h91c19 0 31 -9 37 -26l179 -514c8 -21 24 -22 32 0l180 515c6 17 18 25 36 25h82c23 0 34 -14 25 -36l-253 -664c-8 -20 -23 -30 -45 -30h-91c-22 0 -36 10 -44 30z" />
    <glyph glyph-name="W" unicode="W" horiz-adv-x="981" 
d="M16 695c-6 22 5 35 27 35h82c19 0 31 -9 36 -28l105 -447c5 -23 23 -24 29 -1l131 451c5 18 16 25 34 25h64c18 0 30 -8 34 -26l131 -456c6 -23 24 -23 30 1l108 453c5 18 16 28 35 28h72c22 0 32 -13 27 -35l-182 -669c-4 -18 -15 -26 -33 -26h-75c-18 0 -29 8 -34 26
l-129 463c-6 23 -24 23 -30 0l-132 -464c-5 -18 -16 -25 -34 -25h-73c-18 0 -29 8 -34 26z" />
    <glyph glyph-name="Wacute" unicode="&#x1e82;" horiz-adv-x="981" 
d="M585 936c20 7 35 0 40 -20l15 -62c5 -20 -4 -33 -25 -36l-196 -31c-19 -2 -32 4 -39 23l-4 17c-6 19 0 33 20 40zM16 695c-6 22 5 35 27 35h82c19 0 31 -9 36 -28l105 -447c5 -23 23 -24 29 -1l131 451c5 18 16 25 34 25h64c18 0 30 -8 34 -26l131 -456
c6 -23 24 -23 30 1l108 453c5 18 16 28 35 28h72c22 0 32 -13 27 -35l-182 -669c-4 -18 -15 -26 -33 -26h-75c-18 0 -29 8 -34 26l-129 463c-6 23 -24 23 -30 0l-132 -464c-5 -18 -16 -25 -34 -25h-73c-18 0 -29 8 -34 26z" />
    <glyph glyph-name="Wcircumflex" unicode="&#x174;" horiz-adv-x="981" 
d="M317 822c-9 18 -4 34 12 42l138 74c19 10 37 11 57 1l144 -75c18 -8 22 -24 13 -42l-10 -19c-8 -17 -22 -22 -40 -16l-107 37c-20 7 -37 6 -55 0l-102 -36c-17 -6 -33 -2 -41 15zM16 695c-6 22 5 35 27 35h82c19 0 31 -9 36 -28l105 -447c5 -23 23 -24 29 -1l131 451
c5 18 16 25 34 25h64c18 0 30 -8 34 -26l131 -456c6 -23 24 -23 30 1l108 453c5 18 16 28 35 28h72c22 0 32 -13 27 -35l-182 -669c-4 -18 -15 -26 -33 -26h-75c-18 0 -29 8 -34 26l-129 463c-6 23 -24 23 -30 0l-132 -464c-5 -18 -16 -25 -34 -25h-73c-18 0 -29 8 -34 26z
" />
    <glyph glyph-name="Wdieresis" unicode="&#x1e84;" horiz-adv-x="981" 
d="M379 764c-46 0 -82 37 -82 86c0 44 36 81 82 81c45 0 84 -37 84 -81c0 -49 -39 -86 -84 -86zM613 764c-44 0 -83 37 -83 86c0 44 39 81 83 81c47 0 85 -37 85 -81c0 -49 -38 -86 -85 -86zM16 695c-6 22 5 35 27 35h82c19 0 31 -9 36 -28l105 -447c5 -23 23 -24 29 -1
l131 451c5 18 16 25 34 25h64c18 0 30 -8 34 -26l131 -456c6 -23 24 -23 30 1l108 453c5 18 16 28 35 28h72c22 0 32 -13 27 -35l-182 -669c-4 -18 -15 -26 -33 -26h-75c-18 0 -29 8 -34 26l-129 463c-6 23 -24 23 -30 0l-132 -464c-5 -18 -16 -25 -34 -25h-73
c-18 0 -29 8 -34 26z" />
    <glyph glyph-name="Wgrave" unicode="&#x1e80;" horiz-adv-x="981" 
d="M367 919c6 22 21 28 41 20l189 -73c19 -8 25 -22 20 -41l-7 -16c-5 -19 -19 -26 -38 -24l-197 36c-21 5 -29 17 -24 38zM16 695c-6 22 5 35 27 35h82c19 0 31 -9 36 -28l105 -447c5 -23 23 -24 29 -1l131 451c5 18 16 25 34 25h64c18 0 30 -8 34 -26l131 -456
c6 -23 24 -23 30 1l108 453c5 18 16 28 35 28h72c22 0 32 -13 27 -35l-182 -669c-4 -18 -15 -26 -33 -26h-75c-18 0 -29 8 -34 26l-129 463c-6 23 -24 23 -30 0l-132 -464c-5 -18 -16 -25 -34 -25h-73c-18 0 -29 8 -34 26z" />
    <glyph glyph-name="X" unicode="X" horiz-adv-x="704" 
d="M40 0c-27 0 -35 18 -19 39l239 319c8 11 7 21 0 31l-218 302c-15 21 -6 39 20 39h94c16 0 29 -6 39 -20l151 -208c9 -13 22 -14 31 0l146 208c9 14 21 20 38 20h85c27 0 35 -18 20 -39l-217 -301c-7 -10 -7 -21 0 -31l231 -320c16 -21 7 -39 -19 -39h-96
c-17 0 -29 6 -39 20l-160 223c-9 13 -22 13 -31 0l-165 -223c-10 -14 -22 -20 -39 -20h-91z" />
    <glyph glyph-name="Y" unicode="Y" horiz-adv-x="651" 
d="M14 692c-13 23 -3 38 22 38h93c17 0 30 -8 38 -23l146 -287c8 -15 21 -15 29 0l146 287c8 15 21 23 38 23h81c25 0 35 -15 23 -38l-225 -409c-5 -10 -7 -17 -7 -27v-223c0 -21 -12 -33 -33 -33h-75c-21 0 -33 12 -33 33v222c0 10 -2 18 -7 28z" />
    <glyph glyph-name="Yacute" unicode="&#xdd;" horiz-adv-x="651" 
d="M418 936c20 7 35 0 40 -20l15 -62c5 -20 -4 -33 -25 -36l-196 -31c-19 -2 -32 4 -39 23l-4 17c-6 19 0 33 20 40zM14 692c-13 23 -3 38 22 38h93c17 0 30 -8 38 -23l146 -287c8 -15 21 -15 29 0l146 287c8 15 21 23 38 23h81c25 0 35 -15 23 -38l-225 -409
c-5 -10 -7 -17 -7 -27v-223c0 -21 -12 -33 -33 -33h-75c-21 0 -33 12 -33 33v222c0 10 -2 18 -7 28z" />
    <glyph glyph-name="Ycircumflex" unicode="&#x176;" horiz-adv-x="651" 
d="M150 822c-9 18 -4 34 12 42l138 74c19 10 37 11 57 1l144 -75c18 -8 22 -24 13 -42l-10 -19c-8 -17 -22 -22 -40 -16l-107 37c-20 7 -37 6 -55 0l-102 -36c-17 -6 -33 -2 -41 15zM14 692c-13 23 -3 38 22 38h93c17 0 30 -8 38 -23l146 -287c8 -15 21 -15 29 0l146 287
c8 15 21 23 38 23h81c25 0 35 -15 23 -38l-225 -409c-5 -10 -7 -17 -7 -27v-223c0 -21 -12 -33 -33 -33h-75c-21 0 -33 12 -33 33v222c0 10 -2 18 -7 28z" />
    <glyph glyph-name="Ydieresis" unicode="&#x178;" horiz-adv-x="651" 
d="M212 764c-46 0 -82 37 -82 86c0 44 36 81 82 81c45 0 84 -37 84 -81c0 -49 -39 -86 -84 -86zM446 764c-44 0 -83 37 -83 86c0 44 39 81 83 81c47 0 85 -37 85 -81c0 -49 -38 -86 -85 -86zM14 692c-13 23 -3 38 22 38h93c17 0 30 -8 38 -23l146 -287c8 -15 21 -15 29 0
l146 287c8 15 21 23 38 23h81c25 0 35 -15 23 -38l-225 -409c-5 -10 -7 -17 -7 -27v-223c0 -21 -12 -33 -33 -33h-75c-21 0 -33 12 -33 33v222c0 10 -2 18 -7 28z" />
    <glyph glyph-name="Ygrave" unicode="&#x1ef2;" horiz-adv-x="651" 
d="M200 919c6 22 21 28 41 20l189 -73c19 -8 25 -22 20 -41l-7 -16c-5 -19 -19 -26 -38 -24l-197 36c-21 5 -29 17 -24 38zM14 692c-13 23 -3 38 22 38h93c17 0 30 -8 38 -23l146 -287c8 -15 21 -15 29 0l146 287c8 15 21 23 38 23h81c25 0 35 -15 23 -38l-225 -409
c-5 -10 -7 -17 -7 -27v-223c0 -21 -12 -33 -33 -33h-75c-21 0 -33 12 -33 33v222c0 10 -2 18 -7 28z" />
    <glyph glyph-name="uni1EF8" unicode="&#x1ef8;" horiz-adv-x="651" 
d="M486 905c19 -3 28 -16 26 -36c-8 -52 -52 -82 -103 -82c-58 0 -96 35 -125 35c-16 0 -25 -8 -31 -16c-7 -12 -18 -16 -35 -13l-32 6c-19 4 -29 17 -26 37c10 54 48 86 97 85c52 -1 103 -36 134 -36c15 0 27 8 32 15c5 11 15 14 32 11zM14 692c-13 23 -3 38 22 38h93
c17 0 30 -8 38 -23l146 -287c8 -15 21 -15 29 0l146 287c8 15 21 23 38 23h81c25 0 35 -15 23 -38l-225 -409c-5 -10 -7 -17 -7 -27v-223c0 -21 -12 -33 -33 -33h-75c-21 0 -33 12 -33 33v222c0 10 -2 18 -7 28z" />
    <glyph glyph-name="Z" unicode="Z" horiz-adv-x="657" 
d="M57 0c-23 0 -35 12 -35 32v9c0 16 4 28 14 42l365 498c11 17 5 30 -15 30h-314c-20 0 -32 11 -32 31v56c0 20 12 32 32 32h515c22 0 35 -11 35 -31v-7c0 -17 -5 -29 -14 -43l-368 -501c-12 -16 -5 -29 15 -29h343c20 0 31 -12 31 -32v-55c0 -20 -11 -32 -31 -32h-541z
" />
    <glyph glyph-name="Zacute" unicode="&#x179;" horiz-adv-x="657" 
d="M416 936c20 7 35 0 40 -20l15 -62c5 -20 -4 -33 -25 -36l-196 -31c-19 -2 -32 4 -39 23l-4 17c-6 19 0 33 20 40zM57 0c-23 0 -35 12 -35 32v9c0 16 4 28 14 42l365 498c11 17 5 30 -15 30h-314c-20 0 -32 11 -32 31v56c0 20 12 32 32 32h515c22 0 35 -11 35 -31v-7
c0 -17 -5 -29 -14 -43l-368 -501c-12 -16 -5 -29 15 -29h343c20 0 31 -12 31 -32v-55c0 -20 -11 -32 -31 -32h-541z" />
    <glyph glyph-name="Zcaron" unicode="&#x17d;" horiz-adv-x="657" 
d="M165 902l3 14c3 18 22 25 40 18l109 -34c9 -3 18 -3 27 0l109 34c19 7 37 0 41 -18l3 -14c3 -18 2 -33 -15 -41l-115 -57c-25 -12 -48 -12 -73 0l-115 57c-16 8 -18 23 -14 41zM57 0c-23 0 -35 12 -35 32v9c0 16 4 28 14 42l365 498c11 17 5 30 -15 30h-314
c-20 0 -32 11 -32 31v56c0 20 12 32 32 32h515c22 0 35 -11 35 -31v-7c0 -17 -5 -29 -14 -43l-368 -501c-12 -16 -5 -29 15 -29h343c20 0 31 -12 31 -32v-55c0 -20 -11 -32 -31 -32h-541z" />
    <glyph glyph-name="Zdotaccent" unicode="&#x17b;" horiz-adv-x="657" 
d="M330 774c-52 0 -92 42 -92 94c0 50 40 91 92 91c50 0 93 -41 93 -91c0 -52 -43 -94 -93 -94zM57 0c-23 0 -35 12 -35 32v9c0 16 4 28 14 42l365 498c11 17 5 30 -15 30h-314c-20 0 -32 11 -32 31v56c0 20 12 32 32 32h515c22 0 35 -11 35 -31v-7c0 -17 -5 -29 -14 -43
l-368 -501c-12 -16 -5 -29 15 -29h343c20 0 31 -12 31 -32v-55c0 -20 -11 -32 -31 -32h-541z" />
    <glyph glyph-name="A.ss01" horiz-adv-x="718" 
d="M45 0c-24 0 -34 15 -23 37l276 576c5 11 5 19 1 29l-26 61c-10 23 0 37 24 37h70c18 0 30 -8 38 -24l302 -679c10 -23 0 -37 -24 -37h-86c-18 0 -30 8 -37 24l-39 92c-4 9 -11 14 -22 14h-273c-11 0 -19 -4 -23 -14l-41 -92c-7 -17 -18 -24 -36 -24h-81zM274 276
c-5 -14 0 -22 14 -22h151c14 0 20 8 15 22l-76 176c-6 15 -18 15 -24 0z" />
    <glyph glyph-name="Aacute.ss01" horiz-adv-x="718" 
d="M439 943c20 7 35 0 40 -20l15 -62c5 -20 -4 -33 -25 -36l-196 -31c-19 -2 -32 4 -39 23l-4 17c-6 19 0 33 20 40zM45 0c-24 0 -34 15 -23 37l276 576c5 11 5 19 1 29l-26 61c-10 23 0 37 24 37h70c18 0 30 -8 38 -24l302 -679c10 -23 0 -37 -24 -37h-86
c-18 0 -30 8 -37 24l-39 92c-4 9 -11 14 -22 14h-273c-11 0 -19 -4 -23 -14l-41 -92c-7 -17 -18 -24 -36 -24h-81zM274 276c-5 -14 0 -22 14 -22h151c14 0 20 8 15 22l-76 176c-6 15 -18 15 -24 0z" />
    <glyph glyph-name="Abreve.ss01" horiz-adv-x="718" 
d="M250 943c19 0 27 -9 34 -28c12 -25 39 -40 71 -40c31 0 59 15 72 40c8 19 16 28 35 28h40c21 -1 34 -12 30 -34c-17 -76 -83 -126 -177 -126c-87 0 -158 46 -177 126c-5 22 9 33 30 34h42zM45 0c-24 0 -34 15 -23 37l276 576c5 11 5 19 1 29l-26 61c-10 23 0 37 24 37h70
c18 0 30 -8 38 -24l302 -679c10 -23 0 -37 -24 -37h-86c-18 0 -30 8 -37 24l-39 92c-4 9 -11 14 -22 14h-273c-11 0 -19 -4 -23 -14l-41 -92c-7 -17 -18 -24 -36 -24h-81zM274 276c-5 -14 0 -22 14 -22h151c14 0 20 8 15 22l-76 176c-6 15 -18 15 -24 0z" />
    <glyph glyph-name="Acircumflex.ss01" horiz-adv-x="718" 
d="M171 829c-9 18 -4 34 12 42l138 74c19 10 37 11 57 1l144 -75c18 -8 22 -24 13 -42l-10 -19c-8 -17 -22 -22 -40 -16l-107 37c-20 7 -37 6 -55 0l-102 -36c-17 -6 -33 -2 -41 15zM45 0c-24 0 -34 15 -23 37l276 576c5 11 5 19 1 29l-26 61c-10 23 0 37 24 37h70
c18 0 30 -8 38 -24l302 -679c10 -23 0 -37 -24 -37h-86c-18 0 -30 8 -37 24l-39 92c-4 9 -11 14 -22 14h-273c-11 0 -19 -4 -23 -14l-41 -92c-7 -17 -18 -24 -36 -24h-81zM274 276c-5 -14 0 -22 14 -22h151c14 0 20 8 15 22l-76 176c-6 15 -18 15 -24 0z" />
    <glyph glyph-name="Adieresis.ss01" horiz-adv-x="718" 
d="M233 771c-46 0 -82 37 -82 86c0 44 36 81 82 81c45 0 84 -37 84 -81c0 -49 -39 -86 -84 -86zM467 771c-44 0 -83 37 -83 86c0 44 39 81 83 81c47 0 85 -37 85 -81c0 -49 -38 -86 -85 -86zM45 0c-24 0 -34 15 -23 37l276 576c5 11 5 19 1 29l-26 61c-10 23 0 37 24 37h70
c18 0 30 -8 38 -24l302 -679c10 -23 0 -37 -24 -37h-86c-18 0 -30 8 -37 24l-39 92c-4 9 -11 14 -22 14h-273c-11 0 -19 -4 -23 -14l-41 -92c-7 -17 -18 -24 -36 -24h-81zM274 276c-5 -14 0 -22 14 -22h151c14 0 20 8 15 22l-76 176c-6 15 -18 15 -24 0z" />
    <glyph glyph-name="Agrave.ss01" horiz-adv-x="718" 
d="M221 926c6 22 21 28 41 20l189 -73c19 -8 25 -22 20 -41l-7 -16c-5 -19 -19 -26 -38 -24l-197 36c-21 5 -29 17 -24 38zM45 0c-24 0 -34 15 -23 37l276 576c5 11 5 19 1 29l-26 61c-10 23 0 37 24 37h70c18 0 30 -8 38 -24l302 -679c10 -23 0 -37 -24 -37h-86
c-18 0 -30 8 -37 24l-39 92c-4 9 -11 14 -22 14h-273c-11 0 -19 -4 -23 -14l-41 -92c-7 -17 -18 -24 -36 -24h-81zM274 276c-5 -14 0 -22 14 -22h151c14 0 20 8 15 22l-76 176c-6 15 -18 15 -24 0z" />
    <glyph glyph-name="Amacron.ss01" horiz-adv-x="718" 
d="M197 877c0 20 12 32 32 32h248c20 0 32 -12 32 -32v-37c0 -21 -12 -32 -32 -32h-248c-20 0 -32 11 -32 32v37zM45 0c-24 0 -34 15 -23 37l276 576c5 11 5 19 1 29l-26 61c-10 23 0 37 24 37h70c18 0 30 -8 38 -24l302 -679c10 -23 0 -37 -24 -37h-86c-18 0 -30 8 -37 24
l-39 92c-4 9 -11 14 -22 14h-273c-11 0 -19 -4 -23 -14l-41 -92c-7 -17 -18 -24 -36 -24h-81zM274 276c-5 -14 0 -22 14 -22h151c14 0 20 8 15 22l-76 176c-6 15 -18 15 -24 0z" />
    <glyph glyph-name="Aogonek.ss01" horiz-adv-x="718" 
d="M696 2c-59 -39 -72 -74 -72 -105c0 -23 17 -37 37 -37c7 0 15 1 23 2c14 2 21 -4 21 -17v-35c0 -11 -5 -18 -16 -21c-17 -4 -35 -6 -52 -6c-64 0 -116 35 -116 107c0 48 31 84 75 110c-18 0 -29 8 -36 24l-39 92c-4 9 -11 14 -22 14h-273c-11 0 -19 -4 -23 -14l-41 -92
c-7 -17 -18 -24 -36 -24h-81c-24 0 -34 15 -23 37l276 576c5 11 5 19 1 29l-26 61c-10 23 0 37 24 37h70c18 0 30 -8 38 -24l302 -679c8 -18 3 -31 -11 -35zM439 254c14 0 20 8 15 22l-76 176c-6 15 -18 15 -24 0l-80 -176c-5 -14 0 -22 14 -22h151z" />
    <glyph glyph-name="Aring.ss01" horiz-adv-x="718" 
d="M352 766c-81 0 -126 51 -126 111c0 59 45 111 126 111c82 0 127 -52 127 -111c0 -60 -45 -111 -127 -111zM352 838c25 0 43 17 43 39c0 23 -18 41 -43 41s-42 -18 -41 -41c-1 -22 16 -39 41 -39zM45 0c-24 0 -34 15 -23 37l276 576c5 11 5 19 1 29l-26 61
c-10 23 0 37 24 37h70c18 0 30 -8 38 -24l302 -679c10 -23 0 -37 -24 -37h-86c-18 0 -30 8 -37 24l-39 92c-4 9 -11 14 -22 14h-273c-11 0 -19 -4 -23 -14l-41 -92c-7 -17 -18 -24 -36 -24h-81zM274 276c-5 -14 0 -22 14 -22h151c14 0 20 8 15 22l-76 176
c-6 15 -18 15 -24 0z" />
    <glyph glyph-name="Atilde.ss01" horiz-adv-x="718" 
d="M507 912c19 -3 28 -16 26 -36c-8 -52 -52 -82 -103 -82c-58 0 -96 35 -125 35c-16 0 -25 -8 -31 -16c-7 -12 -18 -16 -35 -13l-32 6c-19 4 -29 17 -26 37c10 54 48 86 97 85c52 -1 103 -36 134 -36c15 0 27 8 32 15c5 11 15 14 32 11zM45 0c-24 0 -34 15 -23 37l276 576
c5 11 5 19 1 29l-26 61c-10 23 0 37 24 37h70c18 0 30 -8 38 -24l302 -679c10 -23 0 -37 -24 -37h-86c-18 0 -30 8 -37 24l-39 92c-4 9 -11 14 -22 14h-273c-11 0 -19 -4 -23 -14l-41 -92c-7 -17 -18 -24 -36 -24h-81zM274 276c-5 -14 0 -22 14 -22h151c14 0 20 8 15 22
l-76 176c-6 15 -18 15 -24 0z" />
    <glyph glyph-name="E.ss01" horiz-adv-x="574" 
d="M116 0c-21 0 -33 12 -33 33v664c0 21 12 33 33 33h352c20 0 32 -12 32 -32v-55c0 -20 -12 -31 -32 -31h-222c-12 0 -20 -8 -20 -21v-148c0 -13 8 -21 20 -21h245c20 0 32 -11 32 -32v-54c0 -20 -12 -32 -32 -32h-245c-13 0 -20 -8 -20 -20v-145c0 -13 8 -21 20 -21h238
c20 0 32 -11 32 -31v-55c0 -20 -12 -32 -32 -32h-368z" />
    <glyph glyph-name="Eacute.ss01" horiz-adv-x="574" 
d="M400 936c20 7 35 0 40 -20l15 -62c5 -20 -4 -33 -25 -36l-196 -31c-19 -2 -32 4 -39 23l-4 17c-6 19 0 33 20 40zM116 0c-21 0 -33 12 -33 33v664c0 21 12 33 33 33h352c20 0 32 -12 32 -32v-55c0 -20 -12 -31 -32 -31h-222c-12 0 -20 -8 -20 -21v-148
c0 -13 8 -21 20 -21h245c20 0 32 -11 32 -32v-54c0 -20 -12 -32 -32 -32h-245c-13 0 -20 -8 -20 -20v-145c0 -13 8 -21 20 -21h238c20 0 32 -11 32 -31v-55c0 -20 -12 -32 -32 -32h-368z" />
    <glyph glyph-name="Ecaron.ss01" horiz-adv-x="574" 
d="M149 902l3 14c3 18 22 25 40 18l109 -34c9 -3 18 -3 27 0l109 34c19 7 37 0 41 -18l3 -14c3 -18 2 -33 -15 -41l-115 -57c-25 -12 -48 -12 -73 0l-115 57c-16 8 -18 23 -14 41zM116 0c-21 0 -33 12 -33 33v664c0 21 12 33 33 33h352c20 0 32 -12 32 -32v-55
c0 -20 -12 -31 -32 -31h-222c-12 0 -20 -8 -20 -21v-148c0 -13 8 -21 20 -21h245c20 0 32 -11 32 -32v-54c0 -20 -12 -32 -32 -32h-245c-13 0 -20 -8 -20 -20v-145c0 -13 8 -21 20 -21h238c20 0 32 -11 32 -31v-55c0 -20 -12 -32 -32 -32h-368z" />
    <glyph glyph-name="Ecircumflex.ss01" horiz-adv-x="574" 
d="M132 822c-9 18 -4 34 12 42l138 74c19 10 37 11 57 1l144 -75c18 -8 22 -24 13 -42l-10 -19c-8 -17 -22 -22 -40 -16l-107 37c-20 7 -37 6 -55 0l-102 -36c-17 -6 -33 -2 -41 15zM116 0c-21 0 -33 12 -33 33v664c0 21 12 33 33 33h352c20 0 32 -12 32 -32v-55
c0 -20 -12 -31 -32 -31h-222c-12 0 -20 -8 -20 -21v-148c0 -13 8 -21 20 -21h245c20 0 32 -11 32 -32v-54c0 -20 -12 -32 -32 -32h-245c-13 0 -20 -8 -20 -20v-145c0 -13 8 -21 20 -21h238c20 0 32 -11 32 -31v-55c0 -20 -12 -32 -32 -32h-368z" />
    <glyph glyph-name="Edieresis.ss01" horiz-adv-x="574" 
d="M194 764c-46 0 -82 37 -82 86c0 44 36 81 82 81c45 0 84 -37 84 -81c0 -49 -39 -86 -84 -86zM428 764c-44 0 -83 37 -83 86c0 44 39 81 83 81c47 0 85 -37 85 -81c0 -49 -38 -86 -85 -86zM116 0c-21 0 -33 12 -33 33v664c0 21 12 33 33 33h352c20 0 32 -12 32 -32v-55
c0 -20 -12 -31 -32 -31h-222c-12 0 -20 -8 -20 -21v-148c0 -13 8 -21 20 -21h245c20 0 32 -11 32 -32v-54c0 -20 -12 -32 -32 -32h-245c-13 0 -20 -8 -20 -20v-145c0 -13 8 -21 20 -21h238c20 0 32 -11 32 -31v-55c0 -20 -12 -32 -32 -32h-368z" />
    <glyph glyph-name="Edotaccent.ss01" horiz-adv-x="574" 
d="M314 774c-52 0 -92 42 -92 94c0 50 40 91 92 91c50 0 93 -41 93 -91c0 -52 -43 -94 -93 -94zM116 0c-21 0 -33 12 -33 33v664c0 21 12 33 33 33h352c20 0 32 -12 32 -32v-55c0 -20 -12 -31 -32 -31h-222c-12 0 -20 -8 -20 -21v-148c0 -13 8 -21 20 -21h245
c20 0 32 -11 32 -32v-54c0 -20 -12 -32 -32 -32h-245c-13 0 -20 -8 -20 -20v-145c0 -13 8 -21 20 -21h238c20 0 32 -11 32 -31v-55c0 -20 -12 -32 -32 -32h-368z" />
    <glyph glyph-name="Egrave.ss01" horiz-adv-x="574" 
d="M182 919c6 22 21 28 41 20l189 -73c19 -8 25 -22 20 -41l-7 -16c-5 -19 -19 -26 -38 -24l-197 36c-21 5 -29 17 -24 38zM116 0c-21 0 -33 12 -33 33v664c0 21 12 33 33 33h352c20 0 32 -12 32 -32v-55c0 -20 -12 -31 -32 -31h-222c-12 0 -20 -8 -20 -21v-148
c0 -13 8 -21 20 -21h245c20 0 32 -11 32 -32v-54c0 -20 -12 -32 -32 -32h-245c-13 0 -20 -8 -20 -20v-145c0 -13 8 -21 20 -21h238c20 0 32 -11 32 -31v-55c0 -20 -12 -32 -32 -32h-368z" />
    <glyph glyph-name="Emacron.ss01" horiz-adv-x="574" 
d="M158 870c0 20 12 32 32 32h248c20 0 32 -12 32 -32v-37c0 -21 -12 -32 -32 -32h-248c-20 0 -32 11 -32 32v37zM116 0c-21 0 -33 12 -33 33v664c0 21 12 33 33 33h352c20 0 32 -12 32 -32v-55c0 -20 -12 -31 -32 -31h-222c-12 0 -20 -8 -20 -21v-148c0 -13 8 -21 20 -21
h245c20 0 32 -11 32 -32v-54c0 -20 -12 -32 -32 -32h-245c-13 0 -20 -8 -20 -20v-145c0 -13 8 -21 20 -21h238c20 0 32 -11 32 -31v-55c0 -20 -12 -32 -32 -32h-368z" />
    <glyph glyph-name="Eogonek.ss01" horiz-adv-x="574" 
d="M246 304c-13 0 -20 -8 -20 -20v-145c0 -13 8 -21 20 -21h238c20 0 32 -11 32 -31v-55c0 -13 -5 -23 -14 -28c-61 -39 -74 -75 -74 -106c0 -23 17 -37 37 -37c7 0 15 1 23 2c14 2 21 -4 21 -17v-35c0 -11 -5 -18 -16 -21c-17 -4 -35 -6 -52 -6c-64 0 -116 35 -116 107
c0 47 30 83 73 109h-282c-21 0 -33 12 -33 33v664c0 21 12 33 33 33h352c20 0 32 -12 32 -32v-55c0 -20 -12 -31 -32 -31h-222c-12 0 -20 -8 -20 -21v-148c0 -13 8 -21 20 -21h245c20 0 32 -11 32 -32v-54c0 -20 -12 -32 -32 -32h-245z" />
    <glyph glyph-name="G.ss01" horiz-adv-x="836" 
d="M770 356c21 0 32 -12 32 -32v-42c0 -20 -11 -32 -32 -32h-8c-27 -149 -146 -260 -338 -260c-215 0 -384 157 -384 380c0 218 165 370 380 370c175 0 314 -106 345 -259c4 -22 -8 -35 -29 -35h-82c-19 0 -29 10 -34 28c-25 82 -99 137 -200 137
c-131 0 -232 -100 -232 -246s104 -246 236 -246c102 0 173 44 203 131h-152c-20 0 -32 12 -32 32v42c0 20 12 32 32 32h295z" />
    <glyph glyph-name="Gbreve.ss01" horiz-adv-x="836" 
d="M425 776c-87 0 -158 46 -177 126c-5 22 9 33 30 34h42c19 0 27 -9 34 -28c12 -25 39 -40 71 -40c31 0 59 15 72 40c8 19 16 28 35 28h40c21 -1 34 -12 30 -34c-17 -76 -83 -126 -177 -126zM770 356c21 0 32 -12 32 -32v-42c0 -20 -11 -32 -32 -32h-8
c-27 -149 -146 -260 -338 -260c-215 0 -384 157 -384 380c0 218 165 370 380 370c175 0 314 -106 345 -259c4 -22 -8 -35 -29 -35h-82c-19 0 -29 10 -34 28c-25 82 -99 137 -200 137c-131 0 -232 -100 -232 -246s104 -246 236 -246c102 0 173 44 203 131h-152
c-20 0 -32 12 -32 32v42c0 20 12 32 32 32h295z" />
    <glyph glyph-name="Gcommaaccent.ss01" horiz-adv-x="836" 
d="M770 356c21 0 32 -12 32 -32v-42c0 -20 -11 -32 -32 -32h-8c-27 -149 -146 -260 -338 -260c-215 0 -384 157 -384 380c0 218 165 370 380 370c175 0 314 -106 345 -259c4 -22 -8 -35 -29 -35h-82c-19 0 -29 10 -34 28c-25 82 -99 137 -200 137
c-131 0 -232 -100 -232 -246s104 -246 236 -246c102 0 173 44 203 131h-152c-20 0 -32 12 -32 32v42c0 20 12 32 32 32h295zM457 -33c22 0 33 -13 26 -36l-47 -150c-5 -17 -18 -26 -36 -26h-29c-22 0 -33 13 -29 34l24 149c2 20 14 29 33 29h58z" />
    <glyph glyph-name="Gdotaccent.ss01" horiz-adv-x="836" 
d="M423 774c-52 0 -92 42 -92 94c0 50 40 91 92 91c50 0 93 -41 93 -91c0 -52 -43 -94 -93 -94zM770 356c21 0 32 -12 32 -32v-42c0 -20 -11 -32 -32 -32h-8c-27 -149 -146 -260 -338 -260c-215 0 -384 157 -384 380c0 218 165 370 380 370c175 0 314 -106 345 -259
c4 -22 -8 -35 -29 -35h-82c-19 0 -29 10 -34 28c-25 82 -99 137 -200 137c-131 0 -232 -100 -232 -246s104 -246 236 -246c102 0 173 44 203 131h-152c-20 0 -32 12 -32 32v42c0 20 12 32 32 32h295z" />
    <glyph glyph-name="I.ss01" horiz-adv-x="436" 
d="M77 0c-20 0 -31 12 -31 32v57c0 20 11 32 31 32h50c12 0 19 7 19 19v449c0 12 -7 20 -19 20h-50c-20 0 -31 12 -31 32v57c0 20 11 32 31 32h281c20 0 32 -12 32 -32v-57c0 -20 -12 -32 -32 -32h-49c-12 0 -19 -8 -19 -20v-449c0 -12 7 -19 19 -19h49c20 0 32 -12 32 -32
v-57c0 -20 -12 -32 -32 -32h-281z" />
    <glyph glyph-name="Iacute.ss01" horiz-adv-x="436" 
d="M305 936c20 7 35 0 40 -20l15 -62c5 -20 -4 -33 -25 -36l-196 -31c-19 -2 -32 4 -39 23l-4 17c-6 19 0 33 20 40zM77 0c-20 0 -31 12 -31 32v57c0 20 11 32 31 32h50c12 0 19 7 19 19v449c0 12 -7 20 -19 20h-50c-20 0 -31 12 -31 32v57c0 20 11 32 31 32h281
c20 0 32 -12 32 -32v-57c0 -20 -12 -32 -32 -32h-49c-12 0 -19 -8 -19 -20v-449c0 -12 7 -19 19 -19h49c20 0 32 -12 32 -32v-57c0 -20 -12 -32 -32 -32h-281z" />
    <glyph glyph-name="Icircumflex.ss01" horiz-adv-x="436" 
d="M37 822c-9 18 -4 34 12 42l138 74c19 10 37 11 57 1l144 -75c18 -8 22 -24 13 -42l-10 -19c-8 -17 -22 -22 -40 -16l-107 37c-20 7 -37 6 -55 0l-102 -36c-17 -6 -33 -2 -41 15zM77 0c-20 0 -31 12 -31 32v57c0 20 11 32 31 32h50c12 0 19 7 19 19v449c0 12 -7 20 -19 20
h-50c-20 0 -31 12 -31 32v57c0 20 11 32 31 32h281c20 0 32 -12 32 -32v-57c0 -20 -12 -32 -32 -32h-49c-12 0 -19 -8 -19 -20v-449c0 -12 7 -19 19 -19h49c20 0 32 -12 32 -32v-57c0 -20 -12 -32 -32 -32h-281z" />
    <glyph glyph-name="Idieresis.ss01" horiz-adv-x="436" 
d="M99 764c-46 0 -82 37 -82 86c0 44 36 81 82 81c45 0 84 -37 84 -81c0 -49 -39 -86 -84 -86zM333 764c-44 0 -83 37 -83 86c0 44 39 81 83 81c47 0 85 -37 85 -81c0 -49 -38 -86 -85 -86zM77 0c-20 0 -31 12 -31 32v57c0 20 11 32 31 32h50c12 0 19 7 19 19v449
c0 12 -7 20 -19 20h-50c-20 0 -31 12 -31 32v57c0 20 11 32 31 32h281c20 0 32 -12 32 -32v-57c0 -20 -12 -32 -32 -32h-49c-12 0 -19 -8 -19 -20v-449c0 -12 7 -19 19 -19h49c20 0 32 -12 32 -32v-57c0 -20 -12 -32 -32 -32h-281z" />
    <glyph glyph-name="Idotaccent.ss01" horiz-adv-x="436" 
d="M219 774c-52 0 -92 42 -92 94c0 50 40 91 92 91c50 0 93 -41 93 -91c0 -52 -43 -94 -93 -94zM77 0c-20 0 -31 12 -31 32v57c0 20 11 32 31 32h50c12 0 19 7 19 19v449c0 12 -7 20 -19 20h-50c-20 0 -31 12 -31 32v57c0 20 11 32 31 32h281c20 0 32 -12 32 -32v-57
c0 -20 -12 -32 -32 -32h-49c-12 0 -19 -8 -19 -20v-449c0 -12 7 -19 19 -19h49c20 0 32 -12 32 -32v-57c0 -20 -12 -32 -32 -32h-281z" />
    <glyph glyph-name="Igrave.ss01" horiz-adv-x="436" 
d="M87 919c6 22 21 28 41 20l189 -73c19 -8 25 -22 20 -41l-7 -16c-5 -19 -19 -26 -38 -24l-197 36c-21 5 -29 17 -24 38zM77 0c-20 0 -31 12 -31 32v57c0 20 11 32 31 32h50c12 0 19 7 19 19v449c0 12 -7 20 -19 20h-50c-20 0 -31 12 -31 32v57c0 20 11 32 31 32h281
c20 0 32 -12 32 -32v-57c0 -20 -12 -32 -32 -32h-49c-12 0 -19 -8 -19 -20v-449c0 -12 7 -19 19 -19h49c20 0 32 -12 32 -32v-57c0 -20 -12 -32 -32 -32h-281z" />
    <glyph glyph-name="Imacron.ss01" horiz-adv-x="436" 
d="M63 870c0 20 12 32 32 32h248c20 0 32 -12 32 -32v-37c0 -21 -12 -32 -32 -32h-248c-20 0 -32 11 -32 32v37zM77 0c-20 0 -31 12 -31 32v57c0 20 11 32 31 32h50c12 0 19 7 19 19v449c0 12 -7 20 -19 20h-50c-20 0 -31 12 -31 32v57c0 20 11 32 31 32h281
c20 0 32 -12 32 -32v-57c0 -20 -12 -32 -32 -32h-49c-12 0 -19 -8 -19 -20v-449c0 -12 7 -19 19 -19h49c20 0 32 -12 32 -32v-57c0 -20 -12 -32 -32 -32h-281z" />
    <glyph glyph-name="Iogonek.ss01" horiz-adv-x="436" 
d="M309 609c-12 0 -19 -8 -19 -20v-449c0 -12 7 -19 19 -19h49c20 0 32 -12 32 -32v-57c0 -20 -12 -32 -32 -32h-77c-61 -39 -74 -75 -74 -106c0 -23 17 -37 37 -37c7 0 15 1 23 2c14 2 21 -4 21 -17v-35c0 -11 -5 -18 -16 -21c-17 -4 -35 -6 -52 -6c-64 0 -116 35 -116 107
c0 50 33 87 80 113h-107c-20 0 -31 12 -31 32v57c0 20 11 32 31 32h50c12 0 19 7 19 19v449c0 12 -7 20 -19 20h-50c-20 0 -31 12 -31 32v57c0 20 11 32 31 32h281c20 0 32 -12 32 -32v-57c0 -20 -12 -32 -32 -32h-49z" />
    <glyph glyph-name="Itilde.ss01" horiz-adv-x="436" 
d="M373 905c19 -3 28 -16 26 -36c-8 -52 -52 -82 -103 -82c-58 0 -96 35 -125 35c-16 0 -25 -8 -31 -16c-7 -12 -18 -16 -35 -13l-32 6c-19 4 -29 17 -26 37c10 54 48 86 97 85c52 -1 103 -36 134 -36c15 0 27 8 32 15c5 11 15 14 32 11zM77 0c-20 0 -31 12 -31 32v57
c0 20 11 32 31 32h50c12 0 19 7 19 19v449c0 12 -7 20 -19 20h-50c-20 0 -31 12 -31 32v57c0 20 11 32 31 32h281c20 0 32 -12 32 -32v-57c0 -20 -12 -32 -32 -32h-49c-12 0 -19 -8 -19 -20v-449c0 -12 7 -19 19 -19h49c20 0 32 -12 32 -32v-57c0 -20 -12 -32 -32 -32h-281z
" />
    <glyph glyph-name="J.ss01" horiz-adv-x="467" 
d="M361 730c20 0 31 -11 31 -32v-418c0 -180 -125 -299 -336 -311c-21 -1 -33 11 -33 32v68c0 20 11 31 32 33c125 9 193 76 193 178v418c0 20 12 32 32 32h81z" />
    <glyph glyph-name="uni00A40301.ss01" horiz-adv-x="467" 
d="M400 936c20 7 35 0 40 -20l15 -62c5 -20 -4 -33 -25 -36l-196 -31c-19 -2 -32 4 -39 23l-4 17c-6 19 0 33 20 40zM361 730c20 0 31 -11 31 -32v-418c0 -180 -125 -299 -336 -311c-21 -1 -33 11 -33 32v68c0 20 11 31 32 33c125 9 193 76 193 178v418c0 20 12 32 32 32h81
z" />
    <glyph glyph-name="K.ss01" horiz-adv-x="694" 
d="M83 32v666c0 20 12 32 32 32h81c20 0 31 -12 31 -32v-666c0 -20 -11 -32 -31 -32h-81c-20 0 -32 12 -32 32zM242 330c-7 10 -8 17 -8 28v22c0 12 2 20 8 27l245 304c10 14 22 19 39 19h87c27 0 36 -18 18 -39l-250 -305c-7 -10 -7 -18 0 -28l188 -228
c11 -14 22 -19 39 -19h52c20 0 32 -12 32 -32v-47c0 -20 -12 -32 -32 -32h-134c-17 0 -30 6 -40 19z" />
    <glyph glyph-name="Kcommaaccent.ss01" horiz-adv-x="694" 
d="M83 32v666c0 20 12 32 32 32h81c20 0 31 -12 31 -32v-666c0 -20 -11 -32 -31 -32h-81c-20 0 -32 12 -32 32zM242 330c-7 10 -8 17 -8 28v22c0 12 2 20 8 27l245 304c10 14 22 19 39 19h87c27 0 36 -18 18 -39l-250 -305c-7 -10 -7 -18 0 -28l188 -228
c11 -14 22 -19 39 -19h52c20 0 32 -12 32 -32v-47c0 -20 -12 -32 -32 -32h-134c-17 0 -30 6 -40 19zM289 -62c2 20 14 29 33 29h58c22 0 33 -13 26 -36l-47 -150c-5 -17 -18 -26 -36 -26h-29c-22 0 -33 13 -29 34z" />
    <glyph glyph-name="N.ss01" horiz-adv-x="801" 
d="M115 0c-20 0 -32 12 -32 32v665c0 21 12 33 33 33h46c17 0 29 -6 41 -18l354 -383c14 -16 29 -10 29 12v357c0 20 12 32 32 32h68c20 0 31 -12 31 -32v-666c0 -20 -11 -32 -31 -32h-68c-20 0 -32 12 -32 32v74c0 12 -3 21 -12 29l-331 352c-14 16 -29 11 -29 -11v-444
c0 -20 -12 -32 -32 -32h-67z" />
    <glyph glyph-name="Nacute.ss01" horiz-adv-x="801" 
d="M480 936c20 7 35 0 40 -20l15 -62c5 -20 -4 -33 -25 -36l-196 -31c-19 -2 -32 4 -39 23l-4 17c-6 19 0 33 20 40zM115 0c-20 0 -32 12 -32 32v665c0 21 12 33 33 33h46c17 0 29 -6 41 -18l354 -383c14 -16 29 -10 29 12v357c0 20 12 32 32 32h68c20 0 31 -12 31 -32v-666
c0 -20 -11 -32 -31 -32h-68c-20 0 -32 12 -32 32v74c0 12 -3 21 -12 29l-331 352c-14 16 -29 11 -29 -11v-444c0 -20 -12 -32 -32 -32h-67z" />
    <glyph glyph-name="Ncaron.ss01" horiz-adv-x="801" 
d="M229 902l3 14c3 18 22 25 40 18l109 -34c9 -3 18 -3 27 0l109 34c19 7 37 0 41 -18l3 -14c3 -18 2 -33 -15 -41l-115 -57c-25 -12 -48 -12 -73 0l-115 57c-16 8 -18 23 -14 41zM115 0c-20 0 -32 12 -32 32v665c0 21 12 33 33 33h46c17 0 29 -6 41 -18l354 -383
c14 -16 29 -10 29 12v357c0 20 12 32 32 32h68c20 0 31 -12 31 -32v-666c0 -20 -11 -32 -31 -32h-68c-20 0 -32 12 -32 32v74c0 12 -3 21 -12 29l-331 352c-14 16 -29 11 -29 -11v-444c0 -20 -12 -32 -32 -32h-67z" />
    <glyph glyph-name="Ncommaaccent.ss01" horiz-adv-x="801" 
d="M115 0c-20 0 -32 12 -32 32v665c0 21 12 33 33 33h46c17 0 29 -6 41 -18l354 -383c14 -16 29 -10 29 12v357c0 20 12 32 32 32h68c20 0 31 -12 31 -32v-666c0 -20 -11 -32 -31 -32h-68c-20 0 -32 12 -32 32v74c0 12 -3 21 -12 29l-331 352c-14 16 -29 11 -29 -11v-444
c0 -20 -12 -32 -32 -32h-67zM334 -62c2 20 14 29 33 29h58c22 0 33 -13 26 -36l-47 -150c-5 -17 -18 -26 -36 -26h-29c-22 0 -33 13 -29 34z" />
    <glyph glyph-name="Ntilde.ss01" horiz-adv-x="801" 
d="M548 905c19 -3 28 -16 26 -36c-8 -52 -52 -82 -103 -82c-58 0 -96 35 -125 35c-16 0 -25 -8 -31 -16c-7 -12 -18 -16 -35 -13l-32 6c-19 4 -29 17 -26 37c10 54 48 86 97 85c52 -1 103 -36 134 -36c15 0 27 8 32 15c5 11 15 14 32 11zM115 0c-20 0 -32 12 -32 32v665
c0 21 12 33 33 33h46c17 0 29 -6 41 -18l354 -383c14 -16 29 -10 29 12v357c0 20 12 32 32 32h68c20 0 31 -12 31 -32v-666c0 -20 -11 -32 -31 -32h-68c-20 0 -32 12 -32 32v74c0 12 -3 21 -12 29l-331 352c-14 16 -29 11 -29 -11v-444c0 -20 -12 -32 -32 -32h-67z" />
    <glyph glyph-name="Q.ss01" horiz-adv-x="863" 
d="M40 368c0 214 166 372 391 372c226 0 392 -158 392 -372c0 -184 -116 -326 -281 -366c-11 -2 -15 -13 -5 -21l13 -11c28 -24 77 -42 127 -42c22 0 43 2 61 5c22 5 35 -4 38 -26l5 -46c2 -21 -6 -35 -26 -39c-25 -4 -52 -6 -83 -6c-67 0 -142 27 -206 88l-81 75
c-11 11 -22 16 -38 19c-180 35 -307 179 -307 370zM188 368c0 -147 100 -251 243 -251c144 0 244 104 244 251c0 144 -100 245 -244 245c-143 0 -243 -101 -243 -245z" />
    <glyph glyph-name="R.ss01" horiz-adv-x="655" 
d="M83 32v665c0 21 13 33 34 33h184c171 0 300 -99 300 -245c0 -108 -75 -185 -184 -218l-19 -5c-15 -5 -18 -15 -6 -26l112 -113c8 -9 19 -13 30 -13l52 1c20 0 32 -12 32 -32v-47c0 -20 -12 -32 -32 -32h-132c-12 0 -22 4 -29 14l-173 206c-12 14 -25 10 -25 -9v-179
c0 -20 -11 -32 -31 -32h-81c-20 0 -32 12 -32 32zM227 385c0 -15 9 -24 24 -24h50c96 0 153 54 153 124c0 71 -57 126 -153 126h-50c-15 0 -24 -9 -24 -24v-202z" />
    <glyph glyph-name="Racute.ss01" horiz-adv-x="655" 
d="M396 936c20 7 35 0 40 -20l15 -62c5 -20 -4 -33 -25 -36l-196 -31c-19 -2 -32 4 -39 23l-4 17c-6 19 0 33 20 40zM83 32v665c0 21 13 33 34 33h184c171 0 300 -99 300 -245c0 -108 -75 -185 -184 -218l-19 -5c-15 -5 -18 -15 -6 -26l112 -113c8 -9 19 -13 30 -13l52 1
c20 0 32 -12 32 -32v-47c0 -20 -12 -32 -32 -32h-132c-12 0 -22 4 -29 14l-173 206c-12 14 -25 10 -25 -9v-179c0 -20 -11 -32 -31 -32h-81c-20 0 -32 12 -32 32zM227 385c0 -15 9 -24 24 -24h50c96 0 153 54 153 124c0 71 -57 126 -153 126h-50c-15 0 -24 -9 -24 -24v-202z
" />
    <glyph glyph-name="Rcaron.ss01" horiz-adv-x="655" 
d="M145 902l3 14c3 18 22 25 40 18l109 -34c9 -3 18 -3 27 0l109 34c19 7 37 0 41 -18l3 -14c3 -18 2 -33 -15 -41l-115 -57c-25 -12 -48 -12 -73 0l-115 57c-16 8 -18 23 -14 41zM83 32v665c0 21 13 33 34 33h184c171 0 300 -99 300 -245c0 -108 -75 -185 -184 -218l-19 -5
c-15 -5 -18 -15 -6 -26l112 -113c8 -9 19 -13 30 -13l52 1c20 0 32 -12 32 -32v-47c0 -20 -12 -32 -32 -32h-132c-12 0 -22 4 -29 14l-173 206c-12 14 -25 10 -25 -9v-179c0 -20 -11 -32 -31 -32h-81c-20 0 -32 12 -32 32zM227 385c0 -15 9 -24 24 -24h50
c96 0 153 54 153 124c0 71 -57 126 -153 126h-50c-15 0 -24 -9 -24 -24v-202z" />
    <glyph glyph-name="Rcommaaccent.ss01" horiz-adv-x="655" 
d="M83 32v665c0 21 13 33 34 33h184c171 0 300 -99 300 -245c0 -108 -75 -185 -184 -218l-19 -5c-15 -5 -18 -15 -6 -26l112 -113c8 -9 19 -13 30 -13l52 1c20 0 32 -12 32 -32v-47c0 -20 -12 -32 -32 -32h-132c-12 0 -22 4 -29 14l-173 206c-12 14 -25 10 -25 -9v-179
c0 -20 -11 -32 -31 -32h-81c-20 0 -32 12 -32 32zM227 385c0 -15 9 -24 24 -24h50c96 0 153 54 153 124c0 71 -57 126 -153 126h-50c-15 0 -24 -9 -24 -24v-202zM268 -62c2 20 14 29 33 29h58c22 0 33 -13 26 -36l-47 -150c-5 -17 -18 -26 -36 -26h-29c-22 0 -33 13 -29 34z
" />
    <glyph glyph-name="W.ss01" horiz-adv-x="978" 
d="M19 695c-7 22 4 35 27 35h75c19 0 30 -8 35 -27l119 -469c5 -19 19 -20 26 -1l134 353c3 10 3 17 0 27l-29 81c-7 21 3 36 26 36h66c19 0 30 -9 36 -26l152 -468c6 -18 20 -19 25 0l124 467c5 19 17 27 36 27h65c22 0 32 -13 26 -35l-195 -667c-5 -19 -18 -28 -38 -28
h-50c-19 0 -32 8 -39 27l-131 371c-6 18 -20 17 -26 0l-142 -372c-7 -18 -19 -26 -38 -26h-52c-19 0 -32 9 -38 28z" />
    <glyph glyph-name="Wacute.ss01" horiz-adv-x="978" 
d="M574 936c20 7 35 0 40 -20l15 -62c5 -20 -4 -33 -25 -36l-196 -31c-19 -2 -32 4 -39 23l-4 17c-6 19 0 33 20 40zM19 695c-7 22 4 35 27 35h75c19 0 30 -8 35 -27l119 -469c5 -19 19 -20 26 -1l134 353c3 10 3 17 0 27l-29 81c-7 21 3 36 26 36h66c19 0 30 -9 36 -26
l152 -468c6 -18 20 -19 25 0l124 467c5 19 17 27 36 27h65c22 0 32 -13 26 -35l-195 -667c-5 -19 -18 -28 -38 -28h-50c-19 0 -32 8 -39 27l-131 371c-6 18 -20 17 -26 0l-142 -372c-7 -18 -19 -26 -38 -26h-52c-19 0 -32 9 -38 28z" />
    <glyph glyph-name="Wcircumflex.ss01" horiz-adv-x="978" 
d="M306 822c-9 18 -4 34 12 42l138 74c19 10 37 11 57 1l144 -75c18 -8 22 -24 13 -42l-10 -19c-8 -17 -22 -22 -40 -16l-107 37c-20 7 -37 6 -55 0l-102 -36c-17 -6 -33 -2 -41 15zM19 695c-7 22 4 35 27 35h75c19 0 30 -8 35 -27l119 -469c5 -19 19 -20 26 -1l134 353
c3 10 3 17 0 27l-29 81c-7 21 3 36 26 36h66c19 0 30 -9 36 -26l152 -468c6 -18 20 -19 25 0l124 467c5 19 17 27 36 27h65c22 0 32 -13 26 -35l-195 -667c-5 -19 -18 -28 -38 -28h-50c-19 0 -32 8 -39 27l-131 371c-6 18 -20 17 -26 0l-142 -372c-7 -18 -19 -26 -38 -26
h-52c-19 0 -32 9 -38 28z" />
    <glyph glyph-name="Wdieresis.ss01" horiz-adv-x="978" 
d="M368 764c-46 0 -82 37 -82 86c0 44 36 81 82 81c45 0 84 -37 84 -81c0 -49 -39 -86 -84 -86zM602 764c-44 0 -83 37 -83 86c0 44 39 81 83 81c47 0 85 -37 85 -81c0 -49 -38 -86 -85 -86zM19 695c-7 22 4 35 27 35h75c19 0 30 -8 35 -27l119 -469c5 -19 19 -20 26 -1
l134 353c3 10 3 17 0 27l-29 81c-7 21 3 36 26 36h66c19 0 30 -9 36 -26l152 -468c6 -18 20 -19 25 0l124 467c5 19 17 27 36 27h65c22 0 32 -13 26 -35l-195 -667c-5 -19 -18 -28 -38 -28h-50c-19 0 -32 8 -39 27l-131 371c-6 18 -20 17 -26 0l-142 -372
c-7 -18 -19 -26 -38 -26h-52c-19 0 -32 9 -38 28z" />
    <glyph glyph-name="Wgrave.ss01" horiz-adv-x="978" 
d="M356 919c6 22 21 28 41 20l189 -73c19 -8 25 -22 20 -41l-7 -16c-5 -19 -19 -26 -38 -24l-197 36c-21 5 -29 17 -24 38zM19 695c-7 22 4 35 27 35h75c19 0 30 -8 35 -27l119 -469c5 -19 19 -20 26 -1l134 353c3 10 3 17 0 27l-29 81c-7 21 3 36 26 36h66
c19 0 30 -9 36 -26l152 -468c6 -18 20 -19 25 0l124 467c5 19 17 27 36 27h65c22 0 32 -13 26 -35l-195 -667c-5 -19 -18 -28 -38 -28h-50c-19 0 -32 8 -39 27l-131 371c-6 18 -20 17 -26 0l-142 -372c-7 -18 -19 -26 -38 -26h-52c-19 0 -32 9 -38 28z" />
    <glyph glyph-name="a" unicode="a" horiz-adv-x="580" 
d="M35 134c0 97 88 156 222 155l96 -1c18 0 28 10 28 28c0 61 -43 97 -103 97c-48 0 -81 -22 -97 -58c-6 -15 -14 -25 -35 -25h-62c-21 0 -34 13 -30 34c22 106 116 166 230 166c147 0 233 -90 233 -234v-264c0 -20 -12 -32 -32 -32h-23c-18 0 -30 7 -38 22l-6 12
c-9 17 -22 20 -39 10c-51 -32 -112 -54 -177 -54c-102 0 -167 66 -167 144zM174 150c0 -32 28 -51 66 -51c41 0 85 18 123 40c14 8 18 19 18 32v5c0 17 -10 27 -28 27h-93c-62 0 -86 -22 -86 -53z" />
    <glyph glyph-name="aacute" unicode="&#xe1;" horiz-adv-x="580" 
d="M349 764c18 11 34 7 43 -12l27 -57c9 -19 3 -33 -17 -41l-185 -70c-19 -6 -33 -2 -43 15l-8 16c-9 17 -6 32 12 43zM35 134c0 97 88 156 222 155l96 -1c18 0 28 10 28 28c0 61 -43 97 -103 97c-48 0 -81 -22 -97 -58c-6 -15 -14 -25 -35 -25h-62c-21 0 -34 13 -30 34
c22 106 116 166 230 166c147 0 233 -90 233 -234v-264c0 -20 -12 -32 -32 -32h-23c-18 0 -30 7 -38 22l-6 12c-9 17 -22 20 -39 10c-51 -32 -112 -54 -177 -54c-102 0 -167 66 -167 144zM174 150c0 -32 28 -51 66 -51c41 0 85 18 123 40c14 8 18 19 18 32v5
c0 17 -10 27 -28 27h-93c-62 0 -86 -22 -86 -53z" />
    <glyph glyph-name="abreve" unicode="&#x103;" horiz-adv-x="580" 
d="M180 742c19 0 27 -9 34 -28c12 -25 39 -40 71 -40c31 0 59 15 72 40c8 19 16 28 35 28h40c21 -1 34 -12 30 -34c-17 -76 -83 -126 -177 -126c-87 0 -158 46 -177 126c-5 22 9 33 30 34h42zM35 134c0 97 88 156 222 155l96 -1c18 0 28 10 28 28c0 61 -43 97 -103 97
c-48 0 -81 -22 -97 -58c-6 -15 -14 -25 -35 -25h-62c-21 0 -34 13 -30 34c22 106 116 166 230 166c147 0 233 -90 233 -234v-264c0 -20 -12 -32 -32 -32h-23c-18 0 -30 7 -38 22l-6 12c-9 17 -22 20 -39 10c-51 -32 -112 -54 -177 -54c-102 0 -167 66 -167 144zM174 150
c0 -32 28 -51 66 -51c41 0 85 18 123 40c14 8 18 19 18 32v5c0 17 -10 27 -28 27h-93c-62 0 -86 -22 -86 -53z" />
    <glyph glyph-name="acircumflex" unicode="&#xe2;" horiz-adv-x="580" 
d="M112 638c-8 17 -4 33 12 41l133 71c19 10 36 11 55 1l140 -72c17 -8 21 -24 12 -41l-9 -18c-8 -17 -22 -22 -39 -16l-104 36c-19 7 -35 6 -53 0l-98 -35c-17 -6 -32 -2 -40 15zM35 134c0 97 88 156 222 155l96 -1c18 0 28 10 28 28c0 61 -43 97 -103 97
c-48 0 -81 -22 -97 -58c-6 -15 -14 -25 -35 -25h-62c-21 0 -34 13 -30 34c22 106 116 166 230 166c147 0 233 -90 233 -234v-264c0 -20 -12 -32 -32 -32h-23c-18 0 -30 7 -38 22l-6 12c-9 17 -22 20 -39 10c-51 -32 -112 -54 -177 -54c-102 0 -167 66 -167 144zM174 150
c0 -32 28 -51 66 -51c41 0 85 18 123 40c14 8 18 19 18 32v5c0 17 -10 27 -28 27h-93c-62 0 -86 -22 -86 -53z" />
    <glyph glyph-name="adieresis" unicode="&#xe4;" horiz-adv-x="580" 
d="M177 598c-42 0 -76 34 -76 79c0 41 34 75 76 75s78 -34 78 -75c0 -45 -36 -79 -78 -79zM393 598c-41 0 -77 34 -77 79c0 41 36 75 77 75c43 0 78 -34 78 -75c0 -45 -35 -79 -78 -79zM35 134c0 97 88 156 222 155l96 -1c18 0 28 10 28 28c0 61 -43 97 -103 97
c-48 0 -81 -22 -97 -58c-6 -15 -14 -25 -35 -25h-62c-21 0 -34 13 -30 34c22 106 116 166 230 166c147 0 233 -90 233 -234v-264c0 -20 -12 -32 -32 -32h-23c-18 0 -30 7 -38 22l-6 12c-9 17 -22 20 -39 10c-51 -32 -112 -54 -177 -54c-102 0 -167 66 -167 144zM174 150
c0 -32 28 -51 66 -51c41 0 85 18 123 40c14 8 18 19 18 32v5c0 17 -10 27 -28 27h-93c-62 0 -86 -22 -86 -53z" />
    <glyph glyph-name="agrave" unicode="&#xe0;" horiz-adv-x="580" 
d="M182 754c9 20 25 23 43 12l173 -106c17 -11 21 -26 12 -44l-9 -15c-9 -17 -24 -22 -42 -16l-187 71c-20 8 -26 22 -17 42zM35 134c0 97 88 156 222 155l96 -1c18 0 28 10 28 28c0 61 -43 97 -103 97c-48 0 -81 -22 -97 -58c-6 -15 -14 -25 -35 -25h-62
c-21 0 -34 13 -30 34c22 106 116 166 230 166c147 0 233 -90 233 -234v-264c0 -20 -12 -32 -32 -32h-23c-18 0 -30 7 -38 22l-6 12c-9 17 -22 20 -39 10c-51 -32 -112 -54 -177 -54c-102 0 -167 66 -167 144zM174 150c0 -32 28 -51 66 -51c41 0 85 18 123 40
c14 8 18 19 18 32v5c0 17 -10 27 -28 27h-93c-62 0 -86 -22 -86 -53z" />
    <glyph glyph-name="amacron" unicode="&#x101;" horiz-adv-x="580" 
d="M129 673c0 20 12 32 32 32h248c20 0 32 -12 32 -32v-37c0 -21 -12 -32 -32 -32h-248c-20 0 -32 11 -32 32v37zM35 134c0 97 88 156 222 155l96 -1c18 0 28 10 28 28c0 61 -43 97 -103 97c-48 0 -81 -22 -97 -58c-6 -15 -14 -25 -35 -25h-62c-21 0 -34 13 -30 34
c22 106 116 166 230 166c147 0 233 -90 233 -234v-264c0 -20 -12 -32 -32 -32h-23c-18 0 -30 7 -38 22l-6 12c-9 17 -22 20 -39 10c-51 -32 -112 -54 -177 -54c-102 0 -167 66 -167 144zM174 150c0 -32 28 -51 66 -51c41 0 85 18 123 40c14 8 18 19 18 32v5
c0 17 -10 27 -28 27h-93c-62 0 -86 -22 -86 -53z" />
    <glyph glyph-name="aogonek" unicode="&#x105;" horiz-adv-x="580" 
d="M500 3c-59 -39 -72 -74 -72 -105c0 -23 17 -37 37 -37c7 0 15 1 23 2c14 2 21 -4 21 -17v-35c0 -11 -5 -18 -16 -21c-17 -4 -35 -6 -52 -6c-64 0 -116 35 -116 107c0 58 44 98 103 125l-4 6l-6 12c-9 17 -22 20 -39 10c-51 -32 -112 -54 -177 -54
c-102 0 -167 66 -167 144c0 97 88 156 222 155l96 -1c18 0 28 10 28 28c0 61 -43 97 -103 97c-48 0 -81 -22 -97 -58c-6 -15 -14 -25 -35 -25h-62c-21 0 -34 13 -30 34c22 106 116 166 230 166c147 0 233 -90 233 -234v-264c0 -14 -6 -24 -17 -29zM381 171v5
c0 17 -10 27 -28 27h-93c-62 0 -86 -22 -86 -53c0 -32 28 -51 66 -51c41 0 85 18 123 40c14 8 18 19 18 32z" />
    <glyph glyph-name="aring" unicode="&#xe5;" horiz-adv-x="580" 
d="M284 570c-81 0 -126 51 -126 111c0 59 45 111 126 111c82 0 127 -52 127 -111c0 -60 -45 -111 -127 -111zM284 642c25 0 43 17 43 39c0 23 -18 41 -43 41s-42 -18 -41 -41c-1 -22 16 -39 41 -39zM35 134c0 97 88 156 222 155l96 -1c18 0 28 10 28 28c0 61 -43 97 -103 97
c-48 0 -81 -22 -97 -58c-6 -15 -14 -25 -35 -25h-62c-21 0 -34 13 -30 34c22 106 116 166 230 166c147 0 233 -90 233 -234v-264c0 -20 -12 -32 -32 -32h-23c-18 0 -30 7 -38 22l-6 12c-9 17 -22 20 -39 10c-51 -32 -112 -54 -177 -54c-102 0 -167 66 -167 144zM174 150
c0 -32 28 -51 66 -51c41 0 85 18 123 40c14 8 18 19 18 32v5c0 17 -10 27 -28 27h-93c-62 0 -86 -22 -86 -53z" />
    <glyph glyph-name="atilde" unicode="&#xe3;" horiz-adv-x="580" 
d="M433 695c19 -3 28 -16 26 -36c-8 -52 -52 -82 -103 -82c-58 0 -96 35 -125 35c-16 0 -25 -8 -31 -16c-7 -12 -18 -16 -35 -13l-32 6c-19 4 -29 17 -26 37c10 54 48 86 97 85c52 -1 103 -36 134 -36c15 0 27 8 32 15c5 11 15 14 32 11zM35 134c0 97 88 156 222 155l96 -1
c18 0 28 10 28 28c0 61 -43 97 -103 97c-48 0 -81 -22 -97 -58c-6 -15 -14 -25 -35 -25h-62c-21 0 -34 13 -30 34c22 106 116 166 230 166c147 0 233 -90 233 -234v-264c0 -20 -12 -32 -32 -32h-23c-18 0 -30 7 -38 22l-6 12c-9 17 -22 20 -39 10c-51 -32 -112 -54 -177 -54
c-102 0 -167 66 -167 144zM174 150c0 -32 28 -51 66 -51c41 0 85 18 123 40c14 8 18 19 18 32v5c0 17 -10 27 -28 27h-93c-62 0 -86 -22 -86 -53z" />
    <glyph glyph-name="ae" unicode="&#xe6;" horiz-adv-x="935" 
d="M35 130c0 101 89 159 222 159l91 -1c17 0 26 7 26 21v5c0 63 -43 99 -100 99c-45 0 -79 -24 -92 -55c-7 -18 -15 -28 -34 -28h-64c-21 0 -34 13 -30 36c24 105 120 164 226 164c65 0 117 -18 155 -52c14 -12 27 -13 42 -2c46 34 104 54 170 54c135 0 255 -110 251 -271
c-1 -24 -14 -37 -38 -37h-317c-19 0 -29 -11 -23 -29c20 -56 67 -90 127 -90c51 0 85 19 102 46c10 14 19 23 37 23h67c22 0 36 -14 29 -35c-29 -84 -115 -147 -235 -147c-70 0 -134 25 -182 67c-14 12 -28 13 -43 2c-56 -42 -124 -69 -202 -69c-119 0 -185 66 -185 140z
M527 340c-9 -17 1 -30 20 -30h186c18 0 29 12 22 31c-17 46 -59 77 -110 77c-50 0 -96 -29 -118 -78zM174 149c0 -31 31 -49 68 -49c57 0 101 20 140 50c8 6 11 11 7 21c-1 4 -5 14 -7 22c-2 7 -7 9 -17 9h-105c-62 0 -86 -21 -86 -53z" />
    <glyph glyph-name="aeacute" unicode="&#x1fd;" horiz-adv-x="935" 
d="M527 764c18 11 34 7 43 -12l27 -57c9 -19 3 -33 -17 -41l-185 -70c-19 -6 -33 -2 -43 15l-8 16c-9 17 -6 32 12 43zM35 130c0 101 89 159 222 159l91 -1c17 0 26 7 26 21v5c0 63 -43 99 -100 99c-45 0 -79 -24 -92 -55c-7 -18 -15 -28 -34 -28h-64c-21 0 -34 13 -30 36
c24 105 120 164 226 164c65 0 117 -18 155 -52c14 -12 27 -13 42 -2c46 34 104 54 170 54c135 0 255 -110 251 -271c-1 -24 -14 -37 -38 -37h-317c-19 0 -29 -11 -23 -29c20 -56 67 -90 127 -90c51 0 85 19 102 46c10 14 19 23 37 23h67c22 0 36 -14 29 -35
c-29 -84 -115 -147 -235 -147c-70 0 -134 25 -182 67c-14 12 -28 13 -43 2c-56 -42 -124 -69 -202 -69c-119 0 -185 66 -185 140zM527 340c-9 -17 1 -30 20 -30h186c18 0 29 12 22 31c-17 46 -59 77 -110 77c-50 0 -96 -29 -118 -78zM174 149c0 -31 31 -49 68 -49
c57 0 101 20 140 50c8 6 11 11 7 21c-1 4 -5 14 -7 22c-2 7 -7 9 -17 9h-105c-62 0 -86 -21 -86 -53z" />
    <glyph glyph-name="b" unicode="b" horiz-adv-x="661" 
d="M69 32v716c0 20 12 32 32 32h70c20 0 32 -12 32 -32v-231c0 -22 13 -29 33 -17c35 20 78 30 125 30c150 0 264 -118 264 -268s-113 -272 -267 -272c-65 0 -117 18 -157 50c-16 13 -30 11 -37 -9l-3 -6c-6 -17 -19 -25 -36 -25h-24c-20 0 -32 12 -32 32zM207 212
c0 -12 2 -23 8 -34c25 -42 73 -70 131 -70c77 0 137 70 137 154c0 83 -62 150 -137 150c-57 0 -105 -26 -130 -69c-7 -11 -9 -22 -9 -34v-97z" />
    <glyph glyph-name="c" unicode="c" horiz-adv-x="605" 
d="M467 320c-18 0 -27 9 -36 26c-16 37 -56 66 -113 66c-80 0 -140 -59 -140 -152c0 -99 67 -152 139 -152c52 0 93 23 110 59c9 16 18 25 36 25h74c21 0 35 -13 30 -34c-24 -102 -126 -168 -247 -168c-169 0 -284 120 -284 274c0 150 115 266 279 266
c147 0 231 -78 253 -176c4 -21 -9 -34 -30 -34h-71z" />
    <glyph glyph-name="cacute" unicode="&#x107;" horiz-adv-x="605" 
d="M382 764c18 11 34 7 43 -12l27 -57c9 -19 3 -33 -17 -41l-185 -70c-19 -6 -33 -2 -43 15l-8 16c-9 17 -6 32 12 43zM467 320c-18 0 -27 9 -36 26c-16 37 -56 66 -113 66c-80 0 -140 -59 -140 -152c0 -99 67 -152 139 -152c52 0 93 23 110 59c9 16 18 25 36 25h74
c21 0 35 -13 30 -34c-24 -102 -126 -168 -247 -168c-169 0 -284 120 -284 274c0 150 115 266 279 266c147 0 231 -78 253 -176c4 -21 -9 -34 -30 -34h-71z" />
    <glyph glyph-name="ccaron" unicode="&#x10d;" horiz-adv-x="605" 
d="M157 702l3 14c3 18 21 24 39 18l106 -34c9 -3 18 -3 27 0l106 34c18 6 36 0 40 -18l3 -14c3 -17 2 -32 -15 -40l-112 -55c-24 -12 -47 -12 -71 0l-112 55c-16 8 -18 23 -14 40zM467 320c-18 0 -27 9 -36 26c-16 37 -56 66 -113 66c-80 0 -140 -59 -140 -152
c0 -99 67 -152 139 -152c52 0 93 23 110 59c9 16 18 25 36 25h74c21 0 35 -13 30 -34c-24 -102 -126 -168 -247 -168c-169 0 -284 120 -284 274c0 150 115 266 279 266c147 0 231 -78 253 -176c4 -21 -9 -34 -30 -34h-71z" />
    <glyph glyph-name="ccedilla" unicode="&#xe7;" horiz-adv-x="605" 
d="M537 192c21 0 35 -13 30 -34c-23 -97 -117 -162 -230 -168l-2 -6c-3 -12 3 -19 16 -21c41 -7 74 -34 74 -84c0 -65 -59 -99 -132 -99c-32 0 -63 7 -86 19c-15 8 -17 22 -9 37l3 8c8 16 20 18 37 13c13 -5 27 -7 43 -7c27 0 40 10 40 28s-14 29 -40 29h-16
c-19 0 -29 13 -23 32l18 56c-136 25 -224 134 -224 269c0 150 115 266 279 266c147 0 231 -78 253 -176c4 -21 -9 -34 -30 -34h-71c-18 0 -27 9 -36 26c-16 37 -56 66 -113 66c-80 0 -140 -59 -140 -152c0 -99 67 -152 139 -152c52 0 93 23 110 59c9 16 18 25 36 25h74z" />
    <glyph glyph-name="cdotaccent" unicode="&#x10b;" horiz-adv-x="605" 
d="M318 588c-52 0 -92 42 -92 94c0 50 40 91 92 91c50 0 93 -41 93 -91c0 -52 -43 -94 -93 -94zM467 320c-18 0 -27 9 -36 26c-16 37 -56 66 -113 66c-80 0 -140 -59 -140 -152c0 -99 67 -152 139 -152c52 0 93 23 110 59c9 16 18 25 36 25h74c21 0 35 -13 30 -34
c-24 -102 -126 -168 -247 -168c-169 0 -284 120 -284 274c0 150 115 266 279 266c147 0 231 -78 253 -176c4 -21 -9 -34 -30 -34h-71z" />
    <glyph glyph-name="d" unicode="d" horiz-adv-x="662" 
d="M37 262c0 154 116 268 275 268c42 0 80 -9 114 -27c19 -10 32 -4 32 18v227c0 20 12 32 32 32h71c20 0 32 -12 32 -32v-716c0 -20 -12 -32 -32 -32h-20c-17 0 -29 7 -36 24l-5 9c-8 19 -22 22 -37 8c-39 -33 -88 -51 -147 -51c-166 0 -279 113 -279 272zM179 262
c0 -85 61 -154 142 -154c55 0 102 29 125 70c7 12 8 21 8 34v97c0 13 -1 23 -8 34c-25 41 -73 69 -125 69c-79 0 -142 -65 -142 -150z" />
    <glyph glyph-name="eth" unicode="&#xf0;" horiz-adv-x="626" 
d="M331 582l-89 -29c-19 -7 -34 0 -41 19l-4 13c-7 20 -1 34 18 40l74 25l-57 92c-13 22 -4 38 21 38h70c18 0 30 -7 39 -22l41 -71l90 31c19 6 33 -1 40 -20l4 -14c6 -19 -1 -33 -20 -40l-74 -25l53 -91c63 -105 91 -169 91 -287c0 -148 -117 -251 -276 -251
c-163 0 -274 105 -274 263c0 142 104 246 256 246c23 0 43 -4 62 -10c25 -9 32 1 25 13zM179 249c0 -84 55 -141 132 -141c78 0 141 49 141 135v33c-12 62 -64 109 -141 109c-76 0 -132 -56 -132 -136z" />
    <glyph glyph-name="dcaron" unicode="&#x10f;" horiz-adv-x="662" 
d="M697 586c19 0 31 10 34 29l32 173c4 22 -7 35 -28 35h-52c-20 0 -31 -11 -33 -30l-17 -173c-2 -21 9 -34 30 -34h34zM37 262c0 154 116 268 275 268c42 0 80 -9 114 -27c19 -10 32 -4 32 18v227c0 20 12 32 32 32h71c20 0 32 -12 32 -32v-716c0 -20 -12 -32 -32 -32h-20
c-17 0 -29 7 -36 24l-5 9c-8 19 -22 22 -37 8c-39 -33 -88 -51 -147 -51c-166 0 -279 113 -279 272zM179 262c0 -85 61 -154 142 -154c55 0 102 29 125 70c7 12 8 21 8 34v97c0 13 -1 23 -8 34c-25 41 -73 69 -125 69c-79 0 -142 -65 -142 -150z" />
    <glyph glyph-name="dcroat" unicode="&#x111;" horiz-adv-x="662" 
d="M665 686c20 0 32 -12 32 -32v-43c0 -20 -12 -32 -32 -32h-72v-547c0 -20 -12 -32 -32 -32h-20c-17 0 -29 7 -36 24l-5 9c-8 19 -22 22 -37 8c-39 -33 -88 -51 -147 -51c-166 0 -279 113 -279 272c0 154 116 268 275 268c42 0 80 -9 114 -27c19 -10 32 -4 32 18v58h-88
c-20 0 -32 12 -32 32v43c0 20 12 32 32 32h88v62c0 20 12 32 32 32h71c20 0 32 -12 32 -32v-62h72zM454 212v97c0 13 -1 23 -8 34c-25 41 -73 69 -125 69c-79 0 -142 -65 -142 -150s61 -154 142 -154c55 0 102 29 125 70c7 12 8 21 8 34z" />
    <glyph glyph-name="e" unicode="e" horiz-adv-x="596" 
d="M36 264c0 157 116 266 273 266c135 0 256 -111 250 -279c0 -17 -13 -29 -31 -29h-322c-19 0 -31 -12 -23 -31c20 -55 67 -88 126 -88c50 0 85 19 101 46c10 14 20 23 37 23h68c22 0 36 -14 28 -35c-29 -83 -115 -147 -234 -147c-154 0 -273 113 -273 274zM189 345
c-9 -19 2 -33 23 -33h179c20 0 32 12 24 32c-19 46 -59 74 -108 74s-93 -27 -118 -73z" />
    <glyph glyph-name="eacute" unicode="&#xe9;" horiz-adv-x="596" 
d="M367 764c18 11 34 7 43 -12l27 -57c9 -19 3 -33 -17 -41l-185 -70c-19 -6 -33 -2 -43 15l-8 16c-9 17 -6 32 12 43zM36 264c0 157 116 266 273 266c135 0 256 -111 250 -279c0 -17 -13 -29 -31 -29h-322c-19 0 -31 -12 -23 -31c20 -55 67 -88 126 -88c50 0 85 19 101 46
c10 14 20 23 37 23h68c22 0 36 -14 28 -35c-29 -83 -115 -147 -234 -147c-154 0 -273 113 -273 274zM189 345c-9 -19 2 -33 23 -33h179c20 0 32 12 24 32c-19 46 -59 74 -108 74s-93 -27 -118 -73z" />
    <glyph glyph-name="ecaron" unicode="&#x11b;" horiz-adv-x="596" 
d="M142 702l3 14c3 18 21 24 39 18l106 -34c9 -3 18 -3 27 0l106 34c18 6 36 0 40 -18l3 -14c3 -17 2 -32 -15 -40l-112 -55c-24 -12 -47 -12 -71 0l-112 55c-16 8 -18 23 -14 40zM36 264c0 157 116 266 273 266c135 0 256 -111 250 -279c0 -17 -13 -29 -31 -29h-322
c-19 0 -31 -12 -23 -31c20 -55 67 -88 126 -88c50 0 85 19 101 46c10 14 20 23 37 23h68c22 0 36 -14 28 -35c-29 -83 -115 -147 -234 -147c-154 0 -273 113 -273 274zM189 345c-9 -19 2 -33 23 -33h179c20 0 32 12 24 32c-19 46 -59 74 -108 74s-93 -27 -118 -73z" />
    <glyph glyph-name="ecircumflex" unicode="&#xea;" horiz-adv-x="596" 
d="M130 638c-8 17 -4 33 12 41l133 71c19 10 36 11 55 1l140 -72c17 -8 21 -24 12 -41l-9 -18c-8 -17 -22 -22 -39 -16l-104 36c-19 7 -35 6 -53 0l-98 -35c-17 -6 -32 -2 -40 15zM36 264c0 157 116 266 273 266c135 0 256 -111 250 -279c0 -17 -13 -29 -31 -29h-322
c-19 0 -31 -12 -23 -31c20 -55 67 -88 126 -88c50 0 85 19 101 46c10 14 20 23 37 23h68c22 0 36 -14 28 -35c-29 -83 -115 -147 -234 -147c-154 0 -273 113 -273 274zM189 345c-9 -19 2 -33 23 -33h179c20 0 32 12 24 32c-19 46 -59 74 -108 74s-93 -27 -118 -73z" />
    <glyph glyph-name="edieresis" unicode="&#xeb;" horiz-adv-x="596" 
d="M195 598c-42 0 -76 34 -76 79c0 41 34 75 76 75s78 -34 78 -75c0 -45 -36 -79 -78 -79zM411 598c-41 0 -77 34 -77 79c0 41 36 75 77 75c43 0 78 -34 78 -75c0 -45 -35 -79 -78 -79zM36 264c0 157 116 266 273 266c135 0 256 -111 250 -279c0 -17 -13 -29 -31 -29h-322
c-19 0 -31 -12 -23 -31c20 -55 67 -88 126 -88c50 0 85 19 101 46c10 14 20 23 37 23h68c22 0 36 -14 28 -35c-29 -83 -115 -147 -234 -147c-154 0 -273 113 -273 274zM189 345c-9 -19 2 -33 23 -33h179c20 0 32 12 24 32c-19 46 -59 74 -108 74s-93 -27 -118 -73z" />
    <glyph glyph-name="edotaccent" unicode="&#x117;" horiz-adv-x="596" 
d="M303 588c-52 0 -92 42 -92 94c0 50 40 91 92 91c50 0 93 -41 93 -91c0 -52 -43 -94 -93 -94zM36 264c0 157 116 266 273 266c135 0 256 -111 250 -279c0 -17 -13 -29 -31 -29h-322c-19 0 -31 -12 -23 -31c20 -55 67 -88 126 -88c50 0 85 19 101 46c10 14 20 23 37 23h68
c22 0 36 -14 28 -35c-29 -83 -115 -147 -234 -147c-154 0 -273 113 -273 274zM189 345c-9 -19 2 -33 23 -33h179c20 0 32 12 24 32c-19 46 -59 74 -108 74s-93 -27 -118 -73z" />
    <glyph glyph-name="egrave" unicode="&#xe8;" horiz-adv-x="596" 
d="M200 754c9 20 25 23 43 12l173 -106c17 -11 21 -26 12 -44l-9 -15c-9 -17 -24 -22 -42 -16l-187 71c-20 8 -26 22 -17 42zM36 264c0 157 116 266 273 266c135 0 256 -111 250 -279c0 -17 -13 -29 -31 -29h-322c-19 0 -31 -12 -23 -31c20 -55 67 -88 126 -88
c50 0 85 19 101 46c10 14 20 23 37 23h68c22 0 36 -14 28 -35c-29 -83 -115 -147 -234 -147c-154 0 -273 113 -273 274zM189 345c-9 -19 2 -33 23 -33h179c20 0 32 12 24 32c-19 46 -59 74 -108 74s-93 -27 -118 -73z" />
    <glyph glyph-name="emacron" unicode="&#x113;" horiz-adv-x="596" 
d="M147 673c0 20 12 32 32 32h248c20 0 32 -12 32 -32v-37c0 -21 -12 -32 -32 -32h-248c-20 0 -32 11 -32 32v37zM36 264c0 157 116 266 273 266c135 0 256 -111 250 -279c0 -17 -13 -29 -31 -29h-322c-19 0 -31 -12 -23 -31c20 -55 67 -88 126 -88c50 0 85 19 101 46
c10 14 20 23 37 23h68c22 0 36 -14 28 -35c-29 -83 -115 -147 -234 -147c-154 0 -273 113 -273 274zM189 345c-9 -19 2 -33 23 -33h179c20 0 32 12 24 32c-19 46 -59 74 -108 74s-93 -27 -118 -73z" />
    <glyph glyph-name="eogonek" unicode="&#x119;" horiz-adv-x="596" 
d="M309 530c135 0 256 -111 250 -279c0 -17 -13 -29 -31 -29h-322c-19 0 -31 -12 -23 -31c20 -55 67 -88 126 -88c50 0 85 19 101 46c10 14 20 23 37 23h68c22 0 36 -14 28 -35c-22 -64 -78 -116 -156 -137c-56 -38 -68 -72 -68 -102c0 -23 17 -37 37 -37c7 0 15 1 23 2
c14 2 21 -4 21 -17v-35c0 -11 -5 -18 -16 -21c-17 -4 -35 -6 -52 -6c-64 0 -116 35 -116 107c0 43 24 76 60 101c-138 15 -240 123 -240 272c0 157 116 266 273 266zM391 312c20 0 32 12 24 32c-19 46 -59 74 -108 74s-93 -27 -118 -73c-9 -19 2 -33 23 -33h179z" />
    <glyph glyph-name="f" unicode="f" horiz-adv-x="410" 
d="M57 403c-20 0 -32 12 -32 32v53c0 20 12 32 32 32h45c7 0 11 5 11 11v80c0 121 66 177 180 177c32 0 66 -5 92 -13c18 -5 25 -19 23 -37l-6 -54c-3 -22 -16 -29 -37 -24c-16 5 -31 7 -47 7c-42 0 -66 -12 -66 -56v-80c0 -6 5 -11 11 -11h101c21 0 32 -12 32 -32v-53
c0 -20 -11 -32 -32 -32h-101c-6 0 -11 -5 -11 -12v-361c0 -20 -12 -32 -32 -32h-75c-20 0 -32 12 -32 32v361c0 7 -4 12 -11 12h-45z" />
    <glyph glyph-name="g" unicode="g" horiz-adv-x="659" 
d="M36 266c0 150 116 264 275 264c56 0 106 -17 145 -47c17 -13 30 -11 37 9l2 4c7 16 19 24 37 24h26c20 0 32 -12 32 -32v-473c0 -139 -107 -232 -264 -232c-123 0 -210 55 -245 143c-9 21 3 36 26 36h65c17 0 27 -9 38 -22c21 -28 65 -46 116 -46c81 0 138 50 138 121v2
c0 20 -14 23 -33 12c-33 -20 -71 -30 -116 -30c-166 0 -279 113 -279 267zM178 266c0 -81 61 -149 142 -149c53 0 98 26 122 64c8 12 9 23 9 35v97c0 13 -1 23 -9 34c-25 39 -72 65 -122 65c-79 0 -142 -65 -142 -146z" />
    <glyph glyph-name="gbreve" unicode="&#x11f;" horiz-adv-x="659" 
d="M227 742c19 0 27 -9 34 -28c12 -25 39 -40 71 -40c31 0 59 15 72 40c8 19 16 28 35 28h40c21 -1 34 -12 30 -34c-17 -76 -83 -126 -177 -126c-87 0 -158 46 -177 126c-5 22 9 33 30 34h42zM36 266c0 150 116 264 275 264c56 0 106 -17 145 -47c17 -13 30 -11 37 9l2 4
c7 16 19 24 37 24h26c20 0 32 -12 32 -32v-473c0 -139 -107 -232 -264 -232c-123 0 -210 55 -245 143c-9 21 3 36 26 36h65c17 0 27 -9 38 -22c21 -28 65 -46 116 -46c81 0 138 50 138 121v2c0 20 -14 23 -33 12c-33 -20 -71 -30 -116 -30c-166 0 -279 113 -279 267z
M178 266c0 -81 61 -149 142 -149c53 0 98 26 122 64c8 12 9 23 9 35v97c0 13 -1 23 -9 34c-25 39 -72 65 -122 65c-79 0 -142 -65 -142 -146z" />
    <glyph glyph-name="gcommaaccent" unicode="&#x123;" horiz-adv-x="659" 
d="M376 616c-2 -20 -14 -29 -33 -29h-58c-22 0 -33 13 -26 36l47 150c5 17 18 26 36 26h29c22 0 33 -13 29 -34zM36 266c0 150 116 264 275 264c56 0 106 -17 145 -47c17 -13 30 -11 37 9l2 4c7 16 19 24 37 24h26c20 0 32 -12 32 -32v-473c0 -139 -107 -232 -264 -232
c-123 0 -210 55 -245 143c-9 21 3 36 26 36h65c17 0 27 -9 38 -22c21 -28 65 -46 116 -46c81 0 138 50 138 121v2c0 20 -14 23 -33 12c-33 -20 -71 -30 -116 -30c-166 0 -279 113 -279 267zM178 266c0 -81 61 -149 142 -149c53 0 98 26 122 64c8 12 9 23 9 35v97
c0 13 -1 23 -9 34c-25 39 -72 65 -122 65c-79 0 -142 -65 -142 -146z" />
    <glyph glyph-name="gdotaccent" unicode="&#x121;" horiz-adv-x="659" 
d="M332 588c-52 0 -92 42 -92 94c0 50 40 91 92 91c50 0 93 -41 93 -91c0 -52 -43 -94 -93 -94zM36 266c0 150 116 264 275 264c56 0 106 -17 145 -47c17 -13 30 -11 37 9l2 4c7 16 19 24 37 24h26c20 0 32 -12 32 -32v-473c0 -139 -107 -232 -264 -232
c-123 0 -210 55 -245 143c-9 21 3 36 26 36h65c17 0 27 -9 38 -22c21 -28 65 -46 116 -46c81 0 138 50 138 121v2c0 20 -14 23 -33 12c-33 -20 -71 -30 -116 -30c-166 0 -279 113 -279 267zM178 266c0 -81 61 -149 142 -149c53 0 98 26 122 64c8 12 9 23 9 35v97
c0 13 -1 23 -9 34c-25 39 -72 65 -122 65c-79 0 -142 -65 -142 -146z" />
    <glyph glyph-name="h" unicode="h" horiz-adv-x="648" 
d="M101 0c-20 0 -32 12 -32 32v716c0 20 12 32 32 32h69c20 0 32 -12 32 -32v-240c0 -21 14 -30 34 -19c50 27 102 41 164 41c115 0 184 -76 184 -211v-287c0 -20 -12 -32 -32 -32h-75c-20 0 -32 12 -32 32v281c0 58 -31 95 -88 95c-42 0 -89 -20 -131 -47
c-14 -8 -19 -19 -19 -34v-295c0 -20 -12 -32 -32 -32h-74z" />
    <glyph glyph-name="hbar" unicode="&#x127;" horiz-adv-x="648" 
d="M400 530c115 0 184 -76 184 -211v-287c0 -20 -12 -32 -32 -32h-75c-20 0 -32 12 -32 32v281c0 58 -31 95 -88 95c-42 0 -89 -20 -131 -47c-14 -8 -19 -19 -19 -34v-295c0 -20 -12 -32 -32 -32h-74c-20 0 -32 12 -32 32v546h-33c-20 0 -32 12 -32 32v43c0 20 12 32 32 32
h33v63c0 20 12 32 32 32h69c20 0 32 -12 32 -32v-63h129c20 0 32 -12 32 -32v-43c0 -20 -12 -32 -32 -32h-129v-70c0 -21 14 -30 34 -19c50 27 102 41 164 41z" />
    <glyph glyph-name="i" unicode="i" horiz-adv-x="278" 
d="M145 588c-52 0 -92 42 -92 94c0 50 40 91 92 91c50 0 93 -41 93 -91c0 -52 -43 -94 -93 -94zM176 520c20 0 32 -12 32 -32v-456c0 -20 -12 -32 -32 -32h-75c-20 0 -32 12 -32 32v456c0 20 12 32 32 32h75z" />
    <glyph glyph-name="dotlessi" unicode="&#x131;" horiz-adv-x="278" 
d="M176 520c20 0 32 -12 32 -32v-456c0 -20 -12 -32 -32 -32h-75c-20 0 -32 12 -32 32v456c0 20 12 32 32 32h75z" />
    <glyph glyph-name="iacute" unicode="&#xed;" horiz-adv-x="278" 
d="M209 764c18 11 33 7 42 -12l27 -57c9 -19 3 -33 -17 -41l-183 -70c-19 -6 -32 -2 -42 15l-8 16c-9 17 -6 32 12 43zM176 520c20 0 32 -12 32 -32v-456c0 -20 -12 -32 -32 -32h-75c-20 0 -32 12 -32 32v456c0 20 12 32 32 32h75z" />
    <glyph glyph-name="icircumflex" unicode="&#xee;" horiz-adv-x="278" 
d="M-25 638c-8 17 -4 33 12 41l130 71c19 10 36 11 55 1l137 -72c17 -8 21 -24 12 -41l-9 -18c-8 -17 -21 -22 -38 -16l-102 36c-19 7 -35 6 -53 0l-96 -35c-17 -6 -31 -2 -39 15zM176 520c20 0 32 -12 32 -32v-456c0 -20 -12 -32 -32 -32h-75c-20 0 -32 12 -32 32v456
c0 20 12 32 32 32h75z" />
    <glyph glyph-name="idieresis" unicode="&#xef;" horiz-adv-x="278" 
d="M37 598c-42 0 -76 34 -76 79c0 41 34 75 76 75s78 -34 78 -75c0 -45 -36 -79 -78 -79zM253 598c-41 0 -77 34 -77 79c0 41 36 75 77 75c43 0 78 -34 78 -75c0 -45 -35 -79 -78 -79zM176 520c20 0 32 -12 32 -32v-456c0 -20 -12 -32 -32 -32h-75c-20 0 -32 12 -32 32v456
c0 20 12 32 32 32h75z" />
    <glyph glyph-name="i.loclTRK" horiz-adv-x="278" 
d="M145 588c-52 0 -92 42 -92 94c0 50 40 91 92 91c50 0 93 -41 93 -91c0 -52 -43 -94 -93 -94zM176 520c20 0 32 -12 32 -32v-456c0 -20 -12 -32 -32 -32h-75c-20 0 -32 12 -32 32v456c0 20 12 32 32 32h75z" />
    <glyph glyph-name="igrave" unicode="&#xec;" horiz-adv-x="278" 
d="M42 754c9 20 25 23 43 12l173 -106c17 -11 21 -26 12 -44l-9 -15c-9 -17 -24 -22 -42 -16l-187 71c-20 8 -26 22 -17 42zM176 520c20 0 32 -12 32 -32v-456c0 -20 -12 -32 -32 -32h-75c-20 0 -32 12 -32 32v456c0 20 12 32 32 32h75z" />
    <glyph glyph-name="ij" unicode="&#x133;" horiz-adv-x="563" 
d="M145 588c-52 0 -92 42 -92 94c0 50 40 91 92 91c50 0 93 -41 93 -91c0 -52 -43 -94 -93 -94zM426 588c-52 0 -92 42 -92 94c0 50 40 91 92 91c50 0 93 -41 93 -91c0 -52 -43 -94 -93 -94zM176 520c20 0 32 -12 32 -32v-456c0 -20 -12 -32 -32 -32h-75
c-20 0 -32 12 -32 32v456c0 20 12 32 32 32h75zM340 -217c-22 0 -43 2 -61 4c-20 3 -29 16 -27 36l5 55c2 21 10 30 22 28c7 0 13 -1 20 -1c31 0 56 12 56 63v520c0 20 12 32 32 32h75c20 0 31 -12 31 -32v-532c0 -104 -61 -173 -153 -173z" />
    <glyph glyph-name="imacron" unicode="&#x12b;" horiz-adv-x="278" 
d="M-8 673c0 20 12 32 31 32h243c20 0 31 -12 31 -32v-37c0 -21 -11 -32 -31 -32h-243c-19 0 -31 11 -31 32v37zM176 520c20 0 32 -12 32 -32v-456c0 -20 -12 -32 -32 -32h-75c-20 0 -32 12 -32 32v456c0 20 12 32 32 32h75z" />
    <glyph glyph-name="iogonek" unicode="&#x12f;" horiz-adv-x="278" 
d="M144 773c50 0 93 -41 93 -91c0 -52 -43 -94 -93 -94c-52 0 -92 42 -92 94c0 50 40 91 92 91zM176 520c20 0 32 -12 32 -32v-456c0 -15 -6 -25 -18 -30h1c-61 -39 -74 -75 -74 -106c0 -23 17 -37 37 -37c7 0 15 1 23 2c14 2 21 -4 21 -17v-35c0 -11 -5 -18 -16 -21
c-17 -4 -35 -6 -52 -6c-64 0 -116 35 -116 107c0 49 32 86 78 112c-15 3 -23 14 -23 31v456c0 20 12 32 32 32h75z" />
    <glyph glyph-name="itilde" unicode="&#x129;" horiz-adv-x="278" 
d="M291 695c19 -3 28 -16 26 -36c-8 -52 -52 -82 -102 -82c-57 0 -95 35 -124 35c-15 0 -24 -8 -30 -16c-7 -12 -18 -16 -35 -13l-32 6c-18 4 -28 17 -25 37c10 54 47 86 96 85c51 -1 102 -36 132 -36c15 0 27 8 32 15c5 11 15 14 31 11zM176 520c20 0 32 -12 32 -32v-456
c0 -20 -12 -32 -32 -32h-75c-20 0 -32 12 -32 32v456c0 20 12 32 32 32h75z" />
    <glyph glyph-name="j" unicode="j" horiz-adv-x="285" 
d="M149 588c-52 0 -92 42 -92 94c0 50 40 91 92 91c50 0 93 -41 93 -91c0 -52 -43 -94 -93 -94zM62 -217c-22 0 -43 2 -61 4c-20 3 -29 16 -27 36l5 55c2 21 10 30 22 28c7 0 13 -1 20 -1c31 0 56 12 56 63v520c0 20 12 32 32 32h75c20 0 31 -12 31 -32v-532
c0 -104 -61 -173 -153 -173z" />
    <glyph glyph-name="uni0237" unicode="&#x237;" horiz-adv-x="285" 
d="M62 -217c-22 0 -43 2 -61 4c-20 3 -29 16 -27 36l5 55c2 21 10 30 22 28c7 0 13 -1 20 -1c31 0 56 12 56 63v520c0 20 12 32 32 32h75c20 0 31 -12 31 -32v-532c0 -104 -61 -173 -153 -173z" />
    <glyph glyph-name="uni006A0301" horiz-adv-x="285" 
d="M213 764c18 11 34 7 43 -12l27 -57c9 -19 3 -33 -17 -41l-185 -70c-19 -6 -33 -2 -43 15l-8 16c-9 17 -6 32 12 43zM62 -217c-22 0 -43 2 -61 4c-20 3 -29 16 -27 36l5 55c2 21 10 30 22 28c7 0 13 -1 20 -1c31 0 56 12 56 63v520c0 20 12 32 32 32h75
c20 0 31 -12 31 -32v-532c0 -104 -61 -173 -153 -173z" />
    <glyph glyph-name="k" unicode="k" horiz-adv-x="596" 
d="M101 0c-20 0 -32 12 -32 32v716c0 20 12 32 32 32h75c20 0 31 -12 31 -32v-417c0 -29 16 -36 35 -14l167 185c11 13 23 18 39 18h86c28 0 35 -18 16 -39l-144 -153c-12 -12 -13 -25 -3 -38l171 -252c14 -21 5 -38 -20 -38h-90c-17 0 -28 7 -38 21l-109 168
c-11 17 -26 18 -40 4l-56 -57c-10 -10 -14 -21 -14 -35v-69c0 -20 -11 -32 -31 -32h-75z" />
    <glyph glyph-name="kcommaaccent" unicode="&#x137;" horiz-adv-x="596" 
d="M101 0c-20 0 -32 12 -32 32v716c0 20 12 32 32 32h75c20 0 31 -12 31 -32v-417c0 -29 16 -36 35 -14l167 185c11 13 23 18 39 18h86c28 0 35 -18 16 -39l-144 -153c-12 -12 -13 -25 -3 -38l171 -252c14 -21 5 -38 -20 -38h-90c-17 0 -28 7 -38 21l-109 168
c-11 17 -26 18 -40 4l-56 -57c-10 -10 -14 -21 -14 -35v-69c0 -20 -11 -32 -31 -32h-75zM260 -62c2 20 14 29 33 29h58c22 0 33 -13 26 -36l-47 -150c-5 -17 -18 -26 -36 -26h-29c-22 0 -33 13 -29 34z" />
    <glyph glyph-name="kgreenlandic" unicode="&#x138;" horiz-adv-x="596" 
d="M101 0c-20 0 -32 12 -32 32v456c0 20 12 32 32 32h75c20 0 31 -12 31 -32v-160c0 -30 15 -35 35 -13l167 187c11 13 23 18 39 18h86c28 0 35 -18 16 -39l-145 -153c-11 -12 -12 -25 -2 -39l171 -251c14 -21 5 -38 -20 -38h-90c-17 0 -29 7 -38 21l-107 171
c-11 16 -26 18 -40 4l-58 -60c-10 -10 -14 -21 -14 -35v-69c0 -20 -11 -32 -31 -32h-75z" />
    <glyph glyph-name="l" unicode="l" horiz-adv-x="278" 
d="M176 780c20 0 32 -12 32 -32v-716c0 -20 -12 -32 -32 -32h-75c-20 0 -32 12 -32 32v716c0 20 12 32 32 32h75z" />
    <glyph glyph-name="lacute" unicode="&#x13a;" horiz-adv-x="278" 
d="M219 986c20 7 35 0 40 -20l15 -62c5 -20 -4 -33 -25 -36l-196 -31c-19 -2 -32 4 -39 23l-4 17c-6 19 0 33 20 40zM176 780c20 0 32 -12 32 -32v-716c0 -20 -12 -32 -32 -32h-75c-20 0 -32 12 -32 32v716c0 20 12 32 32 32h75z" />
    <glyph glyph-name="lcaron" unicode="&#x13e;" horiz-adv-x="278" 
d="M321 594c19 0 31 10 34 29l32 173c4 22 -7 35 -28 35h-52c-20 0 -31 -11 -33 -30l-17 -173c-2 -21 9 -34 30 -34h34zM176 780c20 0 32 -12 32 -32v-716c0 -20 -12 -32 -32 -32h-75c-20 0 -32 12 -32 32v716c0 20 12 32 32 32h75z" />
    <glyph glyph-name="lcommaaccent" unicode="&#x13c;" horiz-adv-x="278" 
d="M176 780c20 0 32 -12 32 -32v-716c0 -20 -12 -32 -32 -32h-75c-20 0 -32 12 -32 32v716c0 20 12 32 32 32h75zM78 -62c2 20 14 29 33 29h58c22 0 33 -13 26 -36l-47 -150c-5 -17 -18 -26 -36 -26h-29c-22 0 -33 13 -29 34z" />
    <glyph glyph-name="ldot" unicode="&#x140;" horiz-adv-x="456" 
d="M176 780c20 0 32 -12 32 -32v-716c0 -20 -12 -32 -32 -32h-75c-20 0 -32 12 -32 32v716c0 20 12 32 32 32h75zM366 260c-46 0 -83 38 -83 86c0 43 37 80 83 80s83 -37 83 -80c0 -48 -37 -86 -83 -86z" />
    <glyph glyph-name="lslash" unicode="&#x142;" horiz-adv-x="278" 
d="M308 448c8 -19 1 -31 -17 -38l-83 -32v-346c0 -20 -12 -32 -32 -32h-75c-20 0 -32 12 -32 32v293l-45 -17c-18 -7 -32 0 -38 18l-9 28c-6 19 -1 32 18 39l74 28v327c0 20 12 32 32 32h75c20 0 32 -12 32 -32v-275l52 19c18 7 31 1 38 -17z" />
    <glyph glyph-name="m" unicode="m" horiz-adv-x="1027" 
d="M101 0c-20 0 -32 12 -32 32v456c0 20 12 32 32 32h30c18 0 30 -7 37 -25l3 -8c7 -18 21 -23 38 -13c59 37 117 56 192 56c58 0 104 -19 136 -57c12 -14 23 -16 39 -7c64 42 125 64 205 64c114 0 182 -76 182 -211v-287c0 -20 -11 -32 -31 -32h-76c-20 0 -31 12 -31 32
v278c0 59 -31 98 -90 98c-44 0 -91 -22 -134 -49c-13 -8 -17 -16 -17 -26v-14v-287c0 -20 -12 -32 -32 -32h-75c-20 0 -32 12 -32 32v279c0 60 -32 97 -88 97c-43 0 -89 -20 -132 -47c-13 -8 -18 -19 -18 -34v-295c0 -20 -12 -32 -32 -32h-74z" />
    <glyph glyph-name="n" unicode="n" horiz-adv-x="649" 
d="M101 0c-20 0 -32 12 -32 32v456c0 20 12 32 32 32h34c18 0 30 -9 36 -25l2 -7c6 -19 20 -24 38 -13c59 36 116 55 191 55c115 0 183 -76 183 -211v-287c0 -20 -11 -32 -31 -32h-75c-20 0 -32 12 -32 32v281c0 58 -32 95 -90 95c-42 0 -89 -20 -132 -47
c-13 -8 -18 -19 -18 -34v-295c0 -20 -12 -32 -32 -32h-74z" />
    <glyph glyph-name="nacute" unicode="&#x144;" horiz-adv-x="649" 
d="M396 764c18 11 34 7 43 -12l27 -57c9 -19 3 -33 -17 -41l-185 -70c-19 -6 -33 -2 -43 15l-8 16c-9 17 -6 32 12 43zM101 0c-20 0 -32 12 -32 32v456c0 20 12 32 32 32h34c18 0 30 -9 36 -25l2 -7c6 -19 20 -24 38 -13c59 36 116 55 191 55c115 0 183 -76 183 -211v-287
c0 -20 -11 -32 -31 -32h-75c-20 0 -32 12 -32 32v281c0 58 -32 95 -90 95c-42 0 -89 -20 -132 -47c-13 -8 -18 -19 -18 -34v-295c0 -20 -12 -32 -32 -32h-74z" />
    <glyph glyph-name="napostrophe" unicode="&#x149;" horiz-adv-x="719" 
d="M-38 743c3 19 15 30 34 30h63c22 0 32 -13 27 -36l-44 -188c-4 -19 -15 -28 -34 -28h-39c-21 0 -32 13 -29 34zM101 0c-20 0 -32 12 -32 32v456c0 20 12 32 32 32h34c18 0 30 -9 36 -25l2 -7c6 -19 20 -24 38 -13c59 36 116 55 191 55c115 0 183 -76 183 -211v-287
c0 -20 -11 -32 -31 -32h-75c-20 0 -32 12 -32 32v281c0 58 -32 95 -90 95c-42 0 -89 -20 -132 -47c-13 -8 -18 -19 -18 -34v-295c0 -20 -12 -32 -32 -32h-74z" />
    <glyph glyph-name="ncaron" unicode="&#x148;" horiz-adv-x="649" 
d="M171 702l3 14c3 18 21 24 39 18l106 -34c9 -3 18 -3 27 0l106 34c18 6 36 0 40 -18l3 -14c3 -17 2 -32 -15 -40l-112 -55c-24 -12 -47 -12 -71 0l-112 55c-16 8 -18 23 -14 40zM101 0c-20 0 -32 12 -32 32v456c0 20 12 32 32 32h34c18 0 30 -9 36 -25l2 -7
c6 -19 20 -24 38 -13c59 36 116 55 191 55c115 0 183 -76 183 -211v-287c0 -20 -11 -32 -31 -32h-75c-20 0 -32 12 -32 32v281c0 58 -32 95 -90 95c-42 0 -89 -20 -132 -47c-13 -8 -18 -19 -18 -34v-295c0 -20 -12 -32 -32 -32h-74z" />
    <glyph glyph-name="ncommaaccent" unicode="&#x146;" horiz-adv-x="649" 
d="M101 0c-20 0 -32 12 -32 32v456c0 20 12 32 32 32h34c18 0 30 -9 36 -25l2 -7c6 -19 20 -24 38 -13c59 36 116 55 191 55c115 0 183 -76 183 -211v-287c0 -20 -11 -32 -31 -32h-75c-20 0 -32 12 -32 32v281c0 58 -32 95 -90 95c-42 0 -89 -20 -132 -47
c-13 -8 -18 -19 -18 -34v-295c0 -20 -12 -32 -32 -32h-74zM268 -62c2 20 14 29 33 29h58c22 0 33 -13 26 -36l-47 -150c-5 -17 -18 -26 -36 -26h-29c-22 0 -33 13 -29 34z" />
    <glyph glyph-name="eng" unicode="&#x14b;" horiz-adv-x="649" 
d="M101 0c-20 0 -32 12 -32 32v456c0 20 12 32 32 32h34c18 0 30 -9 36 -25l3 -11c6 -17 18 -21 33 -11c61 37 119 57 195 57c115 0 183 -76 183 -211v-363c0 -103 -62 -173 -153 -173c-22 0 -43 2 -61 4c-20 3 -29 16 -27 36l5 55c2 21 9 28 29 27h17c27 0 52 12 52 63v345
c0 58 -32 95 -90 95c-43 0 -91 -21 -134 -49c-11 -7 -16 -15 -16 -29v-298c0 -20 -12 -32 -32 -32h-74z" />
    <glyph glyph-name="ntilde" unicode="&#xf1;" horiz-adv-x="649" 
d="M480 695c19 -3 28 -16 26 -36c-8 -52 -52 -82 -103 -82c-58 0 -96 35 -125 35c-16 0 -25 -8 -31 -16c-7 -12 -18 -16 -35 -13l-32 6c-19 4 -29 17 -26 37c10 54 48 86 97 85c52 -1 103 -36 134 -36c15 0 27 8 32 15c5 11 15 14 32 11zM101 0c-20 0 -32 12 -32 32v456
c0 20 12 32 32 32h34c18 0 30 -9 36 -25l2 -7c6 -19 20 -24 38 -13c59 36 116 55 191 55c115 0 183 -76 183 -211v-287c0 -20 -11 -32 -31 -32h-75c-20 0 -32 12 -32 32v281c0 58 -32 95 -90 95c-42 0 -89 -20 -132 -47c-13 -8 -18 -19 -18 -34v-295c0 -20 -12 -32 -32 -32
h-74z" />
    <glyph glyph-name="o" unicode="o" horiz-adv-x="642" 
d="M36 264c0 149 118 266 285 266s284 -117 284 -266c0 -154 -117 -274 -284 -274s-285 120 -285 274zM175 260c0 -86 59 -152 146 -152c86 0 146 66 146 152s-60 152 -146 152c-87 0 -146 -66 -146 -152z" />
    <glyph glyph-name="oacute" unicode="&#xf3;" horiz-adv-x="642" 
d="M383 764c18 11 34 7 43 -12l27 -57c9 -19 3 -33 -17 -41l-185 -70c-19 -6 -33 -2 -43 15l-8 16c-9 17 -6 32 12 43zM36 264c0 149 118 266 285 266s284 -117 284 -266c0 -154 -117 -274 -284 -274s-285 120 -285 274zM175 260c0 -86 59 -152 146 -152
c86 0 146 66 146 152s-60 152 -146 152c-87 0 -146 -66 -146 -152z" />
    <glyph glyph-name="ocircumflex" unicode="&#xf4;" horiz-adv-x="642" 
d="M146 638c-8 17 -4 33 12 41l133 71c19 10 36 11 55 1l140 -72c17 -8 21 -24 12 -41l-9 -18c-8 -17 -22 -22 -39 -16l-104 36c-19 7 -35 6 -53 0l-98 -35c-17 -6 -32 -2 -40 15zM36 264c0 149 118 266 285 266s284 -117 284 -266c0 -154 -117 -274 -284 -274
s-285 120 -285 274zM175 260c0 -86 59 -152 146 -152c86 0 146 66 146 152s-60 152 -146 152c-87 0 -146 -66 -146 -152z" />
    <glyph glyph-name="odieresis" unicode="&#xf6;" horiz-adv-x="642" 
d="M211 598c-42 0 -76 34 -76 79c0 41 34 75 76 75s78 -34 78 -75c0 -45 -36 -79 -78 -79zM427 598c-41 0 -77 34 -77 79c0 41 36 75 77 75c43 0 78 -34 78 -75c0 -45 -35 -79 -78 -79zM36 264c0 149 118 266 285 266s284 -117 284 -266c0 -154 -117 -274 -284 -274
s-285 120 -285 274zM175 260c0 -86 59 -152 146 -152c86 0 146 66 146 152s-60 152 -146 152c-87 0 -146 -66 -146 -152z" />
    <glyph glyph-name="ograve" unicode="&#xf2;" horiz-adv-x="642" 
d="M216 754c9 20 25 23 43 12l173 -106c17 -11 21 -26 12 -44l-9 -15c-9 -17 -24 -22 -42 -16l-187 71c-20 8 -26 22 -17 42zM36 264c0 149 118 266 285 266s284 -117 284 -266c0 -154 -117 -274 -284 -274s-285 120 -285 274zM175 260c0 -86 59 -152 146 -152
c86 0 146 66 146 152s-60 152 -146 152c-87 0 -146 -66 -146 -152z" />
    <glyph glyph-name="ohungarumlaut" unicode="&#x151;" horiz-adv-x="642" 
d="M204 713c6 16 19 24 37 24h66c25 0 34 -17 20 -38l-57 -89c-9 -14 -21 -21 -38 -21h-38c-24 0 -33 15 -25 36zM389 713c6 16 19 24 37 24h66c26 0 34 -17 21 -38l-57 -89c-9 -14 -21 -21 -38 -21h-39c-24 0 -33 15 -25 36zM36 264c0 149 118 266 285 266
s284 -117 284 -266c0 -154 -117 -274 -284 -274s-285 120 -285 274zM175 260c0 -86 59 -152 146 -152c86 0 146 66 146 152s-60 152 -146 152c-87 0 -146 -66 -146 -152z" />
    <glyph glyph-name="omacron" unicode="&#x14d;" horiz-adv-x="642" 
d="M163 673c0 20 12 32 32 32h248c20 0 32 -12 32 -32v-37c0 -21 -12 -32 -32 -32h-248c-20 0 -32 11 -32 32v37zM36 264c0 149 118 266 285 266s284 -117 284 -266c0 -154 -117 -274 -284 -274s-285 120 -285 274zM175 260c0 -86 59 -152 146 -152c86 0 146 66 146 152
s-60 152 -146 152c-87 0 -146 -66 -146 -152z" />
    <glyph glyph-name="uni01EB" unicode="&#x1eb;" horiz-adv-x="642" 
d="M391 -3c-58 -38 -70 -73 -70 -103c0 -23 17 -37 37 -37c7 0 15 1 23 2c14 2 21 -4 21 -17v-35c0 -11 -5 -18 -16 -21c-17 -4 -35 -6 -52 -6c-64 0 -116 35 -116 107c0 45 27 80 66 105c-147 16 -248 130 -248 272c0 149 118 266 285 266s284 -117 284 -266
c0 -131 -85 -238 -214 -267zM175 260c0 -86 59 -152 146 -152c86 0 146 66 146 152s-60 152 -146 152c-87 0 -146 -66 -146 -152z" />
    <glyph glyph-name="oslash" unicode="&#xf8;" horiz-adv-x="642" 
d="M541 437c41 -47 64 -107 64 -173c0 -154 -117 -274 -284 -274c-65 0 -122 18 -168 49l-31 -31c-13 -14 -28 -14 -42 -1l-8 8c-15 13 -15 28 -2 42l29 30c-40 47 -63 109 -63 177c0 149 118 266 285 266c63 0 119 -17 164 -46l27 28c13 13 28 14 42 0l9 -8
c14 -14 15 -29 2 -43zM175 260c0 -28 6 -54 18 -76l203 208c-22 13 -47 20 -75 20c-87 0 -146 -66 -146 -152zM321 108c86 0 146 66 146 152c0 30 -7 57 -20 80l-206 -210c23 -14 50 -22 80 -22z" />
    <glyph glyph-name="oslashacute" unicode="&#x1ff;" horiz-adv-x="642" 
d="M217 599l-8 16c-9 17 -6 32 12 43l171 106c18 11 34 7 43 -12l27 -57c9 -19 3 -33 -17 -41l-185 -70c-19 -6 -33 -2 -43 15zM541 437c41 -47 64 -107 64 -173c0 -154 -117 -274 -284 -274c-65 0 -122 18 -168 49l-31 -31c-13 -14 -28 -14 -42 -1l-8 8
c-15 13 -15 28 -2 42l29 30c-40 47 -63 109 -63 177c0 149 118 266 285 266c63 0 119 -17 164 -46l27 28c13 13 28 14 42 0l9 -8c14 -14 15 -29 2 -43zM175 260c0 -28 6 -54 18 -76l203 208c-22 13 -47 20 -75 20c-87 0 -146 -66 -146 -152zM321 108c86 0 146 66 146 152
c0 30 -7 57 -20 80l-206 -210c23 -14 50 -22 80 -22z" />
    <glyph glyph-name="otilde" unicode="&#xf5;" horiz-adv-x="642" 
d="M467 695c19 -3 28 -16 26 -36c-8 -52 -52 -82 -103 -82c-58 0 -96 35 -125 35c-16 0 -25 -8 -31 -16c-7 -12 -18 -16 -35 -13l-32 6c-19 4 -29 17 -26 37c10 54 48 86 97 85c52 -1 103 -36 134 -36c15 0 27 8 32 15c5 11 15 14 32 11zM36 264c0 149 118 266 285 266
s284 -117 284 -266c0 -154 -117 -274 -284 -274s-285 120 -285 274zM175 260c0 -86 59 -152 146 -152c86 0 146 66 146 152s-60 152 -146 152c-87 0 -146 -66 -146 -152z" />
    <glyph glyph-name="oe" unicode="&#x153;" horiz-adv-x="1008" 
d="M36 264c0 149 118 266 285 266c72 0 135 -22 182 -61c14 -12 26 -12 39 0c47 39 108 61 179 61c134 0 255 -111 250 -275c-1 -20 -15 -33 -35 -33h-323c-20 0 -31 -12 -23 -31c21 -54 70 -89 131 -89c49 0 84 20 101 47c10 14 19 23 37 23h68c21 0 35 -14 28 -35
c-29 -84 -115 -147 -234 -147c-69 0 -131 23 -177 66c-14 12 -26 12 -39 1c-48 -43 -112 -67 -184 -67c-167 0 -285 120 -285 274zM596 344c-10 -20 2 -33 23 -33h184c20 0 31 12 24 31c-19 48 -59 77 -108 77c-51 0 -100 -28 -123 -75zM175 260c0 -86 59 -152 146 -152
c56 0 110 27 132 71c6 13 7 23 5 37c-3 15 -4 31 -4 48c0 14 1 28 3 43c2 13 1 23 -6 36c-24 43 -74 69 -130 69c-87 0 -146 -66 -146 -152z" />
    <glyph glyph-name="p" unicode="p" horiz-adv-x="659" 
d="M101 -220c-20 0 -32 12 -32 32v676c0 20 12 32 32 32h32c18 0 30 -8 36 -26c5 -21 20 -24 37 -11c41 31 94 47 153 47c149 0 264 -118 264 -268s-113 -272 -266 -272c-51 0 -94 11 -129 31c-20 12 -33 6 -33 -16v-193c0 -20 -12 -32 -32 -32h-62zM207 206
c0 -12 2 -23 9 -34c26 -39 72 -64 126 -64c79 0 139 70 139 154c0 83 -63 150 -139 150c-52 0 -99 -24 -126 -64c-7 -11 -9 -20 -9 -34v-108z" />
    <glyph glyph-name="thorn" unicode="&#xfe;" horiz-adv-x="659" 
d="M101 -220c-20 0 -32 12 -32 32v928c0 20 12 32 32 32h61c20 0 31 -12 31 -32v-228c0 -23 14 -29 33 -17c38 23 83 35 133 35c149 0 264 -118 264 -268s-113 -272 -266 -272c-51 0 -94 12 -129 32c-20 11 -33 5 -33 -17v-193c0 -20 -12 -32 -32 -32h-62zM207 206
c0 -12 2 -23 9 -34c26 -39 72 -64 126 -64c79 0 139 70 139 154c0 83 -63 150 -139 150c-52 0 -99 -24 -126 -64c-7 -11 -9 -20 -9 -34v-108z" />
    <glyph glyph-name="q" unicode="q" horiz-adv-x="660" 
d="M37 262c0 154 116 268 275 268c56 0 106 -17 146 -49c16 -13 30 -11 37 9l3 6c7 16 19 24 36 24h25c20 0 32 -12 32 -32v-673c0 -20 -12 -32 -32 -32h-63c-20 0 -31 12 -31 32v189c0 23 -14 29 -33 17c-33 -20 -71 -31 -116 -31c-166 0 -279 113 -279 272zM179 262
c0 -85 61 -154 144 -154c50 0 95 26 120 64c8 12 9 23 9 35v107c0 12 -1 23 -9 34c-26 39 -72 64 -120 64c-81 0 -144 -65 -144 -150z" />
    <glyph glyph-name="r" unicode="r" horiz-adv-x="429" 
d="M101 0c-20 0 -32 12 -32 32v456c0 20 12 32 32 32h32c18 0 29 -8 36 -25l4 -11c7 -19 21 -24 38 -12c54 37 105 58 156 58c9 0 17 0 25 -2c20 -3 27 -17 25 -36l-8 -74c-2 -21 -14 -28 -36 -26c-11 1 -24 2 -34 2c-38 0 -74 -16 -113 -43c-13 -9 -19 -20 -19 -35v-284
c0 -20 -11 -32 -31 -32h-75z" />
    <glyph glyph-name="racute" unicode="&#x155;" horiz-adv-x="429" 
d="M295 764c18 11 34 7 43 -12l27 -57c9 -19 3 -33 -17 -41l-185 -70c-19 -6 -33 -2 -43 15l-8 16c-9 17 -6 32 12 43zM101 0c-20 0 -32 12 -32 32v456c0 20 12 32 32 32h32c18 0 29 -8 36 -25l4 -11c7 -19 21 -24 38 -12c54 37 105 58 156 58c9 0 17 0 25 -2
c20 -3 27 -17 25 -36l-8 -74c-2 -21 -14 -28 -36 -26c-11 1 -24 2 -34 2c-38 0 -74 -16 -113 -43c-13 -9 -19 -20 -19 -35v-284c0 -20 -11 -32 -31 -32h-75z" />
    <glyph glyph-name="rcaron" unicode="&#x159;" horiz-adv-x="429" 
d="M70 702l3 14c3 18 21 24 39 18l106 -34c9 -3 18 -3 27 0l106 34c18 6 36 0 40 -18l3 -14c3 -17 2 -32 -15 -40l-112 -55c-24 -12 -47 -12 -71 0l-112 55c-16 8 -18 23 -14 40zM101 0c-20 0 -32 12 -32 32v456c0 20 12 32 32 32h32c18 0 29 -8 36 -25l4 -11
c7 -19 21 -24 38 -12c54 37 105 58 156 58c9 0 17 0 25 -2c20 -3 27 -17 25 -36l-8 -74c-2 -21 -14 -28 -36 -26c-11 1 -24 2 -34 2c-38 0 -74 -16 -113 -43c-13 -9 -19 -20 -19 -35v-284c0 -20 -11 -32 -31 -32h-75z" />
    <glyph glyph-name="rcommaaccent" unicode="&#x157;" horiz-adv-x="429" 
d="M101 0c-20 0 -32 12 -32 32v456c0 20 12 32 32 32h32c18 0 29 -8 36 -25l4 -11c7 -19 21 -24 38 -12c54 37 105 58 156 58c9 0 17 0 25 -2c20 -3 27 -17 25 -36l-8 -74c-2 -21 -14 -28 -36 -26c-11 1 -24 2 -34 2c-38 0 -74 -16 -113 -43c-13 -9 -19 -20 -19 -35v-284
c0 -20 -11 -32 -31 -32h-75zM74 -62c2 20 14 29 33 29h58c22 0 33 -13 26 -36l-47 -150c-5 -17 -18 -26 -36 -26h-29c-22 0 -33 13 -29 34z" />
    <glyph glyph-name="s" unicode="s" horiz-adv-x="548" 
d="M54 374c0 90 77 156 221 156c129 0 202 -63 223 -155c5 -21 -8 -33 -30 -33h-64c-19 0 -28 10 -35 28c-12 33 -42 52 -96 52c-55 0 -84 -18 -84 -45c0 -97 321 -27 321 -228c0 -102 -93 -159 -226 -159c-132 0 -228 58 -249 160c-5 22 8 34 29 34h68c18 0 28 -9 35 -26
c18 -38 59 -60 120 -60c54 0 88 17 88 50c-1 98 -321 24 -321 226z" />
    <glyph glyph-name="sacute" unicode="&#x15b;" horiz-adv-x="548" 
d="M332 764c18 11 34 7 43 -12l27 -57c9 -19 3 -33 -17 -41l-185 -70c-19 -6 -33 -2 -43 15l-8 16c-9 17 -6 32 12 43zM54 374c0 90 77 156 221 156c129 0 202 -63 223 -155c5 -21 -8 -33 -30 -33h-64c-19 0 -28 10 -35 28c-12 33 -42 52 -96 52c-55 0 -84 -18 -84 -45
c0 -97 321 -27 321 -228c0 -102 -93 -159 -226 -159c-132 0 -228 58 -249 160c-5 22 8 34 29 34h68c18 0 28 -9 35 -26c18 -38 59 -60 120 -60c54 0 88 17 88 50c-1 98 -321 24 -321 226z" />
    <glyph glyph-name="scaron" unicode="&#x161;" horiz-adv-x="548" 
d="M107 702l3 14c3 18 21 24 39 18l106 -34c9 -3 18 -3 27 0l106 34c18 6 36 0 40 -18l3 -14c3 -17 2 -32 -15 -40l-112 -55c-24 -12 -47 -12 -71 0l-112 55c-16 8 -18 23 -14 40zM54 374c0 90 77 156 221 156c129 0 202 -63 223 -155c5 -21 -8 -33 -30 -33h-64
c-19 0 -28 10 -35 28c-12 33 -42 52 -96 52c-55 0 -84 -18 -84 -45c0 -97 321 -27 321 -228c0 -102 -93 -159 -226 -159c-132 0 -228 58 -249 160c-5 22 8 34 29 34h68c18 0 28 -9 35 -26c18 -38 59 -60 120 -60c54 0 88 17 88 50c-1 98 -321 24 -321 226z" />
    <glyph glyph-name="scedilla" unicode="&#x15f;" horiz-adv-x="548" 
d="M306 -9l-2 -7c-3 -12 3 -19 16 -21c41 -7 74 -34 74 -84c0 -65 -59 -99 -132 -99c-32 0 -63 7 -86 19c-15 8 -17 22 -9 37l3 8c8 16 20 18 37 13c13 -5 27 -7 43 -7c27 0 40 10 40 28s-14 29 -40 29h-16c-19 0 -29 13 -23 32l17 55c-103 14 -175 69 -193 156
c-5 22 8 34 29 34h68c18 0 28 -9 35 -26c18 -38 59 -60 120 -60c54 0 88 17 88 50c-1 98 -321 24 -321 226c0 90 77 156 221 156c129 0 202 -63 223 -155c5 -21 -8 -33 -30 -33h-64c-19 0 -28 10 -35 28c-12 33 -42 52 -96 52c-55 0 -84 -18 -84 -45c0 -97 321 -27 321 -228
c0 -96 -83 -153 -204 -158z" />
    <glyph glyph-name="scommaaccent" unicode="&#x219;" horiz-adv-x="548" 
d="M54 374c0 90 77 156 221 156c129 0 202 -63 223 -155c5 -21 -8 -33 -30 -33h-64c-19 0 -28 10 -35 28c-12 33 -42 52 -96 52c-55 0 -84 -18 -84 -45c0 -97 321 -27 321 -228c0 -102 -93 -159 -226 -159c-132 0 -228 58 -249 160c-5 22 8 34 29 34h68c18 0 28 -9 35 -26
c18 -38 59 -60 120 -60c54 0 88 17 88 50c-1 98 -321 24 -321 226zM214 -62c2 20 14 29 33 29h58c22 0 33 -13 26 -36l-47 -150c-5 -17 -18 -26 -36 -26h-29c-22 0 -33 13 -29 34z" />
    <glyph glyph-name="germandbls" unicode="&#xdf;" horiz-adv-x="680" 
d="M101 0c-20 0 -32 12 -32 32v529c0 118 95 217 249 217c138 0 242 -97 242 -228v-36c0 -24 -10 -38 -35 -43c-31 -6 -64 -22 -64 -55c0 -90 190 -76 190 -257c0 -104 -92 -169 -199 -169c-129 0 -191 71 -207 160c-3 21 9 33 30 33h60c19 0 29 -9 35 -28
c13 -36 41 -52 80 -52c38 0 65 20 65 54c0 110 -188 102 -188 259c0 50 26 97 75 122c18 9 25 20 20 42c-11 41 -47 80 -104 80c-68 0 -111 -45 -111 -107v-521c0 -20 -11 -32 -31 -32h-75z" />
    <glyph glyph-name="t" unicode="t" horiz-adv-x="436" 
d="M58 403c-20 0 -31 12 -31 32v53c0 20 11 32 31 32h33c6 0 11 5 11 11v75c0 19 9 31 27 35l71 18c22 6 36 -6 36 -27v-101c0 -6 4 -11 11 -11h128c20 0 32 -12 32 -32v-53c0 -20 -12 -32 -32 -32h-128c-7 0 -11 -5 -11 -12v-215c0 -41 14 -64 55 -64c28 0 53 4 77 11
c22 5 36 -5 38 -26l6 -52c2 -20 -6 -32 -25 -38c-36 -10 -76 -17 -122 -17c-91 0 -168 46 -168 183v218c0 7 -5 12 -11 12h-28z" />
    <glyph glyph-name="tbar" unicode="&#x167;" horiz-adv-x="436" 
d="M412 45c2 -20 -6 -32 -25 -38c-36 -10 -76 -17 -122 -17c-91 0 -168 46 -168 183v51h-35c-20 0 -32 12 -32 32v43c0 20 12 32 32 32h35v60c0 7 -5 12 -11 12h-28c-20 0 -31 12 -31 32v53c0 20 11 32 31 32h33c6 0 11 5 11 11v75c0 19 9 31 27 35l71 18c22 6 36 -6 36 -27
v-101c0 -6 4 -11 11 -11h128c20 0 32 -12 32 -32v-53c0 -20 -12 -32 -32 -32h-128c-7 0 -11 -5 -11 -12v-60h121c20 0 32 -12 32 -32v-43c0 -20 -12 -32 -32 -32h-121v-48c0 -41 14 -64 55 -64c28 0 53 4 77 11c22 5 36 -5 38 -26z" />
    <glyph glyph-name="tcaron" unicode="&#x165;" horiz-adv-x="436" 
d="M358 586c19 0 31 10 34 29l32 173c4 22 -7 35 -28 35h-52c-20 0 -31 -11 -33 -30l-17 -173c-2 -21 9 -34 30 -34h34zM58 403c-20 0 -31 12 -31 32v53c0 20 11 32 31 32h33c6 0 11 5 11 11v75c0 19 9 31 27 35l71 18c22 6 36 -6 36 -27v-101c0 -6 4 -11 11 -11h128
c20 0 32 -12 32 -32v-53c0 -20 -12 -32 -32 -32h-128c-7 0 -11 -5 -11 -12v-215c0 -41 14 -64 55 -64c28 0 53 4 77 11c22 5 36 -5 38 -26l6 -52c2 -20 -6 -32 -25 -38c-36 -10 -76 -17 -122 -17c-91 0 -168 46 -168 183v218c0 7 -5 12 -11 12h-28z" />
    <glyph glyph-name="uni0163" unicode="&#x163;" horiz-adv-x="436" 
d="M412 45c2 -20 -6 -32 -25 -38c-31 -9 -66 -15 -104 -17l-2 -6c-3 -12 3 -19 16 -21c41 -7 74 -34 74 -84c0 -65 -59 -99 -132 -99c-32 0 -63 7 -86 19c-15 8 -17 22 -9 37l3 8c8 16 20 18 37 13c13 -5 27 -7 43 -7c27 0 40 10 40 28s-14 29 -40 29h-16
c-19 0 -29 13 -23 32l18 59c-63 17 -109 69 -109 175v218c0 7 -5 12 -11 12h-28c-20 0 -31 12 -31 32v53c0 20 11 32 31 32h33c6 0 11 5 11 11v75c0 19 9 31 27 35l71 18c22 6 36 -6 36 -27v-101c0 -6 4 -11 11 -11h128c20 0 32 -12 32 -32v-53c0 -20 -12 -32 -32 -32h-128
c-7 0 -11 -5 -11 -12v-215c0 -41 14 -64 55 -64c28 0 53 4 77 11c22 5 36 -5 38 -26z" />
    <glyph glyph-name="uni021B" unicode="&#x21b;" horiz-adv-x="436" 
d="M58 403c-20 0 -31 12 -31 32v53c0 20 11 32 31 32h33c6 0 11 5 11 11v75c0 19 9 31 27 35l71 18c22 6 36 -6 36 -27v-101c0 -6 4 -11 11 -11h128c20 0 32 -12 32 -32v-53c0 -20 -12 -32 -32 -32h-128c-7 0 -11 -5 -11 -12v-215c0 -41 14 -64 55 -64c28 0 53 4 77 11
c22 5 36 -5 38 -26l6 -52c2 -20 -6 -32 -25 -38c-36 -10 -76 -17 -122 -17c-91 0 -168 46 -168 183v218c0 7 -5 12 -11 12h-28zM191 -62c2 20 14 29 33 29h58c22 0 33 -13 26 -36l-47 -150c-5 -17 -18 -26 -36 -26h-29c-22 0 -33 13 -29 34z" />
    <glyph glyph-name="u" unicode="u" horiz-adv-x="628" 
d="M64 201v287c0 20 12 32 32 32h75c20 0 31 -12 31 -32v-281c0 -60 29 -95 82 -95c34 0 77 16 118 39c14 7 20 18 20 33v304c0 20 11 32 31 32h75c20 0 31 -12 31 -32v-456c0 -20 -11 -32 -31 -32h-31c-19 0 -30 8 -37 25l-2 5c-6 18 -20 23 -37 13
c-58 -34 -114 -53 -182 -53c-107 0 -175 76 -175 211z" />
    <glyph glyph-name="uacute" unicode="&#xfa;" horiz-adv-x="628" 
d="M378 764c18 11 34 7 43 -12l27 -57c9 -19 3 -33 -17 -41l-185 -70c-19 -6 -33 -2 -43 15l-8 16c-9 17 -6 32 12 43zM64 201v287c0 20 12 32 32 32h75c20 0 31 -12 31 -32v-281c0 -60 29 -95 82 -95c34 0 77 16 118 39c14 7 20 18 20 33v304c0 20 11 32 31 32h75
c20 0 31 -12 31 -32v-456c0 -20 -11 -32 -31 -32h-31c-19 0 -30 8 -37 25l-2 5c-6 18 -20 23 -37 13c-58 -34 -114 -53 -182 -53c-107 0 -175 76 -175 211z" />
    <glyph glyph-name="ucircumflex" unicode="&#xfb;" horiz-adv-x="628" 
d="M141 638c-8 17 -4 33 12 41l133 71c19 10 36 11 55 1l140 -72c17 -8 21 -24 12 -41l-9 -18c-8 -17 -22 -22 -39 -16l-104 36c-19 7 -35 6 -53 0l-98 -35c-17 -6 -32 -2 -40 15zM64 201v287c0 20 12 32 32 32h75c20 0 31 -12 31 -32v-281c0 -60 29 -95 82 -95
c34 0 77 16 118 39c14 7 20 18 20 33v304c0 20 11 32 31 32h75c20 0 31 -12 31 -32v-456c0 -20 -11 -32 -31 -32h-31c-19 0 -30 8 -37 25l-2 5c-6 18 -20 23 -37 13c-58 -34 -114 -53 -182 -53c-107 0 -175 76 -175 211z" />
    <glyph glyph-name="udieresis" unicode="&#xfc;" horiz-adv-x="628" 
d="M206 598c-42 0 -76 34 -76 79c0 41 34 75 76 75s78 -34 78 -75c0 -45 -36 -79 -78 -79zM422 598c-41 0 -77 34 -77 79c0 41 36 75 77 75c43 0 78 -34 78 -75c0 -45 -35 -79 -78 -79zM64 201v287c0 20 12 32 32 32h75c20 0 31 -12 31 -32v-281c0 -60 29 -95 82 -95
c34 0 77 16 118 39c14 7 20 18 20 33v304c0 20 11 32 31 32h75c20 0 31 -12 31 -32v-456c0 -20 -11 -32 -31 -32h-31c-19 0 -30 8 -37 25l-2 5c-6 18 -20 23 -37 13c-58 -34 -114 -53 -182 -53c-107 0 -175 76 -175 211z" />
    <glyph glyph-name="ugrave" unicode="&#xf9;" horiz-adv-x="628" 
d="M211 754c9 20 25 23 43 12l173 -106c17 -11 21 -26 12 -44l-9 -15c-9 -17 -24 -22 -42 -16l-187 71c-20 8 -26 22 -17 42zM64 201v287c0 20 12 32 32 32h75c20 0 31 -12 31 -32v-281c0 -60 29 -95 82 -95c34 0 77 16 118 39c14 7 20 18 20 33v304c0 20 11 32 31 32h75
c20 0 31 -12 31 -32v-456c0 -20 -11 -32 -31 -32h-31c-19 0 -30 8 -37 25l-2 5c-6 18 -20 23 -37 13c-58 -34 -114 -53 -182 -53c-107 0 -175 76 -175 211z" />
    <glyph glyph-name="uhungarumlaut" unicode="&#x171;" horiz-adv-x="628" 
d="M199 713c6 16 19 24 37 24h66c25 0 34 -17 20 -38l-57 -89c-9 -14 -21 -21 -38 -21h-38c-24 0 -33 15 -25 36zM384 713c6 16 19 24 37 24h66c26 0 34 -17 21 -38l-57 -89c-9 -14 -21 -21 -38 -21h-39c-24 0 -33 15 -25 36zM64 201v287c0 20 12 32 32 32h75
c20 0 31 -12 31 -32v-281c0 -60 29 -95 82 -95c34 0 77 16 118 39c14 7 20 18 20 33v304c0 20 11 32 31 32h75c20 0 31 -12 31 -32v-456c0 -20 -11 -32 -31 -32h-31c-19 0 -30 8 -37 25l-2 5c-6 18 -20 23 -37 13c-58 -34 -114 -53 -182 -53c-107 0 -175 76 -175 211z" />
    <glyph glyph-name="umacron" unicode="&#x16b;" horiz-adv-x="628" 
d="M158 673c0 20 12 32 32 32h248c20 0 32 -12 32 -32v-37c0 -21 -12 -32 -32 -32h-248c-20 0 -32 11 -32 32v37zM64 201v287c0 20 12 32 32 32h75c20 0 31 -12 31 -32v-281c0 -60 29 -95 82 -95c34 0 77 16 118 39c14 7 20 18 20 33v304c0 20 11 32 31 32h75
c20 0 31 -12 31 -32v-456c0 -20 -11 -32 -31 -32h-31c-19 0 -30 8 -37 25l-2 5c-6 18 -20 23 -37 13c-58 -34 -114 -53 -182 -53c-107 0 -175 76 -175 211z" />
    <glyph glyph-name="uogonek" unicode="&#x173;" horiz-adv-x="628" 
d="M559 32c0 -14 -5 -24 -15 -29c-61 -39 -74 -75 -74 -106c0 -23 17 -37 37 -37c7 0 15 1 23 2c14 2 21 -4 21 -17v-35c0 -11 -5 -18 -16 -21c-17 -4 -35 -6 -52 -6c-64 0 -116 35 -116 107c0 57 43 97 100 123c-3 3 -5 7 -7 12l-2 5c-6 18 -20 23 -37 13
c-58 -34 -114 -53 -182 -53c-107 0 -175 76 -175 211v287c0 20 12 32 32 32h75c20 0 31 -12 31 -32v-281c0 -60 29 -95 82 -95c34 0 77 16 118 39c14 7 20 18 20 33v304c0 20 11 32 31 32h75c20 0 31 -12 31 -32v-456z" />
    <glyph glyph-name="uring" unicode="&#x16f;" horiz-adv-x="628" 
d="M313 570c-81 0 -126 51 -126 111c0 59 45 111 126 111c82 0 127 -52 127 -111c0 -60 -45 -111 -127 -111zM313 642c25 0 43 17 43 39c0 23 -18 41 -43 41s-42 -18 -41 -41c-1 -22 16 -39 41 -39zM64 201v287c0 20 12 32 32 32h75c20 0 31 -12 31 -32v-281
c0 -60 29 -95 82 -95c34 0 77 16 118 39c14 7 20 18 20 33v304c0 20 11 32 31 32h75c20 0 31 -12 31 -32v-456c0 -20 -11 -32 -31 -32h-31c-19 0 -30 8 -37 25l-2 5c-6 18 -20 23 -37 13c-58 -34 -114 -53 -182 -53c-107 0 -175 76 -175 211z" />
    <glyph glyph-name="utilde" unicode="&#x169;" horiz-adv-x="628" 
d="M462 695c19 -3 28 -16 26 -36c-8 -52 -52 -82 -103 -82c-58 0 -96 35 -125 35c-16 0 -25 -8 -31 -16c-7 -12 -18 -16 -35 -13l-32 6c-19 4 -29 17 -26 37c10 54 48 86 97 85c52 -1 103 -36 134 -36c15 0 27 8 32 15c5 11 15 14 32 11zM64 201v287c0 20 12 32 32 32h75
c20 0 31 -12 31 -32v-281c0 -60 29 -95 82 -95c34 0 77 16 118 39c14 7 20 18 20 33v304c0 20 11 32 31 32h75c20 0 31 -12 31 -32v-456c0 -20 -11 -32 -31 -32h-31c-19 0 -30 8 -37 25l-2 5c-6 18 -20 23 -37 13c-58 -34 -114 -53 -182 -53c-107 0 -175 76 -175 211z" />
    <glyph glyph-name="v" unicode="v" horiz-adv-x="577" 
d="M19 484c-8 21 1 36 25 36h93c18 0 31 -9 36 -27l105 -338c6 -17 20 -17 26 0l108 338c6 18 17 27 35 27h87c24 0 34 -15 26 -37l-184 -455c-8 -19 -22 -28 -42 -28h-93c-20 0 -34 9 -42 28z" />
    <glyph glyph-name="w" unicode="w" horiz-adv-x="805" 
d="M20 485c-6 22 5 35 27 35h71c19 0 31 -9 35 -28l69 -300c4 -18 18 -19 23 -1l93 307c5 17 16 25 33 25h65c17 0 28 -8 33 -25l92 -312c6 -18 20 -16 24 1l69 305c4 19 16 28 35 28h69c23 0 33 -13 27 -35l-130 -459c-5 -18 -16 -26 -33 -26h-96c-17 0 -29 9 -34 26
l-79 277c-4 18 -18 18 -23 0l-87 -278c-5 -17 -16 -25 -33 -25h-87c-17 0 -29 8 -34 26z" />
    <glyph glyph-name="wacute" unicode="&#x1e83;" horiz-adv-x="805" 
d="M467 764c18 11 34 7 43 -12l27 -57c9 -19 3 -33 -17 -41l-185 -70c-19 -6 -33 -2 -43 15l-8 16c-9 17 -6 32 12 43zM20 485c-6 22 5 35 27 35h71c19 0 31 -9 35 -28l69 -300c4 -18 18 -19 23 -1l93 307c5 17 16 25 33 25h65c17 0 28 -8 33 -25l92 -312c6 -18 20 -16 24 1
l69 305c4 19 16 28 35 28h69c23 0 33 -13 27 -35l-130 -459c-5 -18 -16 -26 -33 -26h-96c-17 0 -29 9 -34 26l-79 277c-4 18 -18 18 -23 0l-87 -278c-5 -17 -16 -25 -33 -25h-87c-17 0 -29 8 -34 26z" />
    <glyph glyph-name="wcircumflex" unicode="&#x175;" horiz-adv-x="805" 
d="M230 638c-8 17 -4 33 12 41l133 71c19 10 36 11 55 1l140 -72c17 -8 21 -24 12 -41l-9 -18c-8 -17 -22 -22 -39 -16l-104 36c-19 7 -35 6 -53 0l-98 -35c-17 -6 -32 -2 -40 15zM20 485c-6 22 5 35 27 35h71c19 0 31 -9 35 -28l69 -300c4 -18 18 -19 23 -1l93 307
c5 17 16 25 33 25h65c17 0 28 -8 33 -25l92 -312c6 -18 20 -16 24 1l69 305c4 19 16 28 35 28h69c23 0 33 -13 27 -35l-130 -459c-5 -18 -16 -26 -33 -26h-96c-17 0 -29 9 -34 26l-79 277c-4 18 -18 18 -23 0l-87 -278c-5 -17 -16 -25 -33 -25h-87c-17 0 -29 8 -34 26z" />
    <glyph glyph-name="wdieresis" unicode="&#x1e85;" horiz-adv-x="805" 
d="M295 598c-42 0 -76 34 -76 79c0 41 34 75 76 75s78 -34 78 -75c0 -45 -36 -79 -78 -79zM511 598c-41 0 -77 34 -77 79c0 41 36 75 77 75c43 0 78 -34 78 -75c0 -45 -35 -79 -78 -79zM20 485c-6 22 5 35 27 35h71c19 0 31 -9 35 -28l69 -300c4 -18 18 -19 23 -1l93 307
c5 17 16 25 33 25h65c17 0 28 -8 33 -25l92 -312c6 -18 20 -16 24 1l69 305c4 19 16 28 35 28h69c23 0 33 -13 27 -35l-130 -459c-5 -18 -16 -26 -33 -26h-96c-17 0 -29 9 -34 26l-79 277c-4 18 -18 18 -23 0l-87 -278c-5 -17 -16 -25 -33 -25h-87c-17 0 -29 8 -34 26z" />
    <glyph glyph-name="wgrave" unicode="&#x1e81;" horiz-adv-x="805" 
d="M300 754c9 20 25 23 43 12l173 -106c17 -11 21 -26 12 -44l-9 -15c-9 -17 -24 -22 -42 -16l-187 71c-20 8 -26 22 -17 42zM20 485c-6 22 5 35 27 35h71c19 0 31 -9 35 -28l69 -300c4 -18 18 -19 23 -1l93 307c5 17 16 25 33 25h65c17 0 28 -8 33 -25l92 -312
c6 -18 20 -16 24 1l69 305c4 19 16 28 35 28h69c23 0 33 -13 27 -35l-130 -459c-5 -18 -16 -26 -33 -26h-96c-17 0 -29 9 -34 26l-79 277c-4 18 -18 18 -23 0l-87 -278c-5 -17 -16 -25 -33 -25h-87c-17 0 -29 8 -34 26z" />
    <glyph glyph-name="x" unicode="x" horiz-adv-x="554" 
d="M51 0c-26 0 -34 18 -19 39l156 219c5 8 5 15 0 24l-148 199c-15 21 -7 39 19 39h88c17 0 30 -7 38 -21l85 -132c7 -12 17 -12 24 -1l85 133c10 15 21 21 38 21h75c26 0 35 -16 21 -38l-145 -210c-6 -7 -5 -15 1 -24l155 -209c16 -21 7 -39 -20 -39h-89
c-17 0 -29 6 -38 21l-91 136c-6 11 -18 10 -24 0l-93 -137c-9 -14 -21 -20 -38 -20h-80z" />
    <glyph glyph-name="y" unicode="y" horiz-adv-x="571" 
d="M18 484c-8 22 2 36 25 36h87c19 0 31 -9 37 -26l109 -338c5 -18 19 -18 25 0l107 338c5 18 18 26 36 26h84c23 0 33 -14 25 -36l-201 -533c-42 -113 -105 -169 -220 -169c-24 0 -50 3 -73 9c-19 4 -27 18 -25 37l6 47c3 21 15 30 36 27c19 -4 39 -5 64 -5
c50 0 79 31 100 86l7 17h-21c-15 0 -25 7 -30 21z" />
    <glyph glyph-name="yacute" unicode="&#xfd;" horiz-adv-x="571" 
d="M350 764c18 11 34 7 43 -12l27 -57c9 -19 3 -33 -17 -41l-185 -70c-19 -6 -33 -2 -43 15l-8 16c-9 17 -6 32 12 43zM18 484c-8 22 2 36 25 36h87c19 0 31 -9 37 -26l109 -338c5 -18 19 -18 25 0l107 338c5 18 18 26 36 26h84c23 0 33 -14 25 -36l-201 -533
c-42 -113 -105 -169 -220 -169c-24 0 -50 3 -73 9c-19 4 -27 18 -25 37l6 47c3 21 15 30 36 27c19 -4 39 -5 64 -5c50 0 79 31 100 86l7 17h-21c-15 0 -25 7 -30 21z" />
    <glyph glyph-name="ycircumflex" unicode="&#x177;" horiz-adv-x="571" 
d="M113 638c-8 17 -4 33 12 41l133 71c19 10 36 11 55 1l140 -72c17 -8 21 -24 12 -41l-9 -18c-8 -17 -22 -22 -39 -16l-104 36c-19 7 -35 6 -53 0l-98 -35c-17 -6 -32 -2 -40 15zM18 484c-8 22 2 36 25 36h87c19 0 31 -9 37 -26l109 -338c5 -18 19 -18 25 0l107 338
c5 18 18 26 36 26h84c23 0 33 -14 25 -36l-201 -533c-42 -113 -105 -169 -220 -169c-24 0 -50 3 -73 9c-19 4 -27 18 -25 37l6 47c3 21 15 30 36 27c19 -4 39 -5 64 -5c50 0 79 31 100 86l7 17h-21c-15 0 -25 7 -30 21z" />
    <glyph glyph-name="ydieresis" unicode="&#xff;" horiz-adv-x="571" 
d="M178 598c-42 0 -76 34 -76 79c0 41 34 75 76 75s78 -34 78 -75c0 -45 -36 -79 -78 -79zM394 598c-41 0 -77 34 -77 79c0 41 36 75 77 75c43 0 78 -34 78 -75c0 -45 -35 -79 -78 -79zM18 484c-8 22 2 36 25 36h87c19 0 31 -9 37 -26l109 -338c5 -18 19 -18 25 0l107 338
c5 18 18 26 36 26h84c23 0 33 -14 25 -36l-201 -533c-42 -113 -105 -169 -220 -169c-24 0 -50 3 -73 9c-19 4 -27 18 -25 37l6 47c3 21 15 30 36 27c19 -4 39 -5 64 -5c50 0 79 31 100 86l7 17h-21c-15 0 -25 7 -30 21z" />
    <glyph glyph-name="ygrave" unicode="&#x1ef3;" horiz-adv-x="571" 
d="M183 754c9 20 25 23 43 12l173 -106c17 -11 21 -26 12 -44l-9 -15c-9 -17 -24 -22 -42 -16l-187 71c-20 8 -26 22 -17 42zM18 484c-8 22 2 36 25 36h87c19 0 31 -9 37 -26l109 -338c5 -18 19 -18 25 0l107 338c5 18 18 26 36 26h84c23 0 33 -14 25 -36l-201 -533
c-42 -113 -105 -169 -220 -169c-24 0 -50 3 -73 9c-19 4 -27 18 -25 37l6 47c3 21 15 30 36 27c19 -4 39 -5 64 -5c50 0 79 31 100 86l7 17h-21c-15 0 -25 7 -30 21z" />
    <glyph glyph-name="uni1EF9" unicode="&#x1ef9;" horiz-adv-x="571" 
d="M434 695c19 -3 28 -16 26 -36c-8 -52 -52 -82 -103 -82c-58 0 -96 35 -125 35c-16 0 -25 -8 -31 -16c-7 -12 -18 -16 -35 -13l-32 6c-19 4 -29 17 -26 37c10 54 48 86 97 85c52 -1 103 -36 134 -36c15 0 27 8 32 15c5 11 15 14 32 11zM18 484c-8 22 2 36 25 36h87
c19 0 31 -9 37 -26l109 -338c5 -18 19 -18 25 0l107 338c5 18 18 26 36 26h84c23 0 33 -14 25 -36l-201 -533c-42 -113 -105 -169 -220 -169c-24 0 -50 3 -73 9c-19 4 -27 18 -25 37l6 47c3 21 15 30 36 27c19 -4 39 -5 64 -5c50 0 79 31 100 86l7 17h-21
c-15 0 -25 7 -30 21z" />
    <glyph glyph-name="z" unicode="z" horiz-adv-x="527" 
d="M26 44c0 14 4 24 13 34l260 307c10 11 5 21 -9 21h-219c-20 0 -32 12 -32 32v50c0 20 12 32 32 32h381c18 0 28 -10 28 -28v-48c0 -14 -4 -24 -13 -34l-230 -275c-10 -11 -4 -21 10 -21h219c20 0 31 -12 31 -32v-50c0 -20 -11 -32 -31 -32h-411c-18 0 -28 10 -29 28v16z
" />
    <glyph glyph-name="zacute" unicode="&#x17a;" horiz-adv-x="527" 
d="M331 764c18 11 34 7 43 -12l27 -57c9 -19 3 -33 -17 -41l-185 -70c-19 -6 -33 -2 -43 15l-8 16c-9 17 -6 32 12 43zM26 44c0 14 4 24 13 34l260 307c10 11 5 21 -9 21h-219c-20 0 -32 12 -32 32v50c0 20 12 32 32 32h381c18 0 28 -10 28 -28v-48c0 -14 -4 -24 -13 -34
l-230 -275c-10 -11 -4 -21 10 -21h219c20 0 31 -12 31 -32v-50c0 -20 -11 -32 -31 -32h-411c-18 0 -28 10 -29 28v16z" />
    <glyph glyph-name="zcaron" unicode="&#x17e;" horiz-adv-x="527" 
d="M106 702l3 14c3 18 21 24 39 18l106 -34c9 -3 18 -3 27 0l106 34c18 6 36 0 40 -18l3 -14c3 -17 2 -32 -15 -40l-112 -55c-24 -12 -47 -12 -71 0l-112 55c-16 8 -18 23 -14 40zM26 44c0 14 4 24 13 34l260 307c10 11 5 21 -9 21h-219c-20 0 -32 12 -32 32v50
c0 20 12 32 32 32h381c18 0 28 -10 28 -28v-48c0 -14 -4 -24 -13 -34l-230 -275c-10 -11 -4 -21 10 -21h219c20 0 31 -12 31 -32v-50c0 -20 -11 -32 -31 -32h-411c-18 0 -28 10 -29 28v16z" />
    <glyph glyph-name="zdotaccent" unicode="&#x17c;" horiz-adv-x="527" 
d="M267 588c-52 0 -92 42 -92 94c0 50 40 91 92 91c50 0 93 -41 93 -91c0 -52 -43 -94 -93 -94zM26 44c0 14 4 24 13 34l260 307c10 11 5 21 -9 21h-219c-20 0 -32 12 -32 32v50c0 20 12 32 32 32h381c18 0 28 -10 28 -28v-48c0 -14 -4 -24 -13 -34l-230 -275
c-10 -11 -4 -21 10 -21h219c20 0 31 -12 31 -32v-50c0 -20 -11 -32 -31 -32h-411c-18 0 -28 10 -29 28v16z" />
    <glyph glyph-name="a.ss01" horiz-adv-x="659" 
d="M37 262c0 154 116 268 277 268c57 0 107 -18 148 -51c12 -9 22 -8 27 7l2 9c7 17 20 25 37 25h30c20 0 32 -12 32 -32v-456c0 -20 -12 -32 -32 -32h-24c-18 0 -30 8 -37 25l-5 13c-5 13 -15 15 -26 5c-39 -33 -89 -53 -148 -53c-168 0 -281 113 -281 272zM179 262
c0 -85 61 -154 144 -154c51 0 97 27 122 67c5 8 6 15 6 24v122c0 9 -1 17 -7 25c-25 39 -71 66 -121 66c-81 0 -144 -65 -144 -150z" />
    <glyph glyph-name="aacute.ss01" horiz-adv-x="659" 
d="M389 764c18 11 34 7 43 -12l27 -57c9 -19 3 -33 -17 -41l-185 -70c-19 -6 -33 -2 -43 15l-8 16c-9 17 -6 32 12 43zM37 262c0 154 116 268 277 268c57 0 107 -18 148 -51c12 -9 22 -8 27 7l2 9c7 17 20 25 37 25h30c20 0 32 -12 32 -32v-456c0 -20 -12 -32 -32 -32h-24
c-18 0 -30 8 -37 25l-5 13c-5 13 -15 15 -26 5c-39 -33 -89 -53 -148 -53c-168 0 -281 113 -281 272zM179 262c0 -85 61 -154 144 -154c51 0 97 27 122 67c5 8 6 15 6 24v122c0 9 -1 17 -7 25c-25 39 -71 66 -121 66c-81 0 -144 -65 -144 -150z" />
    <glyph glyph-name="abreve.ss01" horiz-adv-x="659" 
d="M220 742c19 0 27 -9 34 -28c12 -25 39 -40 71 -40c31 0 59 15 72 40c8 19 16 28 35 28h40c21 -1 34 -12 30 -34c-17 -76 -83 -126 -177 -126c-87 0 -158 46 -177 126c-5 22 9 33 30 34h42zM37 262c0 154 116 268 277 268c57 0 107 -18 148 -51c12 -9 22 -8 27 7l2 9
c7 17 20 25 37 25h30c20 0 32 -12 32 -32v-456c0 -20 -12 -32 -32 -32h-24c-18 0 -30 8 -37 25l-5 13c-5 13 -15 15 -26 5c-39 -33 -89 -53 -148 -53c-168 0 -281 113 -281 272zM179 262c0 -85 61 -154 144 -154c51 0 97 27 122 67c5 8 6 15 6 24v122c0 9 -1 17 -7 25
c-25 39 -71 66 -121 66c-81 0 -144 -65 -144 -150z" />
    <glyph glyph-name="acircumflex.ss01" horiz-adv-x="659" 
d="M152 638c-8 17 -4 33 12 41l133 71c19 10 36 11 55 1l140 -72c17 -8 21 -24 12 -41l-9 -18c-8 -17 -22 -22 -39 -16l-104 36c-19 7 -35 6 -53 0l-98 -35c-17 -6 -32 -2 -40 15zM37 262c0 154 116 268 277 268c57 0 107 -18 148 -51c12 -9 22 -8 27 7l2 9
c7 17 20 25 37 25h30c20 0 32 -12 32 -32v-456c0 -20 -12 -32 -32 -32h-24c-18 0 -30 8 -37 25l-5 13c-5 13 -15 15 -26 5c-39 -33 -89 -53 -148 -53c-168 0 -281 113 -281 272zM179 262c0 -85 61 -154 144 -154c51 0 97 27 122 67c5 8 6 15 6 24v122c0 9 -1 17 -7 25
c-25 39 -71 66 -121 66c-81 0 -144 -65 -144 -150z" />
    <glyph glyph-name="adieresis.ss01" horiz-adv-x="659" 
d="M217 598c-42 0 -76 34 -76 79c0 41 34 75 76 75s78 -34 78 -75c0 -45 -36 -79 -78 -79zM433 598c-41 0 -77 34 -77 79c0 41 36 75 77 75c43 0 78 -34 78 -75c0 -45 -35 -79 -78 -79zM37 262c0 154 116 268 277 268c57 0 107 -18 148 -51c12 -9 22 -8 27 7l2 9
c7 17 20 25 37 25h30c20 0 32 -12 32 -32v-456c0 -20 -12 -32 -32 -32h-24c-18 0 -30 8 -37 25l-5 13c-5 13 -15 15 -26 5c-39 -33 -89 -53 -148 -53c-168 0 -281 113 -281 272zM179 262c0 -85 61 -154 144 -154c51 0 97 27 122 67c5 8 6 15 6 24v122c0 9 -1 17 -7 25
c-25 39 -71 66 -121 66c-81 0 -144 -65 -144 -150z" />
    <glyph glyph-name="agrave.ss01" horiz-adv-x="659" 
d="M222 754c9 20 25 23 43 12l173 -106c17 -11 21 -26 12 -44l-9 -15c-9 -17 -24 -22 -42 -16l-187 71c-20 8 -26 22 -17 42zM37 262c0 154 116 268 277 268c57 0 107 -18 148 -51c12 -9 22 -8 27 7l2 9c7 17 20 25 37 25h30c20 0 32 -12 32 -32v-456c0 -20 -12 -32 -32 -32
h-24c-18 0 -30 8 -37 25l-5 13c-5 13 -15 15 -26 5c-39 -33 -89 -53 -148 -53c-168 0 -281 113 -281 272zM179 262c0 -85 61 -154 144 -154c51 0 97 27 122 67c5 8 6 15 6 24v122c0 9 -1 17 -7 25c-25 39 -71 66 -121 66c-81 0 -144 -65 -144 -150z" />
    <glyph glyph-name="amacron.ss01" horiz-adv-x="659" 
d="M169 673c0 20 12 32 32 32h248c20 0 32 -12 32 -32v-37c0 -21 -12 -32 -32 -32h-248c-20 0 -32 11 -32 32v37zM37 262c0 154 116 268 277 268c57 0 107 -18 148 -51c12 -9 22 -8 27 7l2 9c7 17 20 25 37 25h30c20 0 32 -12 32 -32v-456c0 -20 -12 -32 -32 -32h-24
c-18 0 -30 8 -37 25l-5 13c-5 13 -15 15 -26 5c-39 -33 -89 -53 -148 -53c-168 0 -281 113 -281 272zM179 262c0 -85 61 -154 144 -154c51 0 97 27 122 67c5 8 6 15 6 24v122c0 9 -1 17 -7 25c-25 39 -71 66 -121 66c-81 0 -144 -65 -144 -150z" />
    <glyph glyph-name="aogonek.ss01" horiz-adv-x="659" 
d="M573 3c-59 -39 -72 -74 -72 -105c0 -23 17 -37 37 -37c7 0 15 1 23 2c14 2 21 -4 21 -17v-35c0 -11 -5 -18 -16 -21c-17 -4 -35 -6 -52 -6c-64 0 -116 35 -116 107c0 58 45 99 104 125c-2 3 -4 6 -5 9l-5 13c-5 13 -15 15 -26 5c-39 -33 -89 -53 -148 -53
c-168 0 -281 113 -281 272c0 154 116 268 277 268c57 0 107 -18 148 -51c12 -9 22 -8 27 7l2 9c7 17 20 25 37 25h30c20 0 32 -12 32 -32v-456c0 -14 -6 -24 -17 -29zM451 199v122c0 9 -1 17 -7 25c-25 39 -71 66 -121 66c-81 0 -144 -65 -144 -150s61 -154 144 -154
c51 0 97 27 122 67c5 8 6 15 6 24z" />
    <glyph glyph-name="aring.ss01" horiz-adv-x="659" 
d="M324 570c-81 0 -126 51 -126 111c0 59 45 111 126 111c82 0 127 -52 127 -111c0 -60 -45 -111 -127 -111zM324 642c25 0 43 17 43 39c0 23 -18 41 -43 41s-42 -18 -41 -41c-1 -22 16 -39 41 -39zM37 262c0 154 116 268 277 268c57 0 107 -18 148 -51c12 -9 22 -8 27 7
l2 9c7 17 20 25 37 25h30c20 0 32 -12 32 -32v-456c0 -20 -12 -32 -32 -32h-24c-18 0 -30 8 -37 25l-5 13c-5 13 -15 15 -26 5c-39 -33 -89 -53 -148 -53c-168 0 -281 113 -281 272zM179 262c0 -85 61 -154 144 -154c51 0 97 27 122 67c5 8 6 15 6 24v122c0 9 -1 17 -7 25
c-25 39 -71 66 -121 66c-81 0 -144 -65 -144 -150z" />
    <glyph glyph-name="atilde.ss01" horiz-adv-x="659" 
d="M473 695c19 -3 28 -16 26 -36c-8 -52 -52 -82 -103 -82c-58 0 -96 35 -125 35c-16 0 -25 -8 -31 -16c-7 -12 -18 -16 -35 -13l-32 6c-19 4 -29 17 -26 37c10 54 48 86 97 85c52 -1 103 -36 134 -36c15 0 27 8 32 15c5 11 15 14 32 11zM37 262c0 154 116 268 277 268
c57 0 107 -18 148 -51c12 -9 22 -8 27 7l2 9c7 17 20 25 37 25h30c20 0 32 -12 32 -32v-456c0 -20 -12 -32 -32 -32h-24c-18 0 -30 8 -37 25l-5 13c-5 13 -15 15 -26 5c-39 -33 -89 -53 -148 -53c-168 0 -281 113 -281 272zM179 262c0 -85 61 -154 144 -154
c51 0 97 27 122 67c5 8 6 15 6 24v122c0 9 -1 17 -7 25c-25 39 -71 66 -121 66c-81 0 -144 -65 -144 -150z" />
    <glyph glyph-name="k.ss01" horiz-adv-x="614" 
d="M101 0c-20 0 -32 12 -32 32v716c0 20 12 32 32 32h75c20 0 31 -12 31 -32v-424c0 -17 13 -22 25 -9l174 187c11 13 23 18 39 18h82c28 0 36 -18 17 -39l-158 -164c-8 -9 -9 -19 -2 -29l111 -155c7 -11 17 -16 30 -16h48c20 0 32 -11 32 -32v-53c0 -20 -12 -32 -32 -32
h-130c-12 0 -22 6 -29 16l-115 178c-7 11 -18 13 -27 2l-55 -56c-7 -7 -10 -15 -10 -24v-84c0 -20 -11 -32 -31 -32h-75z" />
    <glyph glyph-name="kcommaaccent.ss01" horiz-adv-x="614" 
d="M101 0c-20 0 -32 12 -32 32v716c0 20 12 32 32 32h75c20 0 31 -12 31 -32v-424c0 -17 13 -22 25 -9l174 187c11 13 23 18 39 18h82c28 0 36 -18 17 -39l-158 -164c-8 -9 -9 -19 -2 -29l111 -155c7 -11 17 -16 30 -16h48c20 0 32 -11 32 -32v-53c0 -20 -12 -32 -32 -32
h-130c-12 0 -22 6 -29 16l-115 178c-7 11 -18 13 -27 2l-55 -56c-7 -7 -10 -15 -10 -24v-84c0 -20 -11 -32 -31 -32h-75zM250 -62c2 20 14 29 33 29h58c22 0 33 -13 26 -36l-47 -150c-5 -17 -18 -26 -36 -26h-29c-22 0 -33 13 -29 34z" />
    <glyph glyph-name="l.ss01" horiz-adv-x="363" 
d="M65 175v573c0 20 12 32 32 32h75c20 0 32 -12 32 -32v-570c0 -42 14 -66 55 -66c17 0 36 2 53 7c21 6 34 -1 37 -23l6 -53c2 -18 -5 -33 -23 -38c-28 -9 -64 -15 -99 -15c-92 0 -168 47 -168 185z" />
    <glyph glyph-name="lacute.ss01" horiz-adv-x="363" 
d="M215 986c20 7 35 0 40 -20l15 -62c5 -20 -4 -33 -25 -36l-196 -31c-19 -2 -32 4 -39 23l-4 17c-6 19 0 33 20 40zM65 175v573c0 20 12 32 32 32h75c20 0 32 -12 32 -32v-570c0 -42 14 -66 55 -66c17 0 36 2 53 7c21 6 34 -1 37 -23l6 -53c2 -18 -5 -33 -23 -38
c-28 -9 -64 -15 -99 -15c-92 0 -168 47 -168 185z" />
    <glyph glyph-name="lcaron.ss01" horiz-adv-x="363" 
d="M317 646c19 0 31 10 34 29l32 173c4 22 -7 35 -28 35h-52c-20 0 -31 -11 -33 -30l-17 -173c-2 -21 9 -34 30 -34h34zM65 175v573c0 20 12 32 32 32h75c20 0 32 -12 32 -32v-570c0 -42 14 -66 55 -66c17 0 36 2 53 7c21 6 34 -1 37 -23l6 -53c2 -18 -5 -33 -23 -38
c-28 -9 -64 -15 -99 -15c-92 0 -168 47 -168 185z" />
    <glyph glyph-name="lcommaaccent.ss01" horiz-adv-x="363" 
d="M65 175v573c0 20 12 32 32 32h75c20 0 32 -12 32 -32v-570c0 -42 14 -66 55 -66c17 0 36 2 53 7c21 6 34 -1 37 -23l6 -53c2 -18 -5 -33 -23 -38c-28 -9 -64 -15 -99 -15c-92 0 -168 47 -168 185zM145 -62c2 20 14 29 33 29h58c22 0 33 -13 26 -36l-47 -150
c-5 -17 -18 -26 -36 -26h-29c-22 0 -33 13 -29 34z" />
    <glyph glyph-name="ldot.ss01" horiz-adv-x="408" 
d="M65 175v573c0 20 12 32 32 32h75c20 0 32 -12 32 -32v-570c0 -42 14 -66 55 -66c17 0 36 2 53 7c21 6 34 -1 37 -23l6 -53c2 -18 -5 -33 -23 -38c-28 -9 -64 -15 -99 -15c-92 0 -168 47 -168 185zM335 264c-46 0 -83 38 -83 86c0 43 37 80 83 80s83 -37 83 -80
c0 -48 -37 -86 -83 -86z" />
    <glyph glyph-name="lslash.ss01" horiz-adv-x="363" 
d="M355 43c2 -18 -5 -33 -23 -38c-28 -9 -64 -15 -99 -15c-92 0 -168 47 -168 185v150l-45 -17c-18 -7 -32 0 -38 18l-9 28c-6 19 -1 32 18 39l74 28v327c0 20 12 32 32 32h75c20 0 32 -12 32 -32v-275l52 19c18 7 31 1 38 -17l10 -27c8 -19 1 -31 -17 -38l-83 -32v-200
c0 -42 14 -66 55 -66c17 0 36 2 53 7c21 6 34 -1 37 -23z" />
    <glyph glyph-name="t.ss01" horiz-adv-x="543" 
d="M54 403c-19 0 -31 12 -31 32v53c0 20 12 32 32 32h24c12 0 20 8 20 20v66c0 19 9 31 27 35l71 18c22 6 35 -6 35 -27v-92c0 -12 8 -20 20 -20h191c20 0 32 -12 32 -32v-53c0 -20 -12 -32 -32 -32h-191c-12 0 -20 -8 -20 -20v-164c0 -75 38 -111 85 -111c44 0 77 23 94 61
c8 16 18 26 37 26h66c21 0 33 -13 30 -34c-20 -106 -99 -171 -219 -171c-132 0 -231 78 -231 229v164c0 12 -8 20 -20 20h-20z" />
    <glyph glyph-name="tbar.ss01" horiz-adv-x="543" 
d="M514 195c21 0 33 -13 30 -34c-20 -106 -99 -171 -219 -171c-132 0 -231 78 -231 229v22h-37c-20 0 -32 12 -32 32v43c0 20 12 32 32 32h37v35c0 12 -8 20 -20 20h-20c-19 0 -31 12 -31 32v53c0 20 12 32 32 32h24c12 0 20 8 20 20v66c0 19 9 31 27 35l71 18
c22 6 35 -6 35 -27v-92c0 -12 8 -20 20 -20h191c20 0 32 -12 32 -32v-53c0 -20 -12 -32 -32 -32h-191c-12 0 -20 -8 -20 -20v-35h120c20 0 32 -12 32 -32v-43c0 -20 -12 -32 -32 -32h-120v-22c0 -75 38 -111 85 -111c44 0 77 23 94 61c8 16 18 26 37 26h66z" />
    <glyph glyph-name="tcaron.ss01" horiz-adv-x="543" 
d="M354 586c19 0 31 10 34 29l32 173c4 22 -7 35 -28 35h-52c-20 0 -31 -11 -33 -30l-17 -173c-2 -21 9 -34 30 -34h34zM54 403c-19 0 -31 12 -31 32v53c0 20 12 32 32 32h24c12 0 20 8 20 20v66c0 19 9 31 27 35l71 18c22 6 35 -6 35 -27v-92c0 -12 8 -20 20 -20h191
c20 0 32 -12 32 -32v-53c0 -20 -12 -32 -32 -32h-191c-12 0 -20 -8 -20 -20v-164c0 -75 38 -111 85 -111c44 0 77 23 94 61c8 16 18 26 37 26h66c21 0 33 -13 30 -34c-20 -106 -99 -171 -219 -171c-132 0 -231 78 -231 229v164c0 12 -8 20 -20 20h-20z" />
    <glyph glyph-name="uni0163.ss01" horiz-adv-x="543" 
d="M514 195c21 0 33 -13 30 -34c-19 -100 -90 -163 -198 -170l-2 -7c-3 -12 3 -19 16 -21c41 -7 74 -34 74 -84c0 -65 -59 -99 -132 -99c-32 0 -63 7 -86 19c-15 8 -17 22 -9 37l3 8c8 16 20 18 37 13c13 -5 27 -7 43 -7c27 0 40 10 40 28s-14 29 -40 29h-16
c-19 0 -29 13 -23 32l18 56c-103 20 -175 95 -175 224v164c0 12 -8 20 -20 20h-20c-19 0 -31 12 -31 32v53c0 20 12 32 32 32h24c12 0 20 8 20 20v66c0 19 9 31 27 35l71 18c22 6 35 -6 35 -27v-92c0 -12 8 -20 20 -20h191c20 0 32 -12 32 -32v-53c0 -20 -12 -32 -32 -32
h-191c-12 0 -20 -8 -20 -20v-164c0 -75 38 -111 85 -111c44 0 77 23 94 61c8 16 18 26 37 26h66z" />
    <glyph glyph-name="uni021B.ss01" horiz-adv-x="543" 
d="M54 403c-19 0 -31 12 -31 32v53c0 20 12 32 32 32h24c12 0 20 8 20 20v66c0 19 9 31 27 35l71 18c22 6 35 -6 35 -27v-92c0 -12 8 -20 20 -20h191c20 0 32 -12 32 -32v-53c0 -20 -12 -32 -32 -32h-191c-12 0 -20 -8 -20 -20v-164c0 -75 38 -111 85 -111c44 0 77 23 94 61
c8 16 18 26 37 26h66c21 0 33 -13 30 -34c-20 -106 -99 -171 -219 -171c-132 0 -231 78 -231 229v164c0 12 -8 20 -20 20h-20zM254 -62c2 20 14 29 33 29h58c22 0 33 -13 26 -36l-47 -150c-5 -17 -18 -26 -36 -26h-29c-22 0 -33 13 -29 34z" />
    <glyph glyph-name="u.ss01" horiz-adv-x="613" 
d="M63 214v274c0 20 12 32 32 32h75c20 0 31 -12 31 -32v-279c0 -58 42 -98 106 -97c64 0 105 39 105 97v279c0 20 12 32 32 32h75c20 0 32 -12 32 -32v-274c0 -134 -102 -224 -244 -224s-244 90 -244 224z" />
    <glyph glyph-name="uacute.ss01" horiz-adv-x="613" 
d="M370 764c18 11 34 7 43 -12l27 -57c9 -19 3 -33 -17 -41l-185 -70c-19 -6 -33 -2 -43 15l-8 16c-9 17 -6 32 12 43zM63 214v274c0 20 12 32 32 32h75c20 0 31 -12 31 -32v-279c0 -58 42 -98 106 -97c64 0 105 39 105 97v279c0 20 12 32 32 32h75c20 0 32 -12 32 -32v-274
c0 -134 -102 -224 -244 -224s-244 90 -244 224z" />
    <glyph glyph-name="ucircumflex.ss01" horiz-adv-x="613" 
d="M133 638c-8 17 -4 33 12 41l133 71c19 10 36 11 55 1l140 -72c17 -8 21 -24 12 -41l-9 -18c-8 -17 -22 -22 -39 -16l-104 36c-19 7 -35 6 -53 0l-98 -35c-17 -6 -32 -2 -40 15zM63 214v274c0 20 12 32 32 32h75c20 0 31 -12 31 -32v-279c0 -58 42 -98 106 -97
c64 0 105 39 105 97v279c0 20 12 32 32 32h75c20 0 32 -12 32 -32v-274c0 -134 -102 -224 -244 -224s-244 90 -244 224z" />
    <glyph glyph-name="udieresis.ss01" horiz-adv-x="613" 
d="M198 598c-42 0 -76 34 -76 79c0 41 34 75 76 75s78 -34 78 -75c0 -45 -36 -79 -78 -79zM414 598c-41 0 -77 34 -77 79c0 41 36 75 77 75c43 0 78 -34 78 -75c0 -45 -35 -79 -78 -79zM63 214v274c0 20 12 32 32 32h75c20 0 31 -12 31 -32v-279c0 -58 42 -98 106 -97
c64 0 105 39 105 97v279c0 20 12 32 32 32h75c20 0 32 -12 32 -32v-274c0 -134 -102 -224 -244 -224s-244 90 -244 224z" />
    <glyph glyph-name="ugrave.ss01" horiz-adv-x="613" 
d="M203 754c9 20 25 23 43 12l173 -106c17 -11 21 -26 12 -44l-9 -15c-9 -17 -24 -22 -42 -16l-187 71c-20 8 -26 22 -17 42zM63 214v274c0 20 12 32 32 32h75c20 0 31 -12 31 -32v-279c0 -58 42 -98 106 -97c64 0 105 39 105 97v279c0 20 12 32 32 32h75
c20 0 32 -12 32 -32v-274c0 -134 -102 -224 -244 -224s-244 90 -244 224z" />
    <glyph glyph-name="uhungarumlaut.ss01" horiz-adv-x="613" 
d="M191 713c6 16 19 24 37 24h66c25 0 34 -17 20 -38l-57 -89c-9 -14 -21 -21 -38 -21h-38c-24 0 -33 15 -25 36zM376 713c6 16 19 24 37 24h66c26 0 34 -17 21 -38l-57 -89c-9 -14 -21 -21 -38 -21h-39c-24 0 -33 15 -25 36zM63 214v274c0 20 12 32 32 32h75
c20 0 31 -12 31 -32v-279c0 -58 42 -98 106 -97c64 0 105 39 105 97v279c0 20 12 32 32 32h75c20 0 32 -12 32 -32v-274c0 -134 -102 -224 -244 -224s-244 90 -244 224z" />
    <glyph glyph-name="umacron.ss01" horiz-adv-x="613" 
d="M150 673c0 20 12 32 32 32h248c20 0 32 -12 32 -32v-37c0 -21 -12 -32 -32 -32h-248c-20 0 -32 11 -32 32v37zM63 214v274c0 20 12 32 32 32h75c20 0 31 -12 31 -32v-279c0 -58 42 -98 106 -97c64 0 105 39 105 97v279c0 20 12 32 32 32h75c20 0 32 -12 32 -32v-274
c0 -134 -102 -224 -244 -224s-244 90 -244 224z" />
    <glyph glyph-name="uogonek.ss01" horiz-adv-x="613" 
d="M519 520c20 0 32 -12 32 -32v-274c0 -111 -70 -192 -174 -216c-58 -38 -71 -74 -71 -104c0 -23 17 -37 37 -37c7 0 15 1 23 2c14 2 21 -4 21 -17v-35c0 -11 -5 -18 -16 -21c-17 -4 -35 -6 -52 -6c-64 0 -116 35 -116 107c0 45 27 80 67 105c-123 15 -207 100 -207 222
v274c0 20 12 32 32 32h75c20 0 31 -12 31 -32v-279c0 -58 42 -98 106 -97c64 0 105 39 105 97v279c0 20 12 32 32 32h75z" />
    <glyph glyph-name="uring.ss01" horiz-adv-x="613" 
d="M305 570c-81 0 -126 51 -126 111c0 59 45 111 126 111c82 0 127 -52 127 -111c0 -60 -45 -111 -127 -111zM305 642c25 0 43 17 43 39c0 23 -18 41 -43 41s-42 -18 -41 -41c-1 -22 16 -39 41 -39zM63 214v274c0 20 12 32 32 32h75c20 0 31 -12 31 -32v-279
c0 -58 42 -98 106 -97c64 0 105 39 105 97v279c0 20 12 32 32 32h75c20 0 32 -12 32 -32v-274c0 -134 -102 -224 -244 -224s-244 90 -244 224z" />
    <glyph glyph-name="utilde.ss01" horiz-adv-x="613" 
d="M454 695c19 -3 28 -16 26 -36c-8 -52 -52 -82 -103 -82c-58 0 -96 35 -125 35c-16 0 -25 -8 -31 -16c-7 -12 -18 -16 -35 -13l-32 6c-19 4 -29 17 -26 37c10 54 48 86 97 85c52 -1 103 -36 134 -36c15 0 27 8 32 15c5 11 15 14 32 11zM63 214v274c0 20 12 32 32 32h75
c20 0 31 -12 31 -32v-279c0 -58 42 -98 106 -97c64 0 105 39 105 97v279c0 20 12 32 32 32h75c20 0 32 -12 32 -32v-274c0 -134 -102 -224 -244 -224s-244 90 -244 224z" />
    <glyph glyph-name="w.ss01" horiz-adv-x="810" 
d="M18 484c-7 22 4 36 27 36h70c19 0 31 -8 36 -27l88 -327c5 -17 19 -18 25 -1l89 234c5 11 5 19 1 30l-18 55c-6 22 4 36 26 36h52c18 0 30 -9 35 -27l101 -324c5 -18 19 -19 24 0l88 324c4 19 16 27 35 27h68c23 0 34 -14 27 -36l-147 -456c-6 -18 -19 -28 -38 -28h-85
c-19 0 -32 9 -38 28l-59 181c-7 20 -23 21 -31 0l-72 -182c-7 -18 -20 -27 -39 -27h-81c-20 0 -33 10 -39 28z" />
    <glyph glyph-name="wacute.ss01" horiz-adv-x="810" 
d="M469 764c18 11 34 7 43 -12l27 -57c9 -19 3 -33 -17 -41l-185 -70c-19 -6 -33 -2 -43 15l-8 16c-9 17 -6 32 12 43zM18 484c-7 22 4 36 27 36h70c19 0 31 -8 36 -27l88 -327c5 -17 19 -18 25 -1l89 234c5 11 5 19 1 30l-18 55c-6 22 4 36 26 36h52c18 0 30 -9 35 -27
l101 -324c5 -18 19 -19 24 0l88 324c4 19 16 27 35 27h68c23 0 34 -14 27 -36l-147 -456c-6 -18 -19 -28 -38 -28h-85c-19 0 -32 9 -38 28l-59 181c-7 20 -23 21 -31 0l-72 -182c-7 -18 -20 -27 -39 -27h-81c-20 0 -33 10 -39 28z" />
    <glyph glyph-name="wcircumflex.ss01" horiz-adv-x="810" 
d="M232 638c-8 17 -4 33 12 41l133 71c19 10 36 11 55 1l140 -72c17 -8 21 -24 12 -41l-9 -18c-8 -17 -22 -22 -39 -16l-104 36c-19 7 -35 6 -53 0l-98 -35c-17 -6 -32 -2 -40 15zM18 484c-7 22 4 36 27 36h70c19 0 31 -8 36 -27l88 -327c5 -17 19 -18 25 -1l89 234
c5 11 5 19 1 30l-18 55c-6 22 4 36 26 36h52c18 0 30 -9 35 -27l101 -324c5 -18 19 -19 24 0l88 324c4 19 16 27 35 27h68c23 0 34 -14 27 -36l-147 -456c-6 -18 -19 -28 -38 -28h-85c-19 0 -32 9 -38 28l-59 181c-7 20 -23 21 -31 0l-72 -182c-7 -18 -20 -27 -39 -27h-81
c-20 0 -33 10 -39 28z" />
    <glyph glyph-name="wdieresis.ss01" horiz-adv-x="810" 
d="M297 598c-42 0 -76 34 -76 79c0 41 34 75 76 75s78 -34 78 -75c0 -45 -36 -79 -78 -79zM513 598c-41 0 -77 34 -77 79c0 41 36 75 77 75c43 0 78 -34 78 -75c0 -45 -35 -79 -78 -79zM18 484c-7 22 4 36 27 36h70c19 0 31 -8 36 -27l88 -327c5 -17 19 -18 25 -1l89 234
c5 11 5 19 1 30l-18 55c-6 22 4 36 26 36h52c18 0 30 -9 35 -27l101 -324c5 -18 19 -19 24 0l88 324c4 19 16 27 35 27h68c23 0 34 -14 27 -36l-147 -456c-6 -18 -19 -28 -38 -28h-85c-19 0 -32 9 -38 28l-59 181c-7 20 -23 21 -31 0l-72 -182c-7 -18 -20 -27 -39 -27h-81
c-20 0 -33 10 -39 28z" />
    <glyph glyph-name="wgrave.ss01" horiz-adv-x="810" 
d="M302 754c9 20 25 23 43 12l173 -106c17 -11 21 -26 12 -44l-9 -15c-9 -17 -24 -22 -42 -16l-187 71c-20 8 -26 22 -17 42zM18 484c-7 22 4 36 27 36h70c19 0 31 -8 36 -27l88 -327c5 -17 19 -18 25 -1l89 234c5 11 5 19 1 30l-18 55c-6 22 4 36 26 36h52
c18 0 30 -9 35 -27l101 -324c5 -18 19 -19 24 0l88 324c4 19 16 27 35 27h68c23 0 34 -14 27 -36l-147 -456c-6 -18 -19 -28 -38 -28h-85c-19 0 -32 9 -38 28l-59 181c-7 20 -23 21 -31 0l-72 -182c-7 -18 -20 -27 -39 -27h-81c-20 0 -33 10 -39 28z" />
    <glyph glyph-name="y.ss01" horiz-adv-x="571" 
d="M18 484c-8 22 2 36 25 36h86c18 0 31 -9 36 -26l109 -339c6 -18 20 -18 26 0l107 339c6 18 18 26 36 26h85c23 0 33 -14 25 -36l-254 -679c-6 -17 -18 -25 -37 -25h-67c-24 0 -34 15 -25 37l75 183h-17c-16 0 -27 7 -33 23z" />
    <glyph glyph-name="yacute.ss01" horiz-adv-x="571" 
d="M351 764c18 11 34 7 43 -12l27 -57c9 -19 3 -33 -17 -41l-185 -70c-19 -6 -33 -2 -43 15l-8 16c-9 17 -6 32 12 43zM18 484c-8 22 2 36 25 36h86c18 0 31 -9 36 -26l109 -339c6 -18 20 -18 26 0l107 339c6 18 18 26 36 26h85c23 0 33 -14 25 -36l-254 -679
c-6 -17 -18 -25 -37 -25h-67c-24 0 -34 15 -25 37l75 183h-17c-16 0 -27 7 -33 23z" />
    <glyph glyph-name="ycircumflex.ss01" horiz-adv-x="571" 
d="M114 638c-8 17 -4 33 12 41l133 71c19 10 36 11 55 1l140 -72c17 -8 21 -24 12 -41l-9 -18c-8 -17 -22 -22 -39 -16l-104 36c-19 7 -35 6 -53 0l-98 -35c-17 -6 -32 -2 -40 15zM18 484c-8 22 2 36 25 36h86c18 0 31 -9 36 -26l109 -339c6 -18 20 -18 26 0l107 339
c6 18 18 26 36 26h85c23 0 33 -14 25 -36l-254 -679c-6 -17 -18 -25 -37 -25h-67c-24 0 -34 15 -25 37l75 183h-17c-16 0 -27 7 -33 23z" />
    <glyph glyph-name="ydieresis.ss01" horiz-adv-x="571" 
d="M179 598c-42 0 -76 34 -76 79c0 41 34 75 76 75s78 -34 78 -75c0 -45 -36 -79 -78 -79zM395 598c-41 0 -77 34 -77 79c0 41 36 75 77 75c43 0 78 -34 78 -75c0 -45 -35 -79 -78 -79zM18 484c-8 22 2 36 25 36h86c18 0 31 -9 36 -26l109 -339c6 -18 20 -18 26 0l107 339
c6 18 18 26 36 26h85c23 0 33 -14 25 -36l-254 -679c-6 -17 -18 -25 -37 -25h-67c-24 0 -34 15 -25 37l75 183h-17c-16 0 -27 7 -33 23z" />
    <glyph glyph-name="ygrave.ss01" horiz-adv-x="571" 
d="M184 754c9 20 25 23 43 12l173 -106c17 -11 21 -26 12 -44l-9 -15c-9 -17 -24 -22 -42 -16l-187 71c-20 8 -26 22 -17 42zM18 484c-8 22 2 36 25 36h86c18 0 31 -9 36 -26l109 -339c6 -18 20 -18 26 0l107 339c6 18 18 26 36 26h85c23 0 33 -14 25 -36l-254 -679
c-6 -17 -18 -25 -37 -25h-67c-24 0 -34 15 -25 37l75 183h-17c-16 0 -27 7 -33 23z" />
    <glyph glyph-name="uni1EF9.ss01" horiz-adv-x="571" 
d="M435 695c19 -3 28 -16 26 -36c-8 -52 -52 -82 -103 -82c-58 0 -96 35 -125 35c-16 0 -25 -8 -31 -16c-7 -12 -18 -16 -35 -13l-32 6c-19 4 -29 17 -26 37c10 54 48 86 97 85c52 -1 103 -36 134 -36c15 0 27 8 32 15c5 11 15 14 32 11zM18 484c-8 22 2 36 25 36h86
c18 0 31 -9 36 -26l109 -339c6 -18 20 -18 26 0l107 339c6 18 18 26 36 26h85c23 0 33 -14 25 -36l-254 -679c-6 -17 -18 -25 -37 -25h-67c-24 0 -34 15 -25 37l75 183h-17c-16 0 -27 7 -33 23z" />
    <glyph glyph-name="ordfeminine" unicode="&#xaa;" horiz-adv-x="454" 
d="M36 574c0 103 74 166 164 166c41 0 78 -12 106 -35c5 -4 9 -2 11 3v3c6 16 18 24 35 24h8c19 0 30 -11 30 -30v-264c0 -19 -11 -30 -30 -30h-4c-17 0 -29 8 -36 23l-2 5c-2 5 -5 7 -9 3c-28 -23 -63 -37 -106 -37c-93 0 -167 65 -167 169zM139 574c0 -47 32 -80 77 -80
c31 0 54 15 70 37c7 9 8 18 8 29v25c0 11 -1 20 -8 29c-16 23 -42 37 -70 37c-45 0 -77 -30 -77 -77z" />
    <glyph glyph-name="ordmasculine" unicode="&#xba;" horiz-adv-x="439" 
d="M219 740c111 0 185 -67 185 -166c0 -103 -74 -172 -185 -172c-110 0 -184 69 -184 172c0 99 74 166 184 166zM219 496c45 0 74 31 74 75s-29 74 -74 74c-44 0 -73 -30 -73 -74s29 -75 73 -75z" />
    <glyph glyph-name="zero" unicode="0" horiz-adv-x="767" 
d="M49 370c0 217 133 370 335 370s335 -153 335 -370c0 -224 -133 -380 -335 -380s-335 156 -335 380zM196 365c0 -146 74 -245 188 -245c113 0 188 99 188 245s-75 245 -188 245c-114 0 -188 -99 -188 -245z" />
    <glyph glyph-name="one" unicode="1" horiz-adv-x="500" 
d="M83 494c-21 -3 -33 10 -33 31v60c0 19 10 30 29 34c64 12 133 46 173 92c11 13 23 19 39 19h23c21 0 32 -12 32 -32v-544c0 -22 13 -35 35 -35h66c20 0 32 -12 32 -32v-55c0 -20 -12 -32 -32 -32h-357c-20 0 -32 12 -32 32v55c0 20 12 32 32 32h79c22 0 35 13 35 35v341
c0 23 -13 32 -33 24c-27 -13 -57 -21 -88 -25z" />
    <glyph glyph-name="two" unicode="2" horiz-adv-x="639" 
d="M74 494c-21 0 -34 12 -30 34c20 128 126 212 265 212c173 0 259 -95 259 -216c1 -127 -86 -195 -175 -285l-89 -89c-15 -17 -9 -31 13 -31h251c20 0 32 -12 32 -32v-55c0 -20 -12 -32 -32 -32h-484c-20 0 -32 12 -32 32v16c0 16 6 28 17 39l228 228
c90 88 126 133 126 198c0 58 -42 104 -114 104c-62 0 -111 -38 -126 -94c-6 -18 -17 -29 -36 -29h-73z" />
    <glyph glyph-name="three" unicode="3" horiz-adv-x="661" 
d="M46 183c-7 22 5 36 27 36h82c18 0 28 -9 36 -26c21 -50 66 -79 142 -79c82 0 134 46 133 104c0 60 -49 95 -146 95h-34c-20 0 -32 12 -32 32v46c0 20 12 32 32 32h34c73 0 121 39 121 96c0 58 -45 97 -112 98c-71 0 -111 -33 -129 -77c-7 -18 -17 -26 -36 -26h-74
c-22 0 -34 13 -28 35c28 109 121 191 267 191c161 0 258 -82 258 -210c-1 -57 -27 -106 -72 -140c-15 -11 -14 -20 3 -27c63 -29 94 -84 94 -158c0 -143 -137 -215 -279 -215c-160 0 -251 76 -287 193z" />
    <glyph glyph-name="four" unicode="4" horiz-adv-x="654" 
d="M54 135c-20 0 -32 12 -32 32v29c0 16 4 27 13 40c102 147 194 304 200 464c1 21 11 32 31 32h76c20 0 33 -11 31 -32c-8 -145 -77 -290 -167 -415c-13 -19 -5 -35 18 -35h129c19 0 30 12 30 31v146c0 20 12 32 32 32h72c20 0 32 -12 32 -32v-146c0 -19 11 -31 31 -31h50
c20 0 32 -11 32 -31v-52c0 -20 -12 -32 -32 -32h-50c-20 0 -31 -11 -31 -30v-81c0 -20 -12 -32 -32 -32h-72c-20 0 -32 12 -32 32v81c0 19 -11 30 -30 30h-299z" />
    <glyph glyph-name="five" unicode="5" horiz-adv-x="618" 
d="M40 183c-8 22 4 36 27 36h80c18 0 29 -8 36 -26c21 -49 71 -80 126 -80c63 0 127 40 127 117c0 67 -47 115 -128 115h-177c-35 0 -55 20 -55 56v288c0 26 14 41 40 41h373c20 0 32 -12 32 -32v-62c0 -20 -12 -32 -32 -32h-258c-23 0 -35 -13 -35 -35v-81
c0 -18 10 -28 28 -28h88c173 0 269 -91 270 -230c0 -146 -111 -240 -273 -240c-144 0 -232 82 -269 193z" />
    <glyph glyph-name="six" unicode="6" horiz-adv-x="678" 
d="M50 361c0 262 144 379 305 379c139 0 227 -81 257 -189c6 -22 -6 -35 -28 -35h-79c-18 0 -28 8 -36 25c-19 43 -55 76 -114 76c-89 0 -161 -69 -171 -204c0 -9 0 -16 1 -23c3 -13 13 -17 28 -3c45 38 105 56 176 56c147 0 242 -92 242 -218c0 -137 -112 -235 -274 -235
c-192 0 -307 146 -307 371zM212 241c-7 -17 -6 -30 3 -45c26 -51 71 -82 143 -82c75 0 131 48 131 111s-51 108 -122 108c-69 0 -129 -35 -155 -92z" />
    <glyph glyph-name="seven" unicode="7" horiz-adv-x="569" 
d="M54 604c-20 0 -32 12 -32 32v62c0 20 12 32 32 32h450c22 0 35 -10 39 -31l5 -19c4 -18 0 -32 -11 -47c-156 -187 -220 -339 -231 -601c-1 -21 -12 -32 -32 -32h-92c-20 0 -32 12 -31 33c12 213 74 387 191 539c14 18 6 32 -16 32h-272z" />
    <glyph glyph-name="eight" unicode="8" horiz-adv-x="682" 
d="M45 215c0 63 31 119 85 153c23 15 23 29 6 46c-32 32 -54 72 -54 118c0 129 102 208 259 208c156 0 260 -79 260 -208c0 -46 -22 -87 -55 -118c-17 -17 -17 -31 3 -46c52 -37 88 -90 88 -153c0 -135 -118 -225 -296 -225s-296 90 -296 225zM222 532c0 -56 46 -97 119 -97
c72 0 119 41 119 97c0 55 -51 98 -119 98c-70 0 -119 -43 -119 -98zM188 218c0 -66 61 -114 153 -114c91 0 154 48 154 114s-61 115 -154 115s-153 -49 -153 -115z" />
    <glyph glyph-name="nine" unicode="9" horiz-adv-x="675" 
d="M624 377c0 -259 -110 -387 -306 -387c-130 0 -220 80 -255 193c-7 22 5 36 27 36h76c18 0 28 -9 36 -27c20 -50 67 -79 123 -79c85 0 142 58 160 173l3 21c4 27 -12 30 -29 15c-43 -36 -98 -56 -163 -56c-151 0 -245 105 -245 229c0 153 113 245 270 245
c180 0 303 -117 303 -363zM192 499c0 -60 42 -117 126 -117c66 0 124 37 148 89c7 17 6 31 -3 48c-29 63 -81 97 -142 97c-79 0 -129 -46 -129 -117z" />
    <glyph glyph-name="zero.zero" horiz-adv-x="767" 
d="M384 740c202 0 335 -153 335 -370c0 -224 -133 -380 -335 -380s-335 156 -335 380c0 217 133 370 335 370zM384 610c-114 0 -188 -99 -188 -245c0 -56 11 -105 31 -144l241 367c-25 14 -53 22 -84 22zM384 120c113 0 188 99 188 245c0 65 -15 120 -41 162l-245 -377
c27 -19 61 -30 98 -30z" />
    <glyph glyph-name="fraction" unicode="&#x2044;" horiz-adv-x="369" 
d="M36 -10c-30 0 -42 18 -32 47l252 664c8 22 22 32 45 32h34c29 0 42 -18 31 -46l-252 -665c-8 -22 -22 -32 -45 -32h-33z" />
    <glyph glyph-name="onehalf" unicode="&#xbd;" horiz-adv-x="826" 
d="M42 409v22c0 20 12 32 32 32h26c13 0 20 7 20 20v98c0 8 -5 11 -13 7c-9 -5 -19 -9 -28 -11c-21 -8 -34 6 -34 28v27c0 19 9 28 27 35c25 8 48 24 74 47c12 12 23 16 39 16h7c20 0 31 -12 31 -32v-215c0 -13 7 -20 20 -20h24c20 0 31 -12 31 -32v-22
c0 -20 -11 -32 -31 -32h-193c-20 0 -32 12 -32 32zM152 152l459 489c14 15 30 16 44 2l30 -27c15 -15 15 -30 2 -45l-459 -495c-15 -15 -30 -15 -45 0l-30 30c-14 15 -14 31 -1 46zM500 30c0 15 5 24 17 35l108 101c45 42 58 59 58 77c0 26 -18 39 -44 39
c-23 0 -37 -11 -45 -27c-8 -17 -17 -27 -35 -27h-32c-22 0 -35 13 -28 34c17 62 67 103 140 103c94 0 141 -50 141 -107c0 -53 -26 -85 -91 -138l-22 -19c-7 -7 -4 -13 6 -13h87c20 0 32 -12 32 -32v-24c0 -20 -12 -32 -32 -32h-228c-20 0 -32 9 -32 25v5z" />
    <glyph glyph-name="onequarter" unicode="&#xbc;" horiz-adv-x="851" 
d="M80 377c-20 0 -32 12 -32 32v22c0 20 12 32 32 32h31c8 0 13 5 13 13v105c0 8 -5 12 -12 8c-9 -5 -18 -9 -27 -11c-21 -7 -34 6 -34 28v26c0 19 9 28 27 35c25 8 48 24 74 47c12 11 22 16 38 16h7c20 0 31 -12 31 -32v-222c0 -8 5 -13 13 -13h32c20 0 32 -12 32 -32v-22
c0 -20 -12 -32 -32 -32h-193zM153 106c-14 14 -14 31 -1 46l459 490c13 14 30 15 44 2l30 -27c16 -14 16 -29 2 -45l-459 -494c-14 -15 -30 -15 -45 -1zM510 67c-20 0 -31 11 -31 31v8c0 15 4 26 13 39c52 66 78 120 85 185c2 20 12 31 32 31h38c21 0 33 -12 31 -33
c-7 -62 -34 -114 -73 -167c-6 -8 -3 -13 6 -13h41c6 0 11 4 11 10v37c0 20 12 32 32 32h37c20 0 32 -12 32 -32v-37c0 -6 4 -10 10 -10h15c21 0 32 -12 32 -32v-17c0 -20 -11 -32 -32 -32h-15c-6 0 -10 -4 -10 -11v-24c0 -20 -12 -32 -32 -32h-37c-20 0 -32 12 -32 32v24
c0 7 -5 11 -11 11h-142z" />
    <glyph glyph-name="threequarters" unicode="&#xbe;" horiz-adv-x="858" 
d="M42 448c-7 21 7 34 28 34h30c18 0 25 -9 36 -23c10 -15 30 -24 60 -24c36 0 62 14 62 43c0 25 -22 36 -70 36h-15c-20 0 -31 12 -31 29v8c0 19 12 29 30 29h16c33 0 53 17 53 41c0 25 -17 40 -46 40c-21 0 -38 -9 -47 -23c-11 -15 -19 -24 -37 -24h-27
c-22 0 -35 13 -29 34c18 55 69 92 140 92c97 0 143 -47 143 -106c0 -30 -14 -56 -37 -74c-7 -5 -6 -9 1 -13c31 -13 52 -38 52 -82c0 -67 -67 -109 -158 -109c-85 0 -137 37 -154 92zM176 109c-13 14 -14 30 0 45l458 490c14 14 30 15 45 2l31 -29c14 -14 15 -29 1 -45
l-459 -494c-15 -15 -30 -15 -45 -1zM511 67c-20 0 -32 11 -32 31v8c0 15 5 26 14 39c53 66 83 120 89 185c3 20 13 31 33 31h37c21 0 34 -12 31 -33c-7 -62 -34 -115 -74 -169c-5 -7 -2 -13 6 -13h43c7 0 11 5 11 11v38c0 20 12 32 32 32h37c20 0 32 -12 32 -32v-38
c0 -6 4 -11 11 -11h14c20 0 32 -11 32 -31v-16c0 -20 -12 -32 -32 -32h-14c-7 0 -11 -4 -11 -11v-24c0 -20 -12 -32 -32 -32h-37c-20 0 -32 12 -32 32v24c0 7 -4 11 -11 11h-147z" />
    <glyph glyph-name="asterisk" unicode="*" horiz-adv-x="355" 
d="M261 691c18 7 32 0 38 -18l2 -7c5 -18 -2 -31 -21 -36l-37 -11c-11 -3 -13 -12 -5 -20l31 -34c13 -14 13 -29 -1 -42l-6 -5c-14 -12 -28 -12 -41 3l-34 38c-7 8 -14 8 -21 0l-33 -38c-13 -15 -28 -16 -42 -3l-5 5c-15 13 -16 28 -2 42l32 34c8 8 6 17 -6 20l-35 11
c-19 5 -26 18 -22 36l2 6c5 19 20 25 38 19l31 -12c10 -3 18 3 18 13l-1 39c0 19 10 30 30 30h12c20 0 30 -11 30 -30l-1 -39c0 -10 8 -16 18 -13z" />
    <glyph glyph-name="backslash" unicode="\" horiz-adv-x="486" 
d="M445 27c9 -22 -1 -37 -24 -37h-50c-18 0 -30 7 -37 24l-294 682c-9 22 0 37 24 37h50c18 0 30 -7 37 -24z" />
    <glyph glyph-name="periodcentered" unicode="&#xb7;" horiz-adv-x="263" 
d="M131 250c-46 0 -83 38 -83 86c0 43 37 80 83 80s83 -37 83 -80c0 -48 -37 -86 -83 -86z" />
    <glyph glyph-name="bullet" unicode="&#x2022;" horiz-adv-x="429" 
d="M215 146c-81 0 -149 68 -149 154c0 76 68 144 149 144s149 -68 149 -144c0 -86 -68 -154 -149 -154z" />
    <glyph glyph-name="colon" unicode=":" horiz-adv-x="285" 
d="M142 320c-47 0 -84 39 -84 87c0 45 37 83 84 83s85 -38 85 -83c0 -48 -38 -87 -85 -87zM142 -10c-47 0 -84 39 -84 87c0 45 37 83 84 83s85 -38 85 -83c0 -48 -38 -87 -85 -87z" />
    <glyph glyph-name="comma" unicode="," horiz-adv-x="244" 
d="M63 119c3 19 15 30 34 30h63c22 0 32 -13 27 -36l-44 -188c-4 -19 -15 -28 -34 -28h-39c-21 0 -32 13 -29 34z" />
    <glyph glyph-name="ellipsis" unicode="&#x2026;" horiz-adv-x="795" 
d="M129 -10c-46 0 -84 39 -84 87c0 45 38 83 84 83c47 0 86 -38 86 -83c0 -48 -39 -87 -86 -87zM396 -10c-46 0 -84 39 -84 87c0 45 38 83 84 83c47 0 86 -38 86 -83c0 -48 -39 -87 -86 -87zM669 -10c-46 0 -84 39 -84 87c0 45 38 83 84 83c47 0 86 -38 86 -83
c0 -48 -39 -87 -86 -87z" />
    <glyph glyph-name="exclam" unicode="!" horiz-adv-x="284" 
d="M179 780c21 0 32 -11 31 -32l-15 -488c0 -21 -12 -31 -32 -31h-42c-20 0 -31 10 -32 31l-15 488c-1 21 10 32 31 32h74zM141 -10c-45 0 -82 38 -82 85c0 44 37 81 82 81c46 0 84 -37 84 -81c0 -47 -38 -85 -84 -85z" />
    <glyph glyph-name="exclamdown" unicode="&#xa1;" horiz-adv-x="272" 
d="M219 493c0 -44 -38 -81 -84 -81c-45 0 -82 37 -82 81c0 47 37 85 82 85c46 0 84 -38 84 -85zM173 -212h-74c-21 0 -32 11 -31 32l15 488c1 21 12 31 32 31h42c20 0 32 -10 32 -31l15 -488c1 -21 -10 -32 -31 -32z" />
    <glyph glyph-name="numbersign" unicode="#" horiz-adv-x="779" 
d="M34 207v41c0 20 12 31 32 31h96c18 0 28 10 31 28l11 65c3 20 -7 32 -27 32h-69c-20 0 -32 12 -32 32v40c0 20 12 32 32 32h91c18 0 29 9 32 27l21 128c3 20 14 29 33 29h53c22 0 33 -14 29 -35l-19 -117c-3 -20 7 -32 27 -32h83c18 0 29 9 32 27l21 128
c3 20 14 29 33 29h53c22 0 33 -14 29 -35l-19 -117c-4 -20 6 -32 26 -32h80c20 0 31 -12 31 -32v-40c0 -20 -11 -32 -31 -32h-101c-18 0 -29 -9 -32 -27l-11 -66c-3 -20 7 -32 27 -32h75c20 0 31 -11 31 -31v-41c0 -20 -11 -32 -31 -32h-97c-18 0 -29 -9 -32 -27l-19 -119
c-3 -20 -15 -29 -34 -29h-53c-22 0 -32 13 -29 34l18 109c4 21 -7 32 -27 32h-83c-18 0 -29 -9 -32 -27l-19 -119c-3 -20 -15 -29 -34 -29h-53c-21 0 -32 13 -28 34l17 109c4 21 -7 32 -27 32h-73c-20 0 -32 12 -32 32zM310 311c-3 -20 7 -32 27 -32h83c18 0 29 10 32 28
l11 65c3 20 -7 32 -27 32h-83c-18 0 -29 -9 -32 -27z" />
    <glyph glyph-name="period" unicode="." horiz-adv-x="259" 
d="M129 -10c-46 0 -84 39 -84 87c0 45 38 83 84 83c47 0 86 -38 86 -83c0 -48 -39 -87 -86 -87z" />
    <glyph glyph-name="question" unicode="?" horiz-adv-x="584" 
d="M63 514c-21 0 -33 14 -28 35c31 108 118 191 260 191c146 0 251 -81 251 -229c0 -121 -92 -192 -191 -227c-12 -4 -18 -11 -19 -23l-2 -19c-2 -20 -14 -29 -33 -29h-47c-20 0 -31 10 -33 30l-6 81c-3 29 12 45 40 51c97 19 148 65 148 135c0 62 -46 103 -108 103
c-60 0 -98 -30 -118 -74c-8 -17 -19 -25 -37 -25h-77zM195 75c0 44 36 81 82 81s84 -37 84 -81c0 -47 -38 -85 -84 -85s-82 38 -82 85z" />
    <glyph glyph-name="questiondown" unicode="&#xbf;" horiz-adv-x="578" 
d="M387 449c0 -44 -36 -81 -82 -81s-84 37 -84 81c0 47 38 85 84 85s82 -38 82 -85zM519 10c21 0 33 -14 28 -35c-31 -108 -118 -191 -260 -191c-146 0 -251 81 -251 229c0 121 92 192 191 227c12 4 18 11 19 23l2 19c2 20 14 29 33 29h47c20 0 31 -10 33 -30l6 -81
c3 -29 -12 -45 -40 -51c-97 -19 -148 -65 -148 -135c0 -62 46 -103 108 -103c60 0 98 30 118 74c8 17 19 25 37 25h77z" />
    <glyph glyph-name="quotedbl" unicode="&#x22;" horiz-adv-x="378" 
d="M123 780c18 0 27 -10 27 -27v-187c0 -17 -9 -27 -27 -27h-40c-17 0 -27 10 -27 27v187c0 17 10 27 27 27h40zM295 780c18 0 27 -10 27 -27v-187c0 -17 -9 -27 -27 -27h-40c-17 0 -27 10 -27 27v187c0 17 10 27 27 27h40z" />
    <glyph glyph-name="quotesingle" unicode="'" horiz-adv-x="206" 
d="M123 780c18 0 27 -10 27 -27v-187c0 -17 -9 -27 -27 -27h-40c-17 0 -27 10 -27 27v187c0 17 10 27 27 27h40z" />
    <glyph glyph-name="semicolon" unicode=";" horiz-adv-x="281" 
d="M144 318c-48 0 -87 40 -87 90c0 46 39 85 87 85s88 -39 88 -85c0 -50 -40 -90 -88 -90zM78 119c2 19 14 30 33 30h62c22 0 33 -13 28 -36l-44 -187c-5 -19 -16 -28 -35 -28h-38c-21 0 -32 13 -29 34z" />
    <glyph glyph-name="slash" unicode="/" horiz-adv-x="500" 
d="M64 -10c-24 0 -33 15 -24 37l294 682c7 17 19 24 37 24h64c24 0 34 -15 25 -37l-288 -682c-7 -17 -18 -24 -36 -24h-72z" />
    <glyph glyph-name="underscore" unicode="_" horiz-adv-x="555" 
d="M475 0c22 0 35 -13 35 -35v-41c0 -22 -13 -35 -35 -35h-395c-22 0 -35 13 -35 35v41c0 22 13 35 35 35h395z" />
    <glyph glyph-name="braceleft" unicode="{" horiz-adv-x="334" 
d="M222 434c0 -58 -38 -92 -57 -98c19 -6 57 -38 57 -97l1 -143c0 -47 14 -70 40 -79c20 -7 32 -16 32 -37v-50c0 -23 -13 -37 -36 -34c-88 9 -157 54 -158 165l-1 165c0 28 -14 42 -34 47c-22 6 -34 15 -34 36v54c0 22 12 31 34 36c20 6 34 19 34 49l1 165
c1 106 66 155 158 164c23 2 36 -12 36 -35v-50c0 -21 -12 -30 -32 -36c-29 -9 -40 -33 -40 -78z" />
    <glyph glyph-name="braceright" unicode="}" horiz-adv-x="334" 
d="M111 578c0 45 -11 69 -39 78c-20 7 -32 15 -32 37v49c0 23 13 37 36 35c91 -9 157 -58 158 -164l1 -165c0 -29 13 -43 34 -48c21 -6 33 -15 33 -36v-55c0 -22 -12 -31 -33 -37c-21 -5 -34 -18 -34 -47l-1 -164c-1 -111 -71 -156 -158 -165c-23 -3 -36 11 -36 34v50
c0 21 11 30 32 37c25 9 39 32 39 79l1 142c0 58 32 92 65 98c-33 6 -65 41 -65 100z" />
    <glyph glyph-name="bracketleft" unicode="[" horiz-adv-x="339" 
d="M122 -106c-27 0 -42 15 -42 42v802c0 27 15 42 42 42h147c22 0 35 -13 35 -35v-50c0 -22 -13 -35 -35 -35h-48c-15 0 -23 -9 -23 -24v-599c0 -15 8 -23 23 -23h48c22 0 35 -13 35 -36v-49c0 -22 -13 -35 -35 -35h-147z" />
    <glyph glyph-name="bracketright" unicode="]" horiz-adv-x="339" 
d="M70 -106c-22 0 -35 13 -35 35v50c0 22 13 35 35 35h48c15 0 23 9 23 24v599c0 15 -8 24 -23 24h-48c-22 0 -35 13 -35 35v49c0 22 13 35 35 35h147c27 0 42 -15 42 -42v-802c0 -27 -15 -42 -42 -42h-147z" />
    <glyph glyph-name="parenleft" unicode="(" horiz-adv-x="329" 
d="M280 714c16 -17 16 -33 1 -50c-69 -72 -111 -178 -111 -327c0 -150 51 -262 112 -328c15 -16 14 -32 -2 -49l-31 -30c-15 -16 -32 -17 -48 -3c-97 87 -160 231 -160 410c0 178 62 323 159 409c16 15 34 14 49 -2z" />
    <glyph glyph-name="parenright" unicode=")" horiz-adv-x="329" 
d="M159 337c0 149 -41 253 -111 327c-16 17 -15 34 0 50l31 30c15 16 33 17 49 2c97 -86 159 -231 159 -409c0 -179 -63 -323 -159 -410c-16 -14 -35 -13 -49 3l-32 30c-15 17 -19 30 -8 41c70 70 120 179 120 336z" />
    <glyph glyph-name="emdash" unicode="&#x2014;" horiz-adv-x="701" 
d="M606 331c22 0 35 -13 35 -35v-41c0 -22 -13 -35 -35 -35h-511c-22 0 -35 13 -35 35v41c0 22 13 35 35 35h511z" />
    <glyph glyph-name="endash" unicode="&#x2013;" horiz-adv-x="586" 
d="M491 331c22 0 35 -13 35 -35v-41c0 -22 -13 -35 -35 -35h-396c-22 0 -35 13 -35 35v41c0 22 13 35 35 35h396z" />
    <glyph glyph-name="hyphen" unicode="-" horiz-adv-x="506" 
d="M411 331c22 0 35 -13 35 -35v-41c0 -22 -13 -35 -35 -35h-316c-22 0 -35 13 -35 35v41c0 22 13 35 35 35h316z" />
    <glyph glyph-name="guillemotleft" unicode="&#xab;" horiz-adv-x="557" 
d="M155 297c-15 -11 -15 -23 0 -35l78 -57c15 -11 22 -24 22 -42v-53c0 -29 -20 -39 -43 -21l-151 118c-15 12 -21 24 -21 42v58c0 18 6 31 21 43l151 115c23 18 43 8 43 -22v-49c0 -19 -7 -31 -23 -42zM399 297c-15 -11 -15 -23 0 -35l78 -57c15 -11 22 -24 22 -42v-53
c0 -29 -20 -39 -43 -21l-151 118c-15 12 -21 24 -21 42v58c0 18 6 31 21 43l151 115c23 18 43 8 43 -22v-49c0 -19 -7 -31 -23 -42z" />
    <glyph glyph-name="guillemotright" unicode="&#xbb;" horiz-adv-x="560" 
d="M158 297l-77 55c-16 11 -23 23 -23 42v49c0 30 20 40 43 22l151 -115c15 -12 21 -25 21 -43v-58c0 -18 -6 -30 -21 -42l-151 -118c-23 -18 -43 -8 -43 21v53c0 18 7 31 22 42l78 57c15 12 15 24 0 35zM405 297l-77 55c-16 11 -23 23 -23 42v49c0 30 20 40 43 22l151 -115
c15 -12 21 -25 21 -43v-58c0 -18 -6 -30 -21 -42l-151 -118c-23 -18 -43 -8 -43 21v53c0 18 7 31 22 42l78 57c15 12 15 24 0 35z" />
    <glyph glyph-name="guilsinglleft" unicode="&#x2039;" horiz-adv-x="313" 
d="M155 297c-15 -11 -15 -23 0 -35l78 -57c15 -11 22 -24 22 -42v-53c0 -29 -20 -39 -43 -21l-151 118c-15 12 -21 24 -21 42v58c0 18 6 31 21 43l151 115c23 18 43 8 43 -22v-49c0 -19 -7 -31 -23 -42z" />
    <glyph glyph-name="guilsinglright" unicode="&#x203a;" horiz-adv-x="313" 
d="M102 89c-23 -19 -43 -9 -43 20v54c0 18 6 31 21 42l79 57c15 12 15 25 0 35l-78 55c-16 11 -22 23 -22 42v49c0 30 19 40 43 22l151 -115c15 -12 21 -25 21 -43v-58c0 -18 -6 -30 -21 -42z" />
    <glyph glyph-name="quotedblbase" unicode="&#x201e;" horiz-adv-x="435" 
d="M63 119c3 19 15 30 34 30h63c22 0 32 -13 27 -36l-44 -188c-4 -19 -15 -28 -34 -28h-39c-21 0 -32 13 -29 34zM254 119c3 19 15 30 34 30h63c22 0 32 -13 27 -36l-44 -188c-4 -19 -15 -28 -34 -28h-39c-21 0 -32 13 -29 34z" />
    <glyph glyph-name="quotedblleft" unicode="&#x201c;" horiz-adv-x="434" 
d="M173 510c-3 -19 -15 -30 -34 -30h-63c-22 0 -32 13 -27 36l44 188c4 19 15 28 34 28h39c21 0 32 -13 29 -34zM364 510c-3 -19 -15 -30 -34 -30h-63c-22 0 -32 13 -27 36l44 188c4 19 15 28 34 28h39c21 0 32 -13 29 -34z" />
    <glyph glyph-name="quotedblright" unicode="&#x201d;" horiz-adv-x="427" 
d="M74 710c3 19 15 30 34 30h63c22 0 32 -13 27 -36l-44 -188c-4 -19 -15 -28 -34 -28h-39c-21 0 -32 13 -29 34zM265 710c3 19 15 30 34 30h63c22 0 32 -13 27 -36l-44 -188c-4 -19 -15 -28 -34 -28h-39c-21 0 -32 13 -29 34z" />
    <glyph glyph-name="quoteleft" unicode="&#x2018;" horiz-adv-x="242" 
d="M173 510c-3 -19 -15 -30 -34 -30h-63c-22 0 -32 13 -27 36l44 188c4 19 15 28 34 28h39c21 0 32 -13 29 -34z" />
    <glyph glyph-name="quoteright" unicode="&#x2019;" horiz-adv-x="236" 
d="M74 710c3 19 15 30 34 30h63c22 0 32 -13 27 -36l-44 -188c-4 -19 -15 -28 -34 -28h-39c-21 0 -32 13 -29 34z" />
    <glyph glyph-name="quotesinglbase" unicode="&#x201a;" horiz-adv-x="244" 
d="M63 119c3 19 15 30 34 30h63c22 0 32 -13 27 -36l-44 -188c-4 -19 -15 -28 -34 -28h-39c-21 0 -32 13 -29 34z" />
    <glyph glyph-name="space" unicode=" " horiz-adv-x="236" 
 />
    <glyph glyph-name="uni00A0" unicode="&#xa0;" horiz-adv-x="236" 
 />
    <glyph glyph-name="cent" unicode="&#xa2;" horiz-adv-x="615" 
d="M40 304c0 137 97 245 235 263c8 2 12 6 12 14v84c0 19 13 32 34 32h6c20 -1 34 -11 34 -32v-85c0 -7 5 -12 13 -13c115 -15 183 -87 202 -173c5 -21 -8 -34 -30 -34h-76c-18 0 -26 10 -35 26c-12 24 -34 46 -62 54c-10 2 -15 -3 -15 -12v-256c0 -9 5 -13 14 -11
c26 6 49 24 58 45c9 17 18 26 36 26h80c21 0 34 -13 30 -34c-21 -90 -104 -151 -203 -165c-7 -1 -12 -6 -12 -13l1 -58c0 -20 -15 -32 -35 -32h-7c-19 1 -33 12 -33 32v58c0 8 -4 12 -12 13c-140 21 -235 132 -235 271zM187 300c0 -77 37 -123 89 -140c9 -3 15 3 15 12v256
c0 9 -5 15 -13 12c-55 -16 -91 -66 -91 -140z" />
    <glyph glyph-name="currency" unicode="&#xa4;" horiz-adv-x="637" 
d="M56 309c0 61 21 114 57 154l-33 28c-16 13 -17 28 -4 44l10 12c13 16 28 18 44 5l47 -39c42 23 94 36 143 36c48 0 98 -12 139 -33l43 35c17 14 31 12 45 -4l10 -12c13 -15 12 -32 -3 -45l-29 -24c38 -40 59 -94 59 -157c0 -66 -22 -122 -61 -165l30 -25
c16 -14 18 -29 4 -45l-9 -11c-14 -16 -29 -18 -45 -4l-44 36c-41 -21 -92 -34 -139 -34c-49 0 -101 13 -143 37l-47 -39c-15 -13 -31 -12 -44 4l-10 11c-13 16 -11 31 5 45l33 29c-37 42 -58 98 -58 161zM198 306c0 -75 54 -128 122 -128c69 0 122 53 122 128
c0 74 -53 126 -122 126c-68 0 -122 -52 -122 -126z" />
    <glyph glyph-name="dollar" unicode="$" horiz-adv-x="625" 
d="M39 192c-5 23 8 35 29 35h63c18 0 29 -9 36 -27c18 -45 55 -72 102 -83c9 -3 14 3 14 11v126c0 7 -3 13 -11 14c-101 18 -210 62 -210 202c0 105 88 173 208 185c9 1 13 6 13 14v11c0 19 11 30 31 30h4c19 0 30 -11 30 -30v-13c0 -8 5 -12 12 -13
c118 -16 189 -87 212 -187c4 -21 -7 -34 -29 -34h-70c-18 0 -29 8 -36 25c-13 32 -38 59 -74 73c-9 3 -15 -2 -15 -11v-139c0 -8 4 -13 12 -14c105 -20 223 -50 223 -194c0 -107 -95 -171 -222 -182c-8 0 -13 -5 -13 -13v-30c0 -20 -11 -31 -30 -31h-4c-20 0 -31 11 -31 30
v33c0 8 -3 13 -11 14c-108 14 -207 80 -233 198zM196 465c0 -41 30 -68 72 -79c10 -2 15 2 15 11v128c0 8 -7 14 -19 11c-44 -10 -68 -37 -68 -71zM363 251c-9 1 -15 -3 -15 -11v-115c0 -8 6 -13 14 -12c53 7 84 29 84 67c0 43 -35 61 -83 71z" />
    <glyph glyph-name="Euro" unicode="&#x20ac;" horiz-adv-x="796" 
d="M36 261l2 9c4 19 16 28 35 28h23c8 0 13 4 13 12v11v15c1 9 -3 13 -12 13h-9c-21 0 -32 13 -28 34l1 8c4 19 16 29 35 29h14c7 0 12 4 14 11c41 139 162 226 326 226c134 0 252 -82 291 -204c7 -22 -6 -36 -28 -36h-80c-18 0 -28 9 -36 26c-24 48 -78 87 -147 87
c-77 0 -137 -35 -168 -95c-4 -8 0 -15 10 -15h187c22 0 33 -13 29 -34l-1 -9c-4 -18 -17 -28 -36 -28h-202c-7 0 -13 -4 -14 -12v-13v-13c1 -8 7 -13 14 -13h184c22 0 34 -12 29 -34l-2 -9c-3 -19 -15 -29 -34 -29h-154c-9 0 -14 -6 -10 -15c32 -60 91 -94 164 -94
c68 0 125 31 154 82c9 16 20 23 37 23h76c22 0 35 -14 28 -35c-36 -116 -146 -197 -295 -197c-151 0 -277 90 -321 225c-2 8 -7 11 -14 11h-47c-21 0 -32 13 -28 35z" />
    <glyph glyph-name="sterling" unicode="&#xa3;" horiz-adv-x="674" 
d="M41 266v14c0 20 12 32 32 32h65c-13 32 -29 69 -29 120c0 135 103 225 256 225c132 0 229 -76 257 -188c6 -22 -7 -35 -29 -35h-81c-18 0 -28 9 -36 26c-18 41 -59 70 -113 70c-67 0 -110 -44 -110 -112c0 -44 12 -77 21 -106h194c21 0 32 -12 32 -32v-14
c0 -18 -11 -29 -32 -29l-185 -2c-3 -22 -12 -48 -34 -79c-7 -11 -4 -18 8 -21c5 0 10 -1 15 -2c56 -10 102 -28 170 -28c42 0 72 8 84 29c10 14 16 24 34 24h37c19 0 32 -8 34 -27c10 -77 -39 -155 -172 -155c-98 0 -147 42 -236 41c-25 0 -48 -5 -69 -12
c-27 -9 -45 -4 -56 21l-17 38c-10 23 -5 41 13 59c44 48 59 82 60 112l-81 1c-20 1 -32 12 -32 30z" />
    <glyph glyph-name="yen" unicode="&#xa5;" horiz-adv-x="658" 
d="M55 607c-12 22 -4 38 22 38h88c17 0 30 -7 37 -23l122 -244c6 -13 16 -12 22 0l124 244c7 15 20 23 37 23h76c25 0 35 -16 23 -38l-138 -241c-7 -12 -1 -20 11 -20h55c20 0 32 -12 32 -32v-4c0 -20 -12 -32 -32 -32h-88c-22 0 -36 -14 -36 -32v-11c0 -10 6 -16 16 -16h86
c20 0 32 -12 32 -32v-4c0 -21 -12 -32 -32 -32h-90c-9 0 -15 -7 -15 -16v-103c0 -20 -12 -32 -32 -32h-77c-20 0 -32 12 -32 32v103c0 9 -6 16 -16 16h-109c-20 0 -32 11 -32 32v4c0 20 12 32 32 32h104c10 0 16 6 16 16v11c0 18 -9 32 -35 32h-107c-20 0 -32 12 -32 32v4
c0 20 12 32 32 32h71c12 0 17 9 10 20z" />
    <glyph glyph-name="plus" unicode="+" horiz-adv-x="472" 
d="M40 276v47c0 20 12 32 32 32h91c10 0 17 6 17 17v90c0 21 12 32 32 32h49c20 0 32 -12 32 -32v-89c0 -11 6 -18 17 -18h90c20 0 32 -11 32 -31v-48c0 -20 -12 -32 -32 -32h-90c-11 0 -17 -6 -17 -17v-89c0 -20 -12 -32 -32 -32h-49c-20 0 -32 12 -32 32v89
c0 11 -6 17 -17 17h-91c-20 0 -32 12 -32 32z" />
    <glyph glyph-name="minus" unicode="&#x2212;" horiz-adv-x="518" 
d="M423 331c20 0 31 -12 31 -32v-48c0 -20 -11 -32 -31 -32h-328c-20 0 -32 12 -32 32v48c0 20 12 32 32 32h328z" />
    <glyph glyph-name="multiply" unicode="&#xd7;" horiz-adv-x="478" 
d="M72 151c-15 15 -15 31 0 45l78 76c9 9 9 19 0 29l-78 79c-15 14 -15 30 0 45l25 26c15 15 31 14 46 0l79 -80c10 -9 20 -9 29 0l84 81c15 15 30 14 45 0l26 -27c15 -14 15 -31 0 -45l-83 -81c-9 -9 -9 -20 0 -29l83 -83c15 -14 15 -30 0 -45l-26 -27
c-15 -14 -31 -13 -46 1l-83 84c-10 9 -20 9 -30 0l-77 -76c-15 -15 -32 -14 -46 0z" />
    <glyph glyph-name="divide" unicode="&#xf7;" horiz-adv-x="509" 
d="M254 380c-41 0 -73 33 -73 77c0 39 32 73 73 73c42 0 75 -34 75 -73c0 -44 -33 -77 -75 -77zM437 329c20 0 31 -12 31 -32v-46c0 -20 -11 -32 -31 -32h-365c-20 0 -32 12 -32 32v46c0 20 12 32 32 32h365zM255 5c-41 0 -74 35 -74 77c0 40 33 74 74 74
c42 0 74 -34 74 -74c0 -42 -32 -77 -74 -77z" />
    <glyph glyph-name="equal" unicode="=" horiz-adv-x="513" 
d="M417 414c20 0 32 -12 32 -32v-46c0 -20 -12 -32 -32 -32h-321c-20 0 -32 12 -32 32v46c0 20 12 32 32 32h321zM417 224c20 0 32 -11 32 -31v-47c0 -20 -12 -32 -32 -32h-321c-20 0 -32 12 -32 32v47c0 20 12 31 32 31h321z" />
    <glyph glyph-name="notequal" unicode="&#x2260;" horiz-adv-x="513" 
d="M64 146v47c0 20 12 31 32 31h97c11 0 18 5 20 15l13 45c3 13 -3 20 -15 20h-115c-20 0 -32 12 -32 32v46c0 20 12 32 32 32h151c10 0 16 5 19 15l12 42c5 18 17 27 35 27h25c22 0 33 -13 27 -36l-8 -28c-4 -13 3 -20 14 -20h46c20 0 32 -12 32 -32v-46
c0 -20 -12 -32 -32 -32h-81c-10 0 -17 -5 -19 -15l-13 -45c-4 -13 3 -20 15 -20h98c20 0 32 -11 32 -31v-47c0 -20 -12 -32 -32 -32h-134c-10 0 -17 -5 -19 -15l-15 -52c-5 -19 -17 -27 -35 -27h-26c-22 0 -33 12 -27 35l11 40c3 12 -3 19 -15 19h-61c-20 0 -32 12 -32 32z
" />
    <glyph glyph-name="greater" unicode="&#x3e;" horiz-adv-x="451" 
d="M92 74c-21 -10 -37 0 -37 24v70c0 18 8 30 25 37l160 59c20 8 21 20 0 28l-160 62c-17 7 -25 19 -25 37v70c0 25 16 35 38 24l293 -145c16 -8 24 -20 24 -37v-51c0 -17 -9 -30 -24 -37z" />
    <glyph glyph-name="less" unicode="&#x3c;" horiz-adv-x="451" 
d="M65 215c-16 7 -24 20 -24 37v51c0 17 8 29 23 37l294 145c22 11 37 1 37 -24v-70c0 -18 -8 -30 -25 -37l-159 -62c-18 -7 -18 -21 0 -28l159 -59c18 -7 25 -19 25 -37v-70c0 -24 -15 -34 -37 -24z" />
    <glyph glyph-name="plusminus" unicode="&#xb1;" horiz-adv-x="502" 
d="M55 341v47c0 20 12 32 32 32h91c10 0 17 6 17 17v90c0 21 12 32 32 32h49c20 0 32 -12 32 -32v-89c0 -11 6 -18 17 -18h90c20 0 32 -11 32 -31v-48c0 -20 -12 -32 -32 -32h-90c-11 0 -17 -6 -17 -17v-89c0 -20 -12 -32 -32 -32h-49c-20 0 -32 12 -32 32v89
c0 11 -6 17 -17 17h-91c-20 0 -32 12 -32 32zM415 109c20 0 31 -12 31 -32v-48c0 -20 -11 -32 -31 -32h-328c-20 0 -32 12 -32 32v48c0 20 12 32 32 32h328z" />
    <glyph glyph-name="approxequal" unicode="&#x2248;" horiz-adv-x="547" 
d="M461 428c18 -6 28 -19 24 -38c-12 -55 -57 -93 -121 -93c-68 1 -101 32 -147 32c-19 0 -34 -7 -43 -17c-14 -13 -22 -21 -39 -16l-45 11c-17 5 -29 17 -27 35c3 60 44 104 109 103c72 0 120 -36 163 -37c19 0 34 6 44 16c13 14 23 21 40 16zM461 208c18 -6 28 -19 24 -38
c-12 -55 -57 -93 -121 -93c-68 1 -101 32 -147 32c-19 0 -34 -7 -43 -17c-14 -13 -22 -21 -39 -16l-45 11c-17 5 -29 17 -27 35c3 60 44 104 109 103c72 0 120 -36 163 -37c19 0 34 6 44 16c13 14 23 21 40 16z" />
    <glyph glyph-name="asciitilde" unicode="~" horiz-adv-x="542" 
d="M458 333c18 -6 28 -19 24 -38c-12 -55 -57 -93 -121 -93c-68 1 -101 32 -147 32c-19 0 -34 -7 -43 -17c-14 -13 -22 -21 -39 -16l-45 11c-17 5 -29 17 -27 35c3 60 44 104 109 103c72 0 120 -36 163 -37c19 0 34 6 44 16c13 14 23 21 40 16z" />
    <glyph glyph-name="percent" unicode="%" horiz-adv-x="892" 
d="M31 549c0 115 71 191 176 191c104 0 176 -76 176 -191c0 -114 -72 -192 -176 -192c-105 0 -176 78 -176 192zM248 87l319 617c9 19 25 24 43 16l35 -15c20 -9 25 -24 15 -42l-318 -622c-9 -18 -24 -23 -42 -14l-37 18c-19 9 -24 23 -15 42zM132 549
c0 -64 29 -102 75 -102s75 38 75 102c0 62 -29 101 -75 101s-75 -39 -75 -101zM509 182c0 114 72 191 176 191c105 0 176 -77 176 -191s-71 -192 -176 -192c-104 0 -176 78 -176 192zM611 182c0 -63 29 -102 74 -102c46 0 75 39 75 102s-29 101 -75 101
c-45 0 -74 -38 -74 -101z" />
    <glyph glyph-name="perthousand" unicode="&#x2030;" horiz-adv-x="1286" 
d="M383 549c0 -114 -72 -192 -176 -192c-105 0 -176 78 -176 192c0 115 71 191 176 191c104 0 176 -76 176 -191zM645 705c20 -9 25 -24 15 -42l-318 -622c-9 -18 -24 -23 -42 -14l-37 18c-19 9 -24 23 -15 42l319 617c9 19 25 24 43 16zM207 447c46 0 75 38 75 102
c0 62 -29 101 -75 101s-75 -39 -75 -101c0 -64 29 -102 75 -102zM685 373c105 0 176 -77 176 -191s-71 -192 -176 -192c-104 0 -176 78 -176 192s72 191 176 191zM1080 373c105 0 176 -77 176 -191c0 -115 -71 -192 -176 -192s-176 77 -176 192c0 114 71 191 176 191z
M685 80c46 0 75 39 75 102s-29 101 -75 101c-45 0 -74 -38 -74 -101s29 -102 74 -102zM1080 80c46 0 75 39 75 102s-29 101 -75 101s-75 -38 -75 -101s29 -102 75 -102z" />
    <glyph glyph-name="uniF8FF" unicode="&#xf8ff;" horiz-adv-x="1170" 
d="M300 573c0 13 -9 22 -22 22h-58v102c0 14 -10 25 -25 25c-16 0 -25 -11 -25 -25v-146h108c13 0 22 8 22 22zM316 636c0 -50 40 -88 93 -88s92 37 92 88s-39 86 -92 86s-93 -37 -93 -86zM617 600c0 -6 -6 -9 -20 -9c-24 0 -30 12 -46 12c-14 0 -22 -8 -22 -20
c0 -22 26 -35 66 -35c43 0 71 21 71 54c0 65 -82 48 -82 68c0 6 4 10 16 10c19 0 30 -11 45 -11c12 0 20 8 20 19c0 24 -30 34 -60 34c-46 0 -70 -22 -70 -54c0 -62 82 -44 82 -68zM449 636c0 -25 -16 -42 -40 -42c-25 0 -42 19 -42 42c0 24 17 41 42 41c24 0 40 -17 40 -41
zM505 285h32v146c0 14 -11 25 -26 25s-25 -11 -25 -25v-63l-81 85h-32v-146c0 -14 10 -26 25 -26s26 12 26 26v63zM1038 334c0 -7 -6 -10 -20 -10c-24 0 -30 13 -45 13s-22 -9 -22 -21c0 -22 27 -35 65 -35c44 0 72 21 72 54c0 65 -82 48 -82 69c0 5 4 9 16 9
c18 0 30 -11 45 -11c12 0 20 8 20 19c0 24 -29 35 -60 35c-47 0 -71 -21 -71 -54c0 -63 82 -45 82 -68zM312 281c18 0 28 17 20 36l-65 136h-40l-66 -136c-9 -19 3 -36 21 -36c12 0 21 5 25 15l5 13h70l5 -13c4 -10 13 -15 25 -15zM751 369c0 51 -36 84 -91 84h-75v-168h75
c55 0 91 33 91 84zM912 369c0 11 -8 21 -22 21h-48v20h58c13 0 21 10 21 22s-8 21 -21 21h-109v-168h109c13 0 21 8 21 20c0 13 -8 21 -21 21h-58v23h48c14 0 22 8 22 20zM700 368c0 -23 -15 -40 -41 -40h-23v80h23c26 0 41 -16 41 -40zM268 343h-42l21 51zM209 22
c0 -15 11 -25 25 -25s26 10 26 25v104h35c14 0 24 10 24 22c0 13 -10 22 -24 22h-122c-14 0 -22 -10 -22 -22c0 -11 8 -22 22 -22h36v-104zM506 169h-57l-30 -59l-31 59h-58l62 -100v-47c0 -15 12 -25 26 -25s25 10 25 25v47zM606 42c44 0 69 28 69 64c0 35 -25 63 -69 63
h-74v-147c0 -15 12 -25 27 -25c14 0 24 10 24 25v20h23zM831 85c0 11 -8 21 -22 21h-48v20h58c14 0 22 10 22 22s-8 21 -22 21h-109v-169h109c14 0 22 9 22 21c0 13 -8 22 -22 22h-58v22h48c14 0 22 8 22 20zM602 84h-19v44h19c17 0 25 -10 25 -22c0 -14 -8 -22 -25 -22z
" />
    <glyph glyph-name="at" unicode="@" horiz-adv-x="939" 
d="M44 298c0 268 215 443 486 443c204 0 375 -127 375 -335c0 -161 -89 -268 -221 -268c-38 0 -74 16 -99 42c-9 9 -17 9 -26 2c-34 -29 -81 -47 -141 -47c-94 0 -175 61 -175 181c0 119 85 223 220 223c51 0 91 -18 122 -46c8 -9 17 -8 23 2l8 15c8 15 19 21 36 21h16
c20 0 31 -12 28 -33l-37 -205c-8 -44 14 -59 43 -59c62 0 96 66 96 166c0 143 -117 239 -280 239c-206 0 -367 -136 -367 -329c0 -164 121 -264 280 -264c50 0 102 6 147 19c26 7 42 -3 36 -28l-8 -36c-4 -19 -14 -30 -33 -35c-47 -14 -100 -21 -156 -21
c-201 0 -373 150 -373 353zM352 316c0 -50 34 -87 82 -87c47 0 82 18 105 51c9 13 13 24 16 41l6 33c3 16 4 29 -5 44c-17 29 -47 47 -88 47c-65 0 -116 -47 -116 -129z" />
    <glyph glyph-name="ampersand" unicode="&#x26;" horiz-adv-x="753" 
d="M39 204c0 75 36 127 86 159c14 9 15 18 4 30c-30 30 -49 74 -49 127c0 118 106 208 249 208c129 0 214 -81 243 -189c6 -21 -6 -34 -27 -34h-81c-18 0 -28 9 -35 24c-19 42 -53 72 -100 72c-59 0 -104 -32 -104 -91c0 -61 43 -100 97 -100h38c19 0 30 -11 30 -31v-49
c0 -19 -11 -30 -30 -30h-57c-83 0 -121 -36 -121 -90c0 -52 59 -93 145 -93c114 0 181 76 195 154c4 19 -6 29 -23 29h-9c-20 0 -31 11 -31 30v49c0 20 11 31 31 31h219c20 0 31 -11 31 -31v-49c0 -19 -11 -30 -31 -30h-23c-15 0 -25 -8 -26 -24
c-16 -152 -134 -285 -331 -285c-175 0 -290 91 -290 213z" />
    <glyph glyph-name="paragraph" unicode="&#xb6;" horiz-adv-x="817" 
d="M32 493c0 135 93 237 275 237h440c20 0 31 -11 31 -30v-57c0 -19 -11 -30 -31 -30h-30c-16 0 -25 -9 -25 -24v-560c0 -20 -11 -31 -30 -31h-61c-19 0 -30 11 -30 31v560c0 15 -9 24 -24 24h-44c-15 0 -24 -9 -24 -24v-560c0 -20 -11 -31 -30 -31h-54c-19 0 -30 11 -30 30
v193c0 15 -9 24 -25 24h-33c-182 0 -275 107 -275 248z" />
    <glyph glyph-name="section" unicode="&#xa7;" horiz-adv-x="651" 
d="M75 530c0 121 91 210 253 210c143 0 231 -82 262 -192c6 -21 -6 -34 -27 -34h-82c-17 0 -27 8 -34 24c-21 45 -59 75 -119 75c-62 0 -111 -31 -111 -80c0 -149 340 -25 367 -290c3 -22 -12 -34 -32 -30l-82 13c-17 3 -25 9 -26 18c-23 116 -369 20 -369 286zM44 -6
c-6 21 5 34 26 34h86c17 0 27 -8 34 -24c23 -54 71 -84 146 -84c74 0 120 34 120 80c0 154 -365 -2 -392 286c-3 22 11 33 32 30l84 -16c17 -3 23 -13 30 -29c43 -109 394 -4 394 -269c0 -121 -107 -211 -268 -211c-159 0 -252 77 -292 203z" />
    <glyph glyph-name="copyright" unicode="&#xa9;" horiz-adv-x="887" 
d="M444 -62c-223 0 -405 182 -405 405s182 404 405 404c222 0 404 -182 404 -404c0 -223 -181 -405 -404 -405zM444 36c169 0 305 138 305 307s-136 306 -305 306s-305 -137 -305 -306c0 -170 135 -307 305 -307zM576 390c-18 0 -26 8 -34 24c-14 28 -46 50 -91 50
c-64 0 -111 -51 -111 -124c0 -79 53 -125 110 -125c42 0 74 17 89 45c9 16 18 24 35 24h60c20 0 33 -13 27 -33c-24 -77 -109 -134 -208 -134c-140 0 -233 99 -233 226c0 124 93 221 229 221c120 0 191 -68 211 -142c6 -20 -7 -32 -27 -32h-57z" />
    <glyph glyph-name="registered" unicode="&#xae;" horiz-adv-x="887" 
d="M39 343c0 223 182 404 405 404c222 0 404 -182 404 -404c0 -223 -181 -405 -404 -405s-405 182 -405 405zM139 343c0 -170 135 -307 305 -307c169 0 305 138 305 307s-136 306 -305 306s-305 -137 -305 -306zM333 139c-20 0 -31 12 -31 31v357c0 28 18 46 46 46h94
c108 0 189 -58 189 -145c0 -52 -32 -95 -85 -118c-15 -7 -19 -17 -10 -30l71 -104c14 -20 5 -37 -19 -37h-63c-16 0 -28 7 -36 21l-79 126h-4v-116c0 -19 -11 -31 -30 -31h-43zM406 385c0 -12 7 -18 18 -18h14c48 0 84 22 84 61s-36 61 -85 61h-13c-11 0 -18 -6 -18 -18v-86
z" />
    <glyph glyph-name="trademark" unicode="&#x2122;" horiz-adv-x="788" 
d="M33 681v20c0 20 11 31 30 31h243c20 0 31 -11 31 -31v-20c0 -19 -11 -30 -31 -30h-52c-15 0 -23 -9 -23 -23v-194c0 -20 -11 -31 -31 -31h-35c-20 0 -31 10 -31 31l1 194c0 15 -8 23 -24 23h-48c-19 0 -30 11 -30 30zM365 434v267c0 20 11 31 31 31h20c16 0 28 -6 37 -20
l68 -102c11 -15 26 -16 37 0l72 102c9 13 21 20 37 20h19c19 0 30 -11 30 -31v-267c0 -20 -11 -31 -30 -31h-27c-19 0 -30 11 -30 31v137l-52 -71c-8 -11 -18 -17 -31 -17h-9c-13 0 -24 6 -32 17l-54 73v-139c0 -20 -11 -31 -30 -31h-25c-20 0 -31 11 -31 31z" />
    <glyph glyph-name="degree" unicode="&#xb0;" horiz-adv-x="403" 
d="M203 406c-93 0 -168 75 -168 168c0 92 75 166 168 166c91 0 166 -75 166 -166c0 -93 -75 -168 -166 -168zM203 487c47 0 85 38 85 87c0 47 -38 86 -85 86c-49 0 -87 -39 -87 -86c0 -49 38 -87 87 -87z" />
    <glyph glyph-name="bar" unicode="|" horiz-adv-x="268" 
d="M112 0c-20 0 -32 12 -32 32v666c0 20 12 32 32 32l45 -1c20 0 32 -12 32 -32v-666c0 -20 -12 -32 -32 -32z" />
    <glyph glyph-name="brokenbar" unicode="&#xa6;" horiz-adv-x="268" 
d="M112 429c-20 0 -32 12 -32 32v237c0 20 12 32 32 32h45c20 0 32 -12 32 -32v-237c0 -20 -12 -32 -32 -32h-45zM157 296c20 0 32 -11 32 -31v-233c0 -20 -12 -32 -32 -32h-45c-20 0 -32 12 -32 32v233c0 20 12 31 32 31h45z" />
    <glyph glyph-name="dagger" unicode="&#x2020;" horiz-adv-x="544" 
d="M35 460v32c0 19 11 30 30 30h112c22 0 34 13 34 34l-2 194c0 19 11 30 30 30h65c20 0 31 -11 31 -30l-2 -194c0 -21 12 -34 34 -34h112c19 0 30 -11 30 -30v-32c0 -20 -11 -31 -30 -31h-113c-22 0 -35 -12 -35 -34l-5 -425c0 -20 -11 -30 -31 -30h-47
c-19 0 -30 10 -30 30l-5 425c0 22 -13 34 -35 34h-113c-19 0 -30 11 -30 31z" />
    <glyph glyph-name="daggerdbl" unicode="&#x2021;" horiz-adv-x="544" 
d="M35 301v27c0 19 11 30 30 30h114c22 0 34 13 34 34v47c0 22 -13 35 -35 35h-113c-19 0 -30 11 -30 30v27c0 19 11 30 30 30h112c21 0 34 13 34 35l-2 154c0 19 11 30 30 30h65c20 0 31 -11 31 -30l-2 -154c0 -22 13 -35 34 -35h112c19 0 30 -11 30 -30v-27
c0 -19 -11 -30 -30 -30h-113c-22 0 -35 -13 -35 -35v-47c0 -21 12 -34 34 -34h114c19 0 30 -11 30 -30v-27c0 -20 -11 -31 -30 -31h-115c-22 0 -35 -12 -35 -34l-3 -266c0 -20 -11 -30 -31 -30h-47c-19 0 -30 10 -30 30l-3 266c0 22 -13 34 -35 34h-115c-19 0 -30 11 -30 31
z" />
    <glyph glyph-name="asciicircum" unicode="^" horiz-adv-x="466" 
d="M54 633c-9 17 -5 33 12 43l131 74c21 13 41 13 63 0l138 -75c18 -10 22 -25 13 -42l-7 -14c-10 -16 -23 -22 -42 -15l-102 41c-21 9 -40 9 -61 0l-96 -40c-17 -8 -32 -2 -41 14z" />
    <glyph glyph-name="ampersand.ss01" horiz-adv-x="724" 
d="M35 186c0 90 55 142 122 178c18 9 21 23 8 40c-35 41 -58 83 -58 137c0 112 86 195 225 195c135 0 223 -82 223 -191c0 -84 -50 -137 -124 -180c-18 -12 -21 -27 -5 -42l61 -60c15 -15 33 -13 42 5c11 21 19 43 22 65c4 20 14 30 33 30h62c21 0 33 -12 31 -32
c-5 -50 -24 -107 -57 -159c-10 -16 -9 -29 4 -42l72 -70c12 -11 16 -23 16 -38c0 -14 -11 -22 -31 -22h-74c-15 0 -27 4 -39 15l-31 30c-13 13 -27 13 -42 4c-56 -36 -125 -58 -208 -58c-152 0 -252 79 -252 195zM248 536c0 -34 18 -59 48 -88c13 -13 26 -15 42 -7
c51 25 82 50 82 95c-1 42 -40 74 -88 74c-49 0 -84 -31 -84 -74zM174 191c0 -45 44 -78 113 -78c37 0 71 10 102 25c20 9 21 27 5 42l-101 97c-12 12 -32 13 -58 -3c-43 -24 -61 -49 -61 -83z" />
    <glyph glyph-name="uni0308" unicode="&#x308;" 
d="M-381 598c-42 0 -76 34 -76 79c0 41 34 75 76 75s78 -34 78 -75c0 -45 -36 -79 -78 -79zM-165 598c-41 0 -77 34 -77 79c0 41 36 75 77 75c43 0 78 -34 78 -75c0 -45 -35 -79 -78 -79z" />
    <glyph glyph-name="uni0307" unicode="&#x307;" 
d="M-149 588c-52 0 -92 42 -92 94c0 50 40 91 92 91c50 0 93 -41 93 -91c0 -52 -43 -94 -93 -94z" />
    <glyph glyph-name="gravecomb" unicode="&#x300;" 
d="M-367 754c9 20 25 23 43 12l173 -106c17 -11 21 -26 12 -44l-9 -15c-9 -17 -24 -22 -42 -16l-187 71c-20 8 -26 22 -17 42z" />
    <glyph glyph-name="acutecomb" unicode="&#x301;" 
d="M-211 764c18 11 34 7 43 -12l27 -57c9 -19 3 -33 -17 -41l-185 -70c-19 -6 -33 -2 -43 15l-8 16c-9 17 -6 32 12 43z" />
    <glyph glyph-name="uni030B" unicode="&#x30b;" 
d="M-395 713c6 16 19 24 37 24h66c25 0 34 -17 20 -38l-57 -89c-9 -14 -21 -21 -38 -21h-38c-24 0 -33 15 -25 36zM-210 713c6 16 19 24 37 24h66c26 0 34 -17 21 -38l-57 -89c-9 -14 -21 -21 -38 -21h-39c-24 0 -33 15 -25 36z" />
    <glyph glyph-name="caroncomb.alt" 
d="M-201 586c19 0 31 10 34 29l32 173c4 22 -7 35 -28 35h-52c-20 0 -31 -11 -33 -30l-17 -173c-2 -21 9 -34 30 -34h34z" />
    <glyph glyph-name="uni0302" unicode="&#x302;" 
d="M-454 638c-8 17 -4 33 12 41l133 71c19 10 36 11 55 1l140 -72c17 -8 21 -24 12 -41l-9 -18c-8 -17 -22 -22 -39 -16l-104 36c-19 7 -35 6 -53 0l-98 -35c-17 -6 -32 -2 -40 15z" />
    <glyph glyph-name="uni030C" unicode="&#x30c;" 
d="M-443 702l3 14c3 18 21 24 39 18l106 -34c9 -3 18 -3 27 0l106 34c18 6 36 0 40 -18l3 -14c3 -17 2 -32 -15 -40l-112 -55c-24 -12 -47 -12 -71 0l-112 55c-16 8 -18 23 -14 40z" />
    <glyph glyph-name="uni0306" unicode="&#x306;" 
d="M-413 742c19 0 27 -9 34 -28c12 -25 39 -40 71 -40c31 0 59 15 72 40c8 19 16 28 35 28h40c21 -1 34 -12 30 -34c-17 -76 -83 -126 -177 -126c-87 0 -158 46 -177 126c-5 22 9 33 30 34h42z" />
    <glyph glyph-name="uni030A" unicode="&#x30a;" 
d="M-150 570c-81 0 -126 51 -126 111c0 59 45 111 126 111c82 0 127 -52 127 -111c0 -60 -45 -111 -127 -111zM-150 642c25 0 43 17 43 39c0 23 -18 41 -43 41s-42 -18 -41 -41c-1 -22 16 -39 41 -39z" />
    <glyph glyph-name="tildecomb" unicode="&#x303;" 
d="M-152 695c19 -3 28 -16 26 -36c-8 -52 -52 -82 -103 -82c-58 0 -96 35 -125 35c-16 0 -25 -8 -31 -16c-7 -12 -18 -16 -35 -13l-32 6c-19 4 -29 17 -26 37c10 54 48 86 97 85c52 -1 103 -36 134 -36c15 0 27 8 32 15c5 11 15 14 32 11z" />
    <glyph glyph-name="uni0304" unicode="&#x304;" 
d="M-443 673c0 20 12 32 32 32h248c20 0 32 -12 32 -32v-37c0 -21 -12 -32 -32 -32h-248c-20 0 -32 11 -32 32v37z" />
    <glyph glyph-name="uni0312" unicode="&#x312;" 
 />
    <glyph glyph-name="uni0326" unicode="&#x326;" 
d="M-178 -62c2 20 14 29 33 29h58c22 0 33 -13 26 -36l-47 -150c-5 -17 -18 -26 -36 -26h-29c-22 0 -33 13 -29 34z" />
    <glyph glyph-name="uni0327" unicode="&#x327;" 
d="M-353 -93c-19 0 -29 13 -23 32l20 64h78l-5 -19c-3 -12 3 -19 16 -21c41 -7 74 -34 74 -84c0 -65 -59 -99 -132 -99c-32 0 -63 7 -86 19c-15 8 -17 22 -9 37l3 8c8 16 20 18 37 13c13 -5 27 -7 43 -7c27 0 40 10 40 28s-14 29 -40 29h-16z" />
    <glyph glyph-name="uni0328" unicode="&#x328;" 
d="M-223 -193c0 -11 -5 -18 -16 -21c-17 -4 -35 -6 -52 -6c-64 0 -116 35 -116 107c0 68 61 112 135 137l42 -24c-61 -39 -74 -75 -74 -106c0 -23 17 -37 37 -37c7 0 15 1 23 2c14 2 21 -4 21 -17v-35z" />
    <glyph glyph-name="uni0335" unicode="&#x335;" 
d="M-415 417c0 20 12 32 32 32h295c20 0 32 -12 32 -32v-43c0 -20 -12 -32 -32 -32h-295c-20 0 -32 12 -32 32v43z" />
    <glyph glyph-name="uni0336" unicode="&#x336;" 
d="M-790 405c0 20 11 32 31 32h716c20 0 32 -12 32 -32v-26c0 -20 -12 -32 -32 -32h-716c-20 0 -31 12 -31 32v26z" />
    </font>
</defs>
</svg>
